<?xml version="1.0" encoding="UTF-8" standalone="no"?>
<svg
   xmlns:dc="http://purl.org/dc/elements/1.1/"
   xmlns:cc="http://creativecommons.org/ns#"
   xmlns:rdf="http://www.w3.org/1999/02/22-rdf-syntax-ns#"
   xmlns:svg="http://www.w3.org/2000/svg"
   xmlns="http://www.w3.org/2000/svg"
   xmlns:sodipodi="http://sodipodi.sourceforge.net/DTD/sodipodi-0.dtd"
   xmlns:inkscape="http://www.inkscape.org/namespaces/inkscape"
   version="1.1"
   id="svg2"
   xml:space="preserve"
   width="261.33334"
   height="100.66667"
   viewBox="0 0 261.33334 100.66667"
   sodipodi:docname="about1.eps"><metadata
     id="metadata8"><rdf:RDF><cc:Work
         rdf:about=""><dc:format>image/svg+xml</dc:format><dc:type
           rdf:resource="http://purl.org/dc/dcmitype/StillImage" /></cc:Work></rdf:RDF></metadata><defs
     id="defs6" /><sodipodi:namedview
     pagecolor="#ffffff"
     bordercolor="#666666"
     borderopacity="1"
     objecttolerance="10"
     gridtolerance="10"
     guidetolerance="10"
     inkscape:pageopacity="0"
     inkscape:pageshadow="2"
     inkscape:window-width="640"
     inkscape:window-height="480"
     id="namedview4" /><g
     id="g10"
     inkscape:groupmode="layer"
     inkscape:label="ink_ext_XXXXXX"
     transform="matrix(1.3333333,0,0,-1.3333333,0,100.66667)"><g
       id="g12"
       transform="scale(0.1)"><path
         d="m 683.945,549.813 c -15.84,7.675 -36.25,11.996 -61.203,12.96 -1.922,0 -4.804,0 -8.64,0 -7.2,0.481 -12.364,0.723 -15.481,0.723 -3.125,0 -6.844,-0.359 -11.16,-1.086 -4.316,-0.711 -7.195,-1.324 -8.633,-1.797 -1.445,-0.484 -3.242,-2.41 -5.41,-5.758 -2.148,-3.363 -3.359,-6.007 -3.594,-7.921 -0.254,-1.922 -0.722,-6.368 -1.445,-13.321 -0.711,-6.965 -1.074,-12.961 -1.074,-18 0,-5.039 0,-13.316 0,-24.843 0,-1.922 0,-3.36 0,-4.317 0,-0.965 -0.125,-2.41 -0.364,-4.312 -0.242,-1.926 -0.359,-3.606 -0.359,-5.039 0,-52.817 0.469,-79.457 1.445,-79.922 1.438,-1.926 12.469,0.593 33.118,7.554 20.632,6.954 39.597,14.758 56.882,23.403 47.032,22.554 70.559,43.433 70.559,62.633 0,11.039 -4.082,21.964 -12.238,32.765 -8.172,10.801 -18.965,19.551 -32.403,26.278"
         style="fill:#100f0d;fill-opacity:1;fill-rule:nonzero;stroke:none"
         id="path14" /><path
         d="m 344.824,455.137 c -5.281,24.226 -10.801,46.914 -16.554,68.039 -6.239,21.109 -11.043,31.433 -14.403,30.957 -1.433,0 -2.637,-1.684 -3.594,-5.039 -0.488,-1.926 -6.972,-18.965 -19.445,-51.114 -8.64,-22.089 -17.398,-47.167 -26.277,-75.246 -8.887,-28.078 -13.321,-44.765 -13.321,-50.039 0,-2.882 17.52,-5.398 52.559,-7.558 35.039,-2.157 53.75,-2.051 56.16,0.359 1.438,1.438 0.598,10.676 -2.515,27.719 -3.137,17.027 -7.329,37.676 -12.61,61.922"
         style="fill:#100f0d;fill-opacity:1;fill-rule:nonzero;stroke:none"
         id="path16" /><path
         d="m 583.145,379.18 -16.563,-5.762 -2.871,-77.766 c -1.934,-51.836 -2.168,-78.726 -0.723,-80.632 1.438,-3.372 14.278,-4.688 38.516,-3.965 24.238,0.722 41.152,2.988 50.762,6.836 9.113,2.879 18.23,6.953 27.363,12.246 9.101,5.273 17.031,10.91 23.75,16.914 6.719,5.996 11.523,11.394 14.402,16.203 8.645,17.281 8.996,35.641 1.086,55.086 -7.929,19.433 -22.441,35.156 -43.562,47.156 -32.649,19.192 -63.364,23.762 -92.16,13.684"
         style="fill:#100f0d;fill-opacity:1;fill-rule:nonzero;stroke:none"
         id="path18" /><path
         d="m 1771.47,558.098 c -3.6,-30.493 -8.03,-45.723 -13.32,-45.723 -2.88,0 -4.2,4.195 -3.95,12.598 0.23,8.394 0.35,17.039 0.35,25.925 0,8.875 -1.91,14.036 -5.76,15.481 -4.32,1.434 -23.03,-0.727 -56.15,-6.484 l -48.25,-7.922 -2.88,-47.52 c -1.92,-31.68 -6.24,-69.836 -12.96,-114.48 -15.37,-106.086 -20.87,-161.282 -16.56,-165.598 2.4,-1.926 9.84,-3.605 22.33,-5.039 8.63,-0.488 14.04,-1.445 16.19,-2.883 2.17,-1.433 3.24,-4.805 3.24,-10.074 0,-4.809 -1.19,-8.176 -3.59,-10.078 -2.41,-1.926 -6.73,-3.606 -12.96,-5.039 -12,-2.883 -30.74,-3.242 -56.16,-1.086 -25.45,2.16 -39.85,5.398 -43.21,9.719 -4.31,5.281 -3.95,9.96 1.09,14.043 5.04,4.07 12.84,6.121 23.39,6.121 6.72,0 11.52,0.593 14.41,1.796 2.87,1.192 5.76,5.403 8.63,12.598 2.89,7.195 4.92,16.074 6.12,26.641 1.2,10.554 3.25,28.086 6.13,52.558 4.78,48.477 10.08,90.235 15.84,125.286 10.54,69.585 13.91,105.593 10.08,107.996 -1.93,1.445 -25.69,2.636 -71.28,3.601 l -68.41,0.727 -3.6,-19.446 c -0.96,-6.726 -2.88,-12.492 -5.76,-17.285 -2.87,-4.804 -5.64,-8.039 -8.28,-9.718 -2.64,-1.688 -5.39,-1.329 -8.28,1.085 -1.91,2.879 -0.96,13.672 2.89,32.395 2.87,14.871 6.23,30.477 10.08,46.805 2.87,12.961 6,18.957 9.35,18 2.89,-1.45 5.04,-5.762 6.49,-12.961 l 2.16,-14.407 70.55,0.723 c 38.4,0 79.81,3.117 124.2,9.36 44.4,6.238 69.49,12.246 75.25,18.003 4.31,4.321 7.92,5.754 10.79,4.321 4.8,-2.883 5.41,-19.563 1.8,-50.039 z m -349.55,-29.16 c -4.31,-0.969 -8.88,-1.692 -13.68,-2.161 l -24.47,-2.882 v -79.918 c -0.49,-47.051 -2.52,-81.489 -6.12,-103.325 -3.61,-21.843 -10.7,-43.804 -21.24,-65.879 -15.37,-32.168 -30.24,-52.918 -44.64,-62.285 -14.41,-9.351 -35.05,-11.636 -61.93,-6.836 -20.64,3.84 -34.31,8.157 -41.03,12.961 -8.17,4.793 -19.08,21.836 -32.77,51.121 -13.68,29.27 -21.72,52.563 -24.12,69.836 -5.28,34.563 -1.43,83.035 11.53,145.45 4.79,24.953 6.23,38.386 4.32,40.312 -2.42,2.402 -13.93,3.606 -34.57,3.606 -12.48,0 -20.88,0.359 -25.19,1.082 -4.32,0.71 -6.49,2.519 -6.49,5.39 0,4.793 18.72,9.832 56.17,15.125 35.51,4.797 58.68,7.434 69.48,7.922 10.8,0.469 18.1,-1.199 21.95,-5.039 6.72,-6.73 4.08,-11.77 -7.91,-15.125 l -19.44,-2.883 c -19.21,0 -30.73,-5.515 -34.56,-16.555 -3.85,-11.05 -7.44,-49.441 -10.8,-115.203 -1.93,-31.679 -1.33,-55.554 1.79,-71.64 3.13,-16.082 10.69,-36.36 22.68,-60.84 8.16,-15.84 16.68,-26.641 25.57,-32.395 8.87,-5.757 21.48,-8.64 37.8,-8.64 17.27,0 28.8,0.722 34.56,2.16 4.78,1.914 11.99,10.672 21.6,26.277 9.59,15.598 17.38,31.074 23.4,46.446 5.99,15.351 10.8,43.078 14.39,83.156 3.61,40.078 4.2,73.316 1.8,99.715 l -2.87,33.847 h -18.01 c -16.32,0 -24,3.117 -23.04,9.356 0,1.914 0.96,3.601 2.88,5.039 3.84,3.84 22.68,7.676 56.53,11.523 33.84,3.836 53.15,4.551 57.96,2.157 16.79,-9.122 12.96,-16.083 -11.53,-20.875 z M 1087.13,406.531 c -2.87,-40.801 -8.05,-72.605 -15.47,-95.398 -7.46,-22.805 -19.8,-44.766 -37.09,-65.879 -10.57,-12.957 -20.28,-22.316 -29.16,-28.074 -8.887,-5.762 -20.41,-10.332 -34.551,-13.684 -14.171,-3.367 -36.367,-6.484 -66.601,-9.363 -54.258,-5.754 -95.528,21.355 -123.848,81.363 -10.566,22.07 -15.84,42.484 -15.84,61.203 0,17.278 2.403,36.36 7.207,57.239 4.786,20.875 11.27,38.992 19.434,54.351 8.164,16.801 22.324,35.156 42.48,55.09 20.157,19.914 39.356,34.668 57.598,44.277 11.035,5.274 18.84,8.75 23.399,10.442 4.558,1.675 11.523,2.988 20.878,3.953 9.368,0.957 20.762,0.957 34.207,0 32.147,-0.965 51.127,-3.125 56.887,-6.477 10.08,-5.293 20.26,-15.476 30.59,-30.601 10.32,-15.118 18.12,-30.364 23.4,-45.715 3.84,-12.488 6.13,-23.399 6.85,-32.766 0.71,-9.351 0.59,-22.676 -0.37,-39.961 z m -336.942,72.004 c -1.926,-8.164 -9.133,-17.765 -21.602,-28.801 -12.492,-11.043 -28.078,-21.367 -46.809,-30.957 -18.711,-10.562 -28.066,-16.328 -28.066,-17.285 0,-0.965 10.078,-6.961 30.234,-17.996 13.914,-8.164 25.196,-16.687 33.836,-25.558 8.645,-8.895 14.992,-18.973 19.082,-30.243 4.075,-11.277 6.125,-23.886 6.125,-37.8 0,-25.918 -15.84,-49.211 -47.519,-69.836 -19.688,-12.493 -37.442,-20.286 -53.281,-23.411 -15.84,-3.125 -43.458,-4.199 -82.801,-3.23 l -68.41,0.715 -1.426,18.008 c -0.488,11.035 0.715,16.797 3.594,17.273 2.402,0.469 4.55,-2.644 6.484,-9.355 0.957,-4.329 2.988,-6.961 6.113,-7.918 3.125,-0.969 9.473,-0.969 19.082,0 l 23.035,1.433 2.883,20.879 c 1.914,12.481 3.125,67.793 3.606,165.957 0.465,98.164 -0.246,148.203 -2.16,150.125 -2.415,1.438 -7.93,1.438 -16.563,0 -9.121,-1.441 -13.684,-5.035 -13.684,-10.801 0,-5.757 -2.41,-8.64 -7.195,-8.64 -4.805,0 -7.207,6.953 -7.207,20.879 0,13.437 1.68,20.402 5.039,20.879 1.445,0.476 3.848,-0.965 7.207,-4.317 2.883,-2.883 14.395,-1.433 34.563,4.317 19.675,5.761 41.511,8.757 65.515,9.003 24.004,0.235 44.395,-2.05 61.2,-6.835 23.039,-7.684 41.281,-20.887 54.718,-39.61 13.438,-18.711 18.242,-37.683 14.407,-56.875 z M 474.434,191.973 c -3.848,-3.36 -23.399,-4.563 -58.68,-3.594 -35.285,0.957 -53.645,3.113 -55.09,6.476 -0.957,3.348 5.996,6.715 20.879,10.079 12.969,2.402 19.922,5.879 20.891,10.437 0.957,4.563 -2.161,19.563 -9.368,45 -7.199,23.047 -12.238,40.559 -15.117,52.567 -3.359,13.429 -7.922,21.593 -13.679,24.472 -5.286,3.36 -25.442,6.848 -60.481,10.442 -35.039,3.601 -54.25,4.199 -57.598,1.804 -2.878,-1.441 -7.453,-8.172 -13.679,-20.164 -3.367,-6.726 -8.528,-18.722 -15.481,-35.996 -6.965,-17.285 -13.207,-33.84 -18.718,-49.68 -5.524,-15.836 -8.286,-24.968 -8.286,-27.363 0,-3.355 6.953,-6.238 20.879,-8.64 16.797,-2.403 25.207,-6.004 25.207,-10.801 0,-1.922 -1.211,-4.082 -3.601,-6.477 -3.367,-3.367 -19.922,-3.367 -49.68,0 -29.769,3.352 -47.051,7.199 -51.84,11.516 -5.289,8.164 0.957,12.715 18.719,13.679 13.434,0 22.07,2.161 25.918,6.489 2.398,2.879 8.516,16.914 18.359,42.117 9.836,25.195 20.524,54.004 32.043,86.394 11.52,32.407 20.629,59.641 27.36,81.719 7.195,23.047 17.39,51.953 30.593,86.77 13.204,34.797 21.485,54.109 24.844,57.961 3.36,3.836 6.231,5.758 8.645,5.758 2.879,0 6.59,-3.961 11.16,-11.883 4.551,-7.918 7.793,-15.723 9.719,-23.399 2.878,-12.004 5.996,-22.801 9.363,-32.402 3.828,-9.121 10.078,-32.649 18.711,-70.559 8.64,-39.363 19.082,-82.8 31.328,-130.32 12.234,-47.52 20.516,-76.082 24.836,-85.684 2.879,-7.675 5.633,-12.597 8.277,-14.753 2.629,-2.161 7.563,-3.247 14.758,-3.247 14.883,0 24.727,-3.589 29.531,-10.796 1.438,-2.883 1.192,-5.52 -0.722,-7.922 z M 0,755 V 0 H 1960 V 755 H 0"
         style="fill:#100f0d;fill-opacity:1;fill-rule:nonzero;stroke:none"
         id="path20" /><path
         d="m 988.496,538.293 c -19.687,9.117 -35.41,13.914 -47.168,14.402 -11.758,0.469 -24.598,-3.359 -38.515,-11.523 -9.61,-5.762 -19.571,-13.438 -29.883,-23.035 -10.325,-9.614 -19.922,-20.157 -28.797,-31.684 -8.891,-11.519 -15.969,-22.801 -21.242,-33.836 -6.243,-12.488 -12,-30.969 -17.278,-55.437 -5.281,-24.485 -7.918,-44.895 -7.918,-61.203 0,-11.043 3.828,-25.45 11.524,-43.204 7.668,-17.761 16.074,-31.445 25.195,-41.035 13.438,-13.933 31.191,-24.25 53.281,-30.968 22.071,-6.727 44.641,-8.629 67.676,-5.75 13.438,1.433 23.762,3.71 30.957,6.835 7.207,3.118 13.692,7.918 19.442,14.407 5.76,6.472 11.99,16.433 18.72,29.871 9.59,17.754 16.44,35.644 20.53,53.64 4.06,18 7.3,44.036 9.71,78.118 1.91,31.679 0,55.449 -5.76,71.289 -10.08,31.191 -30.24,54.226 -60.474,69.113"
         style="fill:#100f0d;fill-opacity:1;fill-rule:nonzero;stroke:none"
         id="path22" /><path
         d="m 359.949,365.496 c -2.41,-2.41 -21.121,-2.516 -56.16,-0.359 -35.039,2.16 -52.559,4.676 -52.559,7.558 0,5.274 4.434,21.961 13.321,50.039 8.879,28.079 17.637,53.157 26.277,75.246 12.473,32.149 18.957,49.188 19.445,51.114 0.957,3.355 2.161,5.039 3.594,5.039 3.36,0.476 8.164,-9.848 14.403,-30.957 5.753,-21.125 11.273,-43.813 16.554,-68.039 5.281,-24.246 9.473,-44.895 12.61,-61.922 3.113,-17.043 3.953,-26.281 2.515,-27.719 z m 85.676,-154.805 c -7.195,0 -12.129,1.086 -14.758,3.247 -2.644,2.156 -5.398,7.078 -8.277,14.753 -4.32,9.602 -12.602,38.164 -24.836,85.684 -12.246,47.52 -22.688,90.957 -31.328,130.32 -8.633,37.91 -14.883,61.438 -18.711,70.559 -3.367,9.601 -6.485,20.398 -9.363,32.402 -1.926,7.676 -5.168,15.481 -9.719,23.399 -4.57,7.922 -8.281,11.883 -11.16,11.883 -2.414,0 -5.285,-1.922 -8.645,-5.758 -3.359,-3.852 -11.64,-23.164 -24.844,-57.961 -13.203,-34.817 -23.398,-63.723 -30.593,-86.77 -6.731,-22.078 -15.84,-49.312 -27.36,-81.719 -11.519,-32.39 -22.207,-61.199 -32.043,-86.394 -9.843,-25.203 -15.961,-39.238 -18.359,-42.117 -3.848,-4.328 -12.484,-6.489 -25.918,-6.489 -17.762,-0.964 -24.008,-5.515 -18.719,-13.679 4.789,-4.317 22.071,-8.164 51.84,-11.516 29.758,-3.367 46.313,-3.367 49.68,0 2.39,2.395 3.601,4.555 3.601,6.477 0,4.797 -8.41,8.398 -25.207,10.801 -13.926,2.402 -20.879,5.285 -20.879,8.64 0,2.395 2.762,11.527 8.286,27.363 5.511,15.84 11.753,32.395 18.718,49.68 6.953,17.274 12.114,29.27 15.481,35.996 6.226,11.992 10.801,18.723 13.679,20.164 3.348,2.395 22.559,1.797 57.598,-1.804 35.039,-3.594 55.195,-7.082 60.481,-10.442 5.757,-2.879 10.32,-11.043 13.679,-24.472 2.879,-12.008 7.918,-29.52 15.117,-52.567 7.207,-25.437 10.325,-40.437 9.368,-45 -0.969,-4.558 -7.922,-8.035 -20.891,-10.437 -14.883,-3.364 -21.836,-6.731 -20.879,-10.079 1.445,-3.363 19.805,-5.519 55.09,-6.476 35.281,-0.969 54.832,0.234 58.68,3.594 1.914,2.402 2.16,5.039 0.722,7.922 -4.804,7.207 -14.648,10.796 -29.531,10.796"
         style="fill:#f5f6f5;fill-opacity:1;fill-rule:nonzero;stroke:none"
         id="path24" /><path
         d="m 658.027,428.137 c -17.285,-8.645 -36.25,-16.449 -56.882,-23.403 -20.649,-6.961 -31.68,-9.48 -33.118,-7.554 -0.976,0.465 -1.445,27.105 -1.445,79.922 0,1.433 0.117,3.113 0.359,5.039 0.239,1.902 0.364,3.347 0.364,4.312 0,0.957 0,2.395 0,4.317 0,11.527 0,19.804 0,24.843 0,5.039 0.363,11.035 1.074,18 0.723,6.953 1.191,11.399 1.445,13.321 0.235,1.914 1.446,4.558 3.594,7.921 2.168,3.348 3.965,5.274 5.41,5.758 1.438,0.473 4.317,1.086 8.633,1.797 4.316,0.727 8.035,1.086 11.16,1.086 3.117,0 8.281,-0.242 15.481,-0.723 3.836,0 6.718,0 8.64,0 24.953,-0.964 45.363,-5.285 61.203,-12.96 13.438,-6.727 24.231,-15.477 32.403,-26.278 8.156,-10.801 12.238,-21.726 12.238,-32.765 0,-19.2 -23.527,-40.079 -70.559,-62.633 z m 17.278,-62.641 c 21.121,-12 35.633,-27.723 43.562,-47.156 7.91,-19.445 7.559,-37.805 -1.086,-55.086 -2.879,-4.809 -7.683,-10.207 -14.402,-16.203 -6.719,-6.004 -14.649,-11.641 -23.75,-16.914 -9.133,-5.293 -18.25,-9.367 -27.363,-12.246 -9.61,-3.848 -26.524,-6.114 -50.762,-6.836 -24.238,-0.723 -37.078,0.593 -38.516,3.965 -1.445,1.906 -1.211,28.796 0.723,80.632 l 2.871,77.766 16.563,5.762 c 28.796,10.078 59.511,5.508 92.16,-13.684 z m 5.758,209.524 c -16.805,4.785 -37.196,7.07 -61.2,6.835 -24.004,-0.246 -45.84,-3.242 -65.515,-9.003 -20.168,-5.75 -31.68,-7.2 -34.563,-4.317 -3.359,3.352 -5.762,4.793 -7.207,4.317 -3.359,-0.477 -5.039,-7.442 -5.039,-20.879 0,-13.926 2.402,-20.879 7.207,-20.879 4.785,0 7.195,2.883 7.195,8.64 0,5.766 4.563,9.36 13.684,10.801 8.633,1.438 14.148,1.438 16.563,0 1.914,-1.922 2.625,-51.961 2.16,-150.125 -0.481,-98.164 -1.692,-153.476 -3.606,-165.957 l -2.883,-20.879 -23.035,-1.433 c -9.609,-0.969 -15.957,-0.969 -19.082,0 -3.125,0.957 -5.156,3.589 -6.113,7.918 -1.934,6.711 -4.082,9.824 -6.484,9.355 -2.879,-0.476 -4.082,-6.238 -3.594,-17.273 l 1.426,-18.008 68.41,-0.715 c 39.343,-0.969 66.961,0.105 82.801,3.23 15.839,3.125 33.593,10.918 53.281,23.411 31.679,20.625 47.519,43.918 47.519,69.836 0,13.914 -2.05,26.523 -6.125,37.8 -4.09,11.27 -10.437,21.348 -19.082,30.243 -8.64,8.871 -19.922,17.394 -33.836,25.558 -20.156,11.035 -30.234,17.031 -30.234,17.996 0,0.957 9.355,6.723 28.066,17.285 18.731,9.59 34.317,19.914 46.809,30.957 12.469,11.036 19.676,20.637 21.602,28.801 3.835,19.192 -0.969,38.164 -14.407,56.875 -13.437,18.723 -31.679,31.926 -54.718,39.61"
         style="fill:#f5f6f5;fill-opacity:1;fill-rule:nonzero;stroke:none"
         id="path26" /><path
         d="m 1054.73,397.891 c -2.41,-34.082 -5.65,-60.118 -9.71,-78.118 -4.09,-17.996 -10.94,-35.886 -20.53,-53.64 -6.73,-13.438 -12.96,-23.399 -18.72,-29.871 -5.75,-6.489 -12.235,-11.289 -19.442,-14.407 -7.195,-3.125 -17.519,-5.402 -30.957,-6.835 -23.035,-2.879 -45.605,-0.977 -67.676,5.75 -22.09,6.718 -39.843,17.035 -53.281,30.968 -9.121,9.59 -17.527,23.274 -25.195,41.035 -7.696,17.754 -11.524,32.161 -11.524,43.204 0,16.308 2.637,36.718 7.918,61.203 5.278,24.468 11.035,42.949 17.278,55.437 5.273,11.035 12.351,22.317 21.242,33.836 8.875,11.527 18.472,22.07 28.797,31.684 10.312,9.597 20.273,17.273 29.883,23.035 13.917,8.164 26.757,11.992 38.515,11.523 11.758,-0.488 27.481,-5.285 47.168,-14.402 30.234,-14.887 50.394,-37.922 60.474,-69.113 5.76,-15.84 7.67,-39.61 5.76,-71.289 z m 25.92,81.367 c -5.28,15.351 -13.08,30.597 -23.4,45.715 -10.33,15.125 -20.51,25.308 -30.59,30.601 -5.76,3.352 -24.74,5.512 -56.887,6.477 -13.445,0.957 -24.839,0.957 -34.207,0 -9.355,-0.965 -16.32,-2.278 -20.878,-3.953 -4.559,-1.692 -12.364,-5.168 -23.399,-10.442 -18.242,-9.609 -37.441,-24.363 -57.598,-44.277 -20.156,-19.934 -34.316,-38.289 -42.48,-55.09 -8.164,-15.359 -14.648,-33.476 -19.434,-54.351 -4.804,-20.879 -7.207,-39.961 -7.207,-57.239 0,-18.719 5.274,-39.133 15.84,-61.203 28.32,-60.008 69.59,-87.117 123.848,-81.363 30.234,2.879 52.43,5.996 66.601,9.363 14.141,3.352 25.664,7.922 34.551,13.684 8.88,5.758 18.59,15.117 29.16,28.074 17.29,21.113 29.63,43.074 37.09,65.879 7.42,22.793 12.6,54.597 15.47,95.398 0.96,17.285 1.08,30.61 0.37,39.961 -0.72,9.367 -3.01,20.278 -6.85,32.766"
         style="fill:#f5f6f5;fill-opacity:1;fill-rule:nonzero;stroke:none"
         id="path28" /><path
         d="m 1433.45,549.813 c -4.81,2.394 -24.12,1.679 -57.96,-2.157 -33.85,-3.847 -52.69,-7.683 -56.53,-11.523 -1.92,-1.438 -2.88,-3.125 -2.88,-5.039 -0.96,-6.239 6.72,-9.356 23.04,-9.356 h 18.01 l 2.87,-33.847 c 2.4,-26.399 1.81,-59.637 -1.8,-99.715 -3.59,-40.078 -8.4,-67.805 -14.39,-83.156 -6.02,-15.372 -13.81,-30.848 -23.4,-46.446 -9.61,-15.605 -16.82,-24.363 -21.6,-26.277 -5.76,-1.438 -17.29,-2.16 -34.56,-2.16 -16.32,0 -28.93,2.883 -37.8,8.64 -8.89,5.754 -17.41,16.555 -25.57,32.395 -11.99,24.48 -19.55,44.758 -22.68,60.84 -3.12,16.086 -3.72,39.961 -1.79,71.64 3.36,65.762 6.95,104.153 10.8,115.203 3.83,11.04 15.35,16.555 34.56,16.555 l 19.44,2.883 c 11.99,3.355 14.63,8.395 7.91,15.125 -3.85,3.84 -11.15,5.508 -21.95,5.039 -10.8,-0.488 -33.97,-3.125 -69.48,-7.922 -37.45,-5.293 -56.17,-10.332 -56.17,-15.125 0,-2.871 2.17,-4.68 6.49,-5.39 4.31,-0.723 12.71,-1.082 25.19,-1.082 20.64,0 32.15,-1.204 34.57,-3.606 1.91,-1.926 0.47,-15.359 -4.32,-40.312 -12.96,-62.415 -16.81,-110.887 -11.53,-145.45 2.4,-17.273 10.44,-40.566 24.12,-69.836 13.69,-29.285 24.6,-46.328 32.77,-51.121 6.72,-4.804 20.39,-9.121 41.03,-12.961 26.88,-4.8 47.52,-2.515 61.93,6.836 14.4,9.367 29.27,30.117 44.64,62.285 10.54,22.075 17.63,44.036 21.24,65.879 3.6,21.836 5.63,56.274 6.12,103.325 v 79.918 l 24.47,2.882 c 4.8,0.469 9.37,1.192 13.68,2.161 24.49,4.792 28.32,11.753 11.53,20.875"
         style="fill:#f5f6f5;fill-opacity:1;fill-rule:nonzero;stroke:none"
         id="path30" /><path
         d="m 1758.88,603.816 c -5.76,-5.757 -30.85,-11.765 -75.25,-18.003 -44.39,-6.243 -85.8,-9.36 -124.2,-9.36 l -70.55,-0.723 -2.16,14.407 c -1.45,7.199 -3.6,11.511 -6.49,12.961 -3.35,0.957 -6.48,-5.039 -9.35,-18 -3.85,-16.328 -7.21,-31.934 -10.08,-46.805 -3.85,-18.723 -4.8,-29.516 -2.89,-32.395 2.89,-2.414 5.64,-2.773 8.28,-1.085 2.64,1.679 5.41,4.914 8.28,9.718 2.88,4.793 4.8,10.559 5.76,17.285 l 3.6,19.446 68.41,-0.727 c 45.59,-0.965 69.35,-2.156 71.28,-3.601 3.83,-2.403 0.46,-38.411 -10.08,-107.996 -5.76,-35.051 -11.06,-76.809 -15.84,-125.286 -2.88,-24.472 -4.93,-42.004 -6.13,-52.558 -1.2,-10.567 -3.23,-19.446 -6.12,-26.641 -2.87,-7.195 -5.76,-11.406 -8.63,-12.598 -2.89,-1.203 -7.69,-1.796 -14.41,-1.796 -10.55,0 -18.35,-2.051 -23.39,-6.121 -5.04,-4.083 -5.4,-8.762 -1.09,-14.043 3.36,-4.321 17.76,-7.559 43.21,-9.719 25.42,-2.156 44.16,-1.797 56.16,1.086 6.23,1.433 10.55,3.113 12.96,5.039 2.4,1.902 3.59,5.269 3.59,10.078 0,5.269 -1.07,8.641 -3.24,10.074 -2.15,1.438 -7.56,2.395 -16.19,2.883 -12.49,1.434 -19.93,3.113 -22.33,5.039 -4.31,4.316 1.19,59.512 16.56,165.598 6.72,44.644 11.04,82.8 12.96,114.48 l 2.88,47.52 48.25,7.922 c 33.12,5.757 51.83,7.918 56.15,6.484 3.85,-1.445 5.76,-6.606 5.76,-15.481 0,-8.886 -0.12,-17.531 -0.35,-25.925 -0.25,-8.403 1.07,-12.598 3.95,-12.598 5.29,0 9.72,15.23 13.32,45.723 3.61,30.476 3,47.156 -1.8,50.039 -2.87,1.433 -6.48,0 -10.79,-4.321"
         style="fill:#f5f6f5;fill-opacity:1;fill-rule:nonzero;stroke:none"
         id="path32" /></g></g></svg>
