<?xml version="1.0" encoding="UTF-8" standalone="no"?>
<svg
   xmlns:dc="http://purl.org/dc/elements/1.1/"
   xmlns:cc="http://creativecommons.org/ns#"
   xmlns:rdf="http://www.w3.org/1999/02/22-rdf-syntax-ns#"
   xmlns:svg="http://www.w3.org/2000/svg"
   xmlns="http://www.w3.org/2000/svg"
   xmlns:sodipodi="http://sodipodi.sourceforge.net/DTD/sodipodi-0.dtd"
   xmlns:inkscape="http://www.inkscape.org/namespaces/inkscape"
   version="1.1"
   id="svg2"
   xml:space="preserve"
   width="330.66666"
   height="100.66667"
   viewBox="0 0 330.66666 100.66667"
   sodipodi:docname="archive1.eps"><metadata
     id="metadata8"><rdf:RDF><cc:Work
         rdf:about=""><dc:format>image/svg+xml</dc:format><dc:type
           rdf:resource="http://purl.org/dc/dcmitype/StillImage" /></cc:Work></rdf:RDF></metadata><defs
     id="defs6" /><sodipodi:namedview
     pagecolor="#ffffff"
     bordercolor="#666666"
     borderopacity="1"
     objecttolerance="10"
     gridtolerance="10"
     guidetolerance="10"
     inkscape:pageopacity="0"
     inkscape:pageshadow="2"
     inkscape:window-width="640"
     inkscape:window-height="480"
     id="namedview4" /><g
     id="g10"
     inkscape:groupmode="layer"
     inkscape:label="ink_ext_XXXXXX"
     transform="matrix(1.3333333,0,0,-1.3333333,0,100.66667)"><g
       id="g12"
       transform="scale(0.1)"><path
         d="m 2371.59,523.895 c 0,-12.957 -0.49,-21.727 -1.43,-26.278 -0.98,-4.57 -2.66,-6.847 -5.05,-6.847 -5.29,0 -8.65,7.21 -10.08,21.605 l -2.16,20.879 -72.71,-0.715 c -47.52,-0.488 -86.66,-3.137 -117.37,-7.922 -24.48,-4.324 -52.56,-6.844 -84.24,-7.566 -31.67,-0.711 -48.49,0.594 -50.41,3.965 -2.4,3.839 0.73,6.953 9.37,9.355 8.64,1.914 26.64,3.84 53.99,5.762 35.04,2.402 60.96,5.285 77.77,8.64 10.09,2.883 40.68,5.872 91.8,9.004 51.12,3.118 83.4,4.192 96.84,3.235 h 13.68 z m -30.24,-315.36 c -3.36,-3.847 -24.01,-6.726 -61.92,-8.64 -105.11,-5.762 -169.45,-10.801 -192.97,-15.122 -11.99,-1.921 -17.98,-1.199 -17.98,2.161 0.47,3.347 5.99,8.156 16.55,14.406 l 16.56,9.351 v 148.325 c 0,98.875 1.19,148.32 3.61,148.32 4.78,0 9.1,-30.957 12.94,-92.883 2.41,-35.527 5.52,-54.25 9.37,-56.16 4.79,-1.438 18.23,1.441 40.32,8.641 16.8,5.273 26.88,9.238 30.24,11.882 3.36,2.629 5.51,7.793 6.48,15.481 1.45,11.035 4.55,16.562 9.36,16.562 3.36,0 6.72,-4.57 10.07,-13.679 3.36,-9.133 5.04,-18.723 5.04,-28.801 0,-3.848 1.68,-16.094 5.04,-36.731 2.89,-18.242 2.64,-29.277 -0.71,-33.113 -6.24,-5.762 -12,-1.199 -17.28,13.684 -1.93,5.761 -3.6,12.234 -5.03,19.429 l -2.9,21.606 -19.43,-3.598 c -11.05,-2.41 -25.19,-4.566 -42.48,-6.48 l -23.76,-2.883 V 213.574 l 33.12,1.446 c 15.84,0.468 48.71,2.625 98.64,6.472 l 65.52,5.766 v 30.957 c 0,11.988 0.46,20.039 1.44,24.121 0.96,4.07 2.87,6.121 5.76,6.121 4.79,0 9.24,-12.246 13.32,-36.719 4.07,-24.48 4.44,-38.886 1.08,-43.203 z m -330.48,381.602 c -4.32,-4.805 -21.12,-9.61 -50.4,-14.407 -6.24,-1.433 -15,-11.16 -26.28,-29.16 -11.28,-17.996 -20.52,-36.597 -27.73,-55.8 -7.67,-19.684 -14.88,-35.274 -21.59,-46.793 -6.73,-11.528 -15.6,-31.926 -26.64,-61.204 -9.61,-26.406 -23.76,-56.164 -42.48,-89.277 -18.72,-32.168 -29.29,-54.48 -31.68,-66.965 -5.28,-20.152 -11.77,-29.519 -19.44,-28.074 -7.68,1.438 -15.61,13.684 -23.76,36.719 -21.12,59.512 -31.68,94.797 -31.68,105.84 0,6.23 -3.37,26.152 -10.08,59.754 -6.73,31.203 -12.72,65.043 -18,101.527 0,1.914 -0.25,4.558 -0.72,7.918 -3.85,24.48 -7.44,39.121 -10.8,43.918 -3.36,4.793 -13.93,8.64 -31.68,11.519 -2.4,0 -4.08,0.239 -5.04,0.727 -12,1.434 -18,4.312 -18,8.641 0,4.316 12.96,7.199 38.88,8.632 25.92,1.914 46.32,6.231 61.2,12.957 21.6,9.602 34.56,11.282 38.88,5.039 3.36,-5.281 -3.36,-12.476 -20.16,-21.589 -1.44,-0.965 -3.12,-1.692 -5.04,-2.168 -16.33,-8.164 -26.04,-14.036 -29.16,-17.637 -3.12,-3.606 -3.01,-9.484 0.35,-17.637 6.24,-16.328 20.41,-76.57 42.48,-180.722 4.33,-22.571 9.61,-44.637 15.84,-66.243 4.33,-14.39 7.45,-25.679 9.37,-33.836 1.91,-8.64 4.33,-12.961 7.2,-12.961 1.91,0 7.93,8.633 18,25.918 10.08,17.278 20.52,36.36 31.32,57.239 10.79,20.879 17.88,36.113 21.24,45.722 4.79,13.914 13.32,33.954 25.56,60.118 12.24,26.164 20.52,44.753 24.83,55.8 7.21,19.676 14.16,35.039 20.89,46.082 6.23,10.547 8.88,17.036 7.92,19.446 -0.97,2.39 -6.25,2.871 -15.84,1.433 -10.56,-1.433 -16.81,0.239 -18.72,5.039 -2.41,5.278 -1.43,10.078 2.88,14.407 2.4,2.39 8.87,5.632 19.44,9.714 10.55,4.075 21.96,7.793 34.2,11.165 12.24,3.347 21.71,5.507 28.44,6.472 5.28,0.957 11.75,1.914 19.45,2.883 3.82,0 8.39,-1.926 13.67,-5.762 3.84,-2.883 5.88,-5.156 6.12,-6.836 0.24,-1.687 -0.85,-4.211 -3.24,-7.558 z m -416.14,-375.84 c -4.32,-1.445 -15.37,-3.125 -33.13,-5.039 -25.92,-1.922 -47.28,-5.293 -64.08,-10.078 -11.52,-2.879 -19.92,-3.848 -25.2,-2.879 -5.29,0.957 -6.36,3.711 -3.24,8.269 3.12,4.563 9.96,9.727 20.53,15.489 l 17.27,8.632 2.16,72 c 2.88,79.68 3.12,134.282 0.73,163.801 -2.42,29.524 -7.93,45 -16.57,46.446 -6.25,1.437 -11.29,3.835 -15.11,7.199 -3.85,3.347 -5.04,6.226 -3.61,8.64 1.92,2.879 11.52,4.075 28.8,3.594 17.29,-0.476 35.75,-2.402 55.44,-5.754 22.08,-3.847 33.59,-8.406 34.56,-13.679 1.45,-6.25 -1.33,-10.079 -8.28,-11.524 -6.96,-1.434 -18.36,-0.723 -34.2,2.156 -19.2,3.364 -29.28,4.797 -30.23,4.328 -0.98,-0.488 0.47,-7.918 4.31,-22.324 2.88,-15.84 4.8,-60.476 5.76,-133.918 V 236.609 l 35.28,-2.156 c 11.03,-0.476 18.84,-1.074 23.4,-1.797 4.56,-0.722 7.67,-1.797 9.36,-3.242 1.68,-1.434 2.52,-3.601 2.52,-6.476 0,-4.325 -2.16,-7.208 -6.47,-8.641 z m -169.2,-18.723 c -18.71,-1.441 -32.65,-4.082 -41.76,-7.918 -8.63,-3.371 -14.39,-4.929 -17.29,-4.676 -2.87,0.235 -4.31,2.262 -4.31,6.114 0,3.836 3.36,7.437 10.08,10.801 5.28,2.402 8.39,7.554 9.36,15.476 0.96,7.922 0.96,33.953 0,78.125 -0.97,59.043 -2.88,90.234 -5.76,93.606 -2.88,2.871 -23.04,0.711 -60.48,-6.489 -35.04,-6.726 -64.57,-10.332 -88.55,-10.8 l -31.68,-1.434 -1.45,-74.883 c -0.97,-50.891 -0.72,-77.766 0.72,-80.644 1.44,-3.848 13.43,-3.36 36,1.445 14.87,2.883 24.72,4.199 29.52,3.957 4.8,-0.246 8.88,-1.801 12.24,-4.68 9.12,-9.609 1.68,-16.804 -22.33,-21.601 -17.75,-4.317 -42.47,-6.477 -74.16,-6.477 -13.43,0 -22.31,0.473 -26.63,1.438 -4.32,0.957 -6.73,3.117 -7.19,6.484 -0.98,2.883 -0.73,4.91 0.71,6.113 1.43,1.192 4.32,1.809 8.64,1.809 10.55,0 16.92,5.039 19.08,15.113 2.16,10.078 3.25,39.602 3.25,88.567 0,59.511 2.39,114.953 7.19,166.32 5.28,48.953 6.96,75.348 5.04,79.195 -2.41,2.395 -7.92,3.598 -16.56,3.598 -16.32,0 -27.84,3.355 -34.56,10.086 -1.44,1.433 -1.68,2.883 -0.72,4.316 1.44,2.883 10.55,4.563 27.36,5.039 14.87,0 33.12,3.114 54.73,9.364 39.34,10.546 59.03,10.546 59.03,0 0,-4.801 -11.77,-10.563 -35.28,-17.286 l -35.28,-10.078 -2.88,-20.164 c -1.92,-12.004 -3.6,-39.355 -5.04,-82.07 l -1.43,-61.199 25.91,-1.45 c 9.59,-0.476 23.15,0.598 40.68,3.247 17.52,2.632 36,6.121 55.44,10.437 19.44,4.316 32.04,6.719 37.8,7.195 l 23.04,4.328 v 20.157 c -0.48,56.633 -1.33,90 -2.52,100.078 -1.2,10.078 -5.16,16.316 -11.88,18.722 -5.76,1.915 -8.88,3.602 -9.35,5.04 -0.49,1.445 0.71,3.359 3.59,5.757 5.76,5.766 19.08,11.633 39.96,17.641 20.88,5.992 32.99,7.566 36.36,4.687 5.76,-5.761 0.24,-12.011 -16.55,-18.722 l -6.49,-2.156 c -12.49,-4.329 -19.44,-10.332 -20.88,-18.008 -0.97,-6.242 0.47,-41.289 4.32,-105.117 0.47,-14.883 1.91,-42.012 4.32,-81.36 2.4,-39.363 3.83,-65.515 4.32,-78.484 l 3.61,-66.242 23.02,-2.161 c 15.84,-1.921 23.77,-5.039 23.77,-9.351 0,-4.809 -9.35,-8.41 -28.08,-10.805 z M 1115.21,183.34 c -4.31,-3.367 -7.55,-3.965 -9.72,-1.809 -2.15,2.16 -3.23,6.848 -3.23,14.043 0,6.235 -1.44,9.36 -4.33,9.36 -3.85,-0.481 -14.39,-3.848 -31.68,-10.079 -7.68,-2.882 -16.8,-4.445 -27.35,-4.679 -10.57,-0.242 -28.8,0.359 -54.72,1.797 -42.735,2.402 -69.375,5.996 -79.922,10.8 -11.055,4.329 -22.442,13.438 -34.199,27.364 -11.778,13.918 -22.442,30.476 -32.039,49.676 -7.688,15.839 -12.239,27.726 -13.684,35.648 -1.445,7.918 -2.156,25.555 -2.156,52.918 0,26.875 0.711,44.512 2.156,52.922 1.445,8.387 5.508,19.793 12.246,34.195 9.102,19.192 25.066,40.07 47.871,62.641 22.793,22.554 42.129,36.718 57.969,42.476 15.351,4.797 25.664,7.2 30.957,7.2 11.992,0.48 25.559,-1.688 40.681,-6.473 15.12,-4.809 26.27,-10.332 33.48,-16.567 8.63,-7.195 14.39,-10.562 17.27,-10.078 2.89,0.473 4.33,5.039 4.33,13.684 0,7.195 1.54,10.801 4.67,10.801 3.12,0 4.69,-10.926 4.69,-32.762 0,-21.848 -1.57,-32.766 -4.69,-32.766 -3.13,0 -4.67,3.606 -4.67,10.801 0,5.274 -4.8,12.356 -14.4,21.238 -9.61,8.879 -19.69,15.239 -30.25,19.082 -7.67,3.352 -21.6,5.04 -41.756,5.04 -9.121,0 -17.285,-0.836 -24.472,-2.516 -7.207,-1.692 -14.649,-4.57 -22.324,-8.645 -7.684,-4.082 -15.372,-9.48 -23.047,-16.203 -7.676,-6.726 -16.321,-15.359 -25.918,-25.918 -39.844,-42.246 -55.918,-94.082 -48.243,-155.515 3.36,-27.364 13.797,-53.645 31.329,-78.836 17.519,-25.207 36.113,-40.45 55.8,-45.727 12.469,-3.848 38.399,-5.762 77.751,-5.762 27.37,0 45,0.598 52.92,1.797 7.92,1.203 15.48,4.2 22.69,9.004 6.72,4.797 11.15,9.113 13.32,12.961 2.16,3.84 3.48,10.801 3.95,20.879 1.44,21.602 4.08,31.68 7.92,30.242 6.23,-1.922 10.8,-21.363 13.69,-58.316 1.91,-25.449 0.95,-40.09 -2.89,-43.918 z m -332.632,5.039 c -9.121,-1.926 -21.601,-3.848 -37.441,-5.762 -35.996,-3.847 -56.407,-4.804 -61.192,-2.883 -4.316,1.914 -6.484,5.508 -6.484,10.801 0,5.278 2.168,9.594 6.484,12.961 2.879,2.395 4.2,6.121 3.965,11.16 -0.254,5.039 -2.519,16.438 -6.847,34.199 -6.727,28.313 -12,54.954 -15.836,79.922 -0.969,7.668 -1.926,14.036 -2.883,19.075 -0.965,5.039 -1.922,9.003 -2.879,11.882 -0.969,2.883 -1.926,4.797 -2.883,5.762 -0.969,0.957 -2.156,1.438 -3.594,1.438 -2.414,-0.965 -17.773,-2.403 -46.086,-4.317 -12.488,-0.969 -21.121,-1.687 -25.925,-2.156 -4.793,-0.488 -8.274,-1.445 -10.43,-2.883 -2.168,-1.445 -3.496,-3.848 -3.965,-7.207 -12.004,-67.676 -18.477,-107.043 -19.434,-118.074 0,-2.883 10.801,-5.285 32.403,-7.199 23.027,-1.446 34.551,-4.805 34.551,-10.078 0,-2.879 -3.36,-6.485 -10.079,-10.801 -4.804,-3.848 -10.566,-5.891 -17.285,-6.121 -6.718,-0.246 -19.922,0.828 -39.59,3.242 -22.089,2.39 -37.57,5.144 -46.445,8.277 -8.887,3.117 -12.363,7.309 -10.437,12.602 0.957,3.347 6.714,5.996 17.273,7.918 7.676,0.957 12.481,2.519 14.402,4.676 1.914,2.16 3.606,7.558 5.039,16.203 0.481,2.879 1.915,10.437 4.329,22.675 2.39,12.247 4.668,24.122 6.836,35.645 2.16,11.523 3.835,23.269 5.039,35.281 1.191,11.992 1.32,20.395 0.363,25.196 -1.438,9.113 -0.246,16.796 3.601,23.039 3.348,5.285 8.516,24.355 15.469,57.246 6.953,32.871 10.918,57.468 11.887,73.797 l 1.434,23.761 -19.434,1.438 c -21.133,1.441 -30.957,4.07 -29.524,7.918 1.438,4.797 18.723,10.324 51.848,16.562 40.781,7.676 74.883,8.75 102.235,3.242 27.355,-5.527 52.558,-18.613 75.597,-39.238 22.07,-19.687 33.125,-41.047 33.125,-64.082 0,-13.926 -4.082,-25.808 -12.246,-35.644 -8.164,-9.844 -23.75,-21.243 -46.797,-34.2 -27.844,-16.316 -43.679,-26.164 -47.519,-29.519 -2.879,-2.403 -3.125,-10.324 -0.723,-23.762 2.402,-13.437 10.078,-47.273 23.047,-101.516 4.316,-18.718 8.633,-29.644 12.961,-32.761 4.312,-3.125 16.785,-3.953 37.43,-2.52 23.515,2.395 38.632,0.957 45.371,-4.316 12.468,-9.129 6.23,-16.094 -18.731,-20.879 z m -308.144,3.594 c -3.848,-3.36 -23.399,-4.563 -58.68,-3.594 -35.285,0.957 -53.645,3.113 -55.09,6.476 -0.957,3.348 5.996,6.715 20.879,10.079 12.969,2.402 19.922,5.879 20.891,10.437 0.957,4.563 -2.161,19.563 -9.368,45 -7.199,23.047 -12.238,40.559 -15.117,52.567 -3.359,13.429 -7.922,21.593 -13.679,24.472 -5.286,3.36 -25.442,6.848 -60.481,10.442 -35.039,3.601 -54.25,4.199 -57.598,1.804 -2.878,-1.441 -7.453,-8.172 -13.679,-20.164 -3.367,-6.726 -8.528,-18.722 -15.481,-35.996 -6.965,-17.285 -13.207,-33.84 -18.718,-49.68 -5.524,-15.836 -8.286,-24.968 -8.286,-27.363 0,-3.355 6.953,-6.238 20.879,-8.64 16.797,-2.403 25.207,-6.004 25.207,-10.801 0,-1.922 -1.211,-4.082 -3.601,-6.477 -3.367,-3.367 -19.922,-3.367 -49.68,0 -29.769,3.352 -47.051,7.199 -51.84,11.516 -5.289,8.164 0.957,12.715 18.719,13.679 13.434,0 22.07,2.161 25.918,6.489 2.398,2.879 8.516,16.914 18.359,42.117 9.836,25.195 20.524,54.004 32.043,86.394 11.52,32.407 20.629,59.641 27.36,81.719 7.195,23.047 17.39,51.953 30.593,86.77 13.204,34.797 21.485,54.109 24.844,57.961 3.36,3.836 6.231,5.758 8.645,5.758 2.879,0 6.59,-3.961 11.16,-11.883 4.551,-7.918 7.793,-15.723 9.719,-23.399 2.878,-12.004 5.996,-22.801 9.363,-32.402 3.828,-9.121 10.078,-32.649 18.711,-70.559 8.64,-39.363 19.082,-82.8 31.328,-130.32 12.234,-47.52 20.516,-76.082 24.836,-85.684 2.879,-7.675 5.633,-12.597 8.277,-14.753 2.629,-2.161 7.563,-3.247 14.758,-3.247 14.883,0 24.727,-3.589 29.531,-10.796 1.438,-2.883 1.192,-5.52 -0.722,-7.922 z M 0,755 V 0 H 2480 V 755 H 0"
         style="fill:#100f0d;fill-opacity:1;fill-rule:nonzero;stroke:none"
         id="path14" /><path
         d="m 757.383,452.617 c 2.883,4.317 4.316,12.238 4.316,23.762 0,7.664 -1.328,14.031 -3.957,19.082 -2.644,5.035 -8.758,12.105 -18.355,21.238 -16.321,15.84 -35.774,27.586 -58.324,35.274 -22.567,7.675 -46.805,8.64 -72.723,2.882 l -13.672,-2.882 -3.605,-44.637 c -2.411,-28.801 -5.758,-54.719 -10.086,-77.766 -4.317,-20.632 -4.922,-33.359 -1.797,-38.152 3.125,-4.809 13.554,-6.484 31.328,-5.039 19.668,1.914 34.785,4.312 45.351,7.195 9.602,2.395 28.204,11.524 55.801,27.364 27.598,15.839 42.844,26.386 45.723,31.679"
         style="fill:#100f0d;fill-opacity:1;fill-rule:nonzero;stroke:none"
         id="path16" /><path
         d="m 344.824,455.137 c -5.281,24.226 -10.801,46.914 -16.554,68.039 -6.239,21.109 -11.043,31.433 -14.403,30.957 -1.433,0 -2.637,-1.684 -3.594,-5.039 -0.488,-1.926 -6.972,-18.965 -19.445,-51.114 -8.64,-22.089 -17.398,-47.167 -26.277,-75.246 -8.887,-28.078 -13.321,-44.765 -13.321,-50.039 0,-2.882 17.52,-5.398 52.559,-7.558 35.039,-2.157 53.75,-2.051 56.16,0.359 1.438,1.438 0.598,10.676 -2.515,27.719 -3.137,17.027 -7.329,37.676 -12.61,61.922"
         style="fill:#100f0d;fill-opacity:1;fill-rule:nonzero;stroke:none"
         id="path18" /><path
         d="m 359.949,365.496 c -2.41,-2.41 -21.121,-2.516 -56.16,-0.359 -35.039,2.16 -52.559,4.676 -52.559,7.558 0,5.274 4.434,21.961 13.321,50.039 8.879,28.079 17.637,53.157 26.277,75.246 12.473,32.149 18.957,49.188 19.445,51.114 0.957,3.355 2.161,5.039 3.594,5.039 3.36,0.476 8.164,-9.848 14.403,-30.957 5.753,-21.125 11.273,-43.813 16.554,-68.039 5.281,-24.246 9.473,-44.895 12.61,-61.922 3.113,-17.043 3.953,-26.281 2.515,-27.719 z m 85.676,-154.805 c -7.195,0 -12.129,1.086 -14.758,3.247 -2.644,2.156 -5.398,7.078 -8.277,14.753 -4.32,9.602 -12.602,38.164 -24.836,85.684 -12.246,47.52 -22.688,90.957 -31.328,130.32 -8.633,37.91 -14.883,61.438 -18.711,70.559 -3.367,9.601 -6.485,20.398 -9.363,32.402 -1.926,7.676 -5.168,15.481 -9.719,23.399 -4.57,7.922 -8.281,11.883 -11.16,11.883 -2.414,0 -5.285,-1.922 -8.645,-5.758 -3.359,-3.852 -11.64,-23.164 -24.844,-57.961 -13.203,-34.817 -23.398,-63.723 -30.593,-86.77 -6.731,-22.078 -15.84,-49.312 -27.36,-81.719 -11.519,-32.39 -22.207,-61.199 -32.043,-86.394 -9.843,-25.203 -15.961,-39.238 -18.359,-42.117 -3.848,-4.328 -12.484,-6.489 -25.918,-6.489 -17.762,-0.964 -24.008,-5.515 -18.719,-13.679 4.789,-4.317 22.071,-8.164 51.84,-11.516 29.758,-3.367 46.313,-3.367 49.68,0 2.39,2.395 3.601,4.555 3.601,6.477 0,4.797 -8.41,8.398 -25.207,10.801 -13.926,2.402 -20.879,5.285 -20.879,8.64 0,2.395 2.762,11.527 8.286,27.363 5.511,15.84 11.753,32.395 18.718,49.68 6.953,17.274 12.114,29.27 15.481,35.996 6.226,11.992 10.801,18.723 13.679,20.164 3.348,2.395 22.559,1.797 57.598,-1.804 35.039,-3.594 55.195,-7.082 60.481,-10.442 5.757,-2.879 10.32,-11.043 13.679,-24.472 2.879,-12.008 7.918,-29.52 15.117,-52.567 7.207,-25.437 10.325,-40.437 9.368,-45 -0.969,-4.558 -7.922,-8.035 -20.891,-10.437 -14.883,-3.364 -21.836,-6.731 -20.879,-10.079 1.445,-3.363 19.805,-5.519 55.09,-6.476 35.281,-0.969 54.832,0.234 58.68,3.594 1.914,2.402 2.16,5.039 0.722,7.922 -4.804,7.207 -14.648,10.796 -29.531,10.796"
         style="fill:#f5f6f5;fill-opacity:1;fill-rule:nonzero;stroke:none"
         id="path20" /><path
         d="m 655.859,393.574 c -10.566,-2.883 -25.683,-5.281 -45.351,-7.195 -17.774,-1.445 -28.203,0.23 -31.328,5.039 -3.125,4.793 -2.52,17.52 1.797,38.152 4.328,23.047 7.675,48.965 10.086,77.766 l 3.605,44.637 13.672,2.882 c 25.918,5.758 50.156,4.793 72.723,-2.882 22.55,-7.688 42.003,-19.434 58.324,-35.274 9.597,-9.133 15.711,-16.203 18.355,-21.238 2.629,-5.051 3.957,-11.418 3.957,-19.082 0,-11.524 -1.433,-19.445 -4.316,-23.762 -2.879,-5.293 -18.125,-15.84 -45.723,-31.679 -27.597,-15.84 -46.199,-24.969 -55.801,-27.364 z m 145.45,-184.316 c -6.739,5.273 -21.856,6.711 -45.371,4.316 -20.645,-1.433 -33.118,-0.605 -37.43,2.52 -4.328,3.117 -8.645,14.043 -12.961,32.761 -12.969,54.243 -20.645,88.079 -23.047,101.516 -2.402,13.438 -2.156,21.359 0.723,23.762 3.84,3.355 19.675,13.203 47.519,29.519 23.047,12.957 38.633,24.356 46.797,34.2 8.164,9.836 12.246,21.718 12.246,35.644 0,23.035 -11.055,44.395 -33.125,64.082 -23.039,20.625 -48.242,33.711 -75.597,39.238 -27.352,5.508 -61.454,4.434 -102.235,-3.242 -33.125,-6.238 -50.41,-11.765 -51.848,-16.562 -1.433,-3.848 8.391,-6.477 29.524,-7.918 l 19.434,-1.438 -1.434,-23.761 c -0.969,-16.329 -4.934,-40.926 -11.887,-73.797 -6.953,-32.891 -12.121,-51.961 -15.469,-57.246 -3.847,-6.243 -5.039,-13.926 -3.601,-23.039 0.957,-4.801 0.828,-13.204 -0.363,-25.196 -1.204,-12.012 -2.879,-23.758 -5.039,-35.281 -2.168,-11.523 -4.446,-23.398 -6.836,-35.645 -2.414,-12.238 -3.848,-19.796 -4.329,-22.675 -1.433,-8.645 -3.125,-14.043 -5.039,-16.203 -1.921,-2.157 -6.726,-3.719 -14.402,-4.676 -10.559,-1.922 -16.316,-4.571 -17.273,-7.918 -1.926,-5.293 1.55,-9.485 10.437,-12.602 8.875,-3.133 24.356,-5.887 46.445,-8.277 19.668,-2.414 32.872,-3.488 39.59,-3.242 6.719,0.23 12.481,2.273 17.285,6.121 6.719,4.316 10.079,7.922 10.079,10.801 0,5.273 -11.524,8.632 -34.551,10.078 -21.602,1.914 -32.403,4.316 -32.403,7.199 0.957,11.031 7.43,50.398 19.434,118.074 0.469,3.359 1.797,5.762 3.965,7.207 2.156,1.438 5.637,2.395 10.43,2.883 4.804,0.469 13.437,1.187 25.925,2.156 28.313,1.914 43.672,3.352 46.086,4.317 1.438,0 2.625,-0.481 3.594,-1.438 0.957,-0.965 1.914,-2.879 2.883,-5.762 0.957,-2.879 1.914,-6.843 2.879,-11.882 0.957,-5.039 1.914,-11.407 2.883,-19.075 3.836,-24.968 9.109,-51.609 15.836,-79.922 4.328,-17.761 6.593,-29.16 6.847,-34.199 0.235,-5.039 -1.086,-8.765 -3.965,-11.16 -4.316,-3.367 -6.484,-7.683 -6.484,-12.961 0,-5.293 2.168,-8.887 6.484,-10.801 4.785,-1.921 25.196,-0.964 61.192,2.883 15.84,1.914 28.32,3.836 37.441,5.762 24.961,4.785 31.199,11.75 18.731,20.879"
         style="fill:#f5f6f5;fill-opacity:1;fill-rule:nonzero;stroke:none"
         id="path22" /><path
         d="m 1104.41,285.574 c -3.84,1.438 -6.48,-8.64 -7.92,-30.242 -0.47,-10.078 -1.79,-17.039 -3.95,-20.879 -2.17,-3.848 -6.6,-8.164 -13.32,-12.961 -7.21,-4.804 -14.77,-7.801 -22.69,-9.004 -7.92,-1.199 -25.55,-1.797 -52.92,-1.797 -39.352,0 -65.282,1.914 -77.751,5.762 -19.687,5.277 -38.281,20.52 -55.8,45.727 -17.532,25.191 -27.969,51.472 -31.329,78.836 -7.675,61.433 8.399,113.269 48.243,155.515 9.597,10.559 18.242,19.192 25.918,25.918 7.675,6.723 15.363,12.121 23.047,16.203 7.675,4.075 15.117,6.953 22.324,8.645 7.187,1.68 15.351,2.516 24.472,2.516 20.156,0 34.086,-1.688 41.756,-5.04 10.56,-3.843 20.64,-10.203 30.25,-19.082 9.6,-8.882 14.4,-15.964 14.4,-21.238 0,-7.195 1.54,-10.801 4.67,-10.801 3.12,0 4.69,10.918 4.69,32.766 0,21.836 -1.57,32.762 -4.69,32.762 -3.13,0 -4.67,-3.606 -4.67,-10.801 0,-8.645 -1.44,-13.211 -4.33,-13.684 -2.88,-0.484 -8.64,2.883 -17.27,10.078 -7.21,6.235 -18.36,11.758 -33.48,16.567 -15.122,4.785 -28.689,6.953 -40.681,6.473 -5.293,0 -15.606,-2.403 -30.957,-7.2 -15.84,-5.758 -35.176,-19.922 -57.969,-42.476 -22.805,-22.571 -38.769,-43.449 -47.871,-62.641 -6.738,-14.402 -10.801,-25.808 -12.246,-34.195 -1.445,-8.41 -2.156,-26.047 -2.156,-52.922 0,-27.363 0.711,-45 2.156,-52.918 1.445,-7.922 5.996,-19.809 13.684,-35.648 9.597,-19.2 20.261,-35.758 32.039,-49.676 11.757,-13.926 23.144,-23.035 34.199,-27.364 10.547,-4.804 37.187,-8.398 79.922,-10.8 25.92,-1.438 44.15,-2.039 54.72,-1.797 10.55,0.234 19.67,1.797 27.35,4.679 17.29,6.231 27.83,9.598 31.68,10.079 2.89,0 4.33,-3.125 4.33,-9.36 0,-7.195 1.08,-11.883 3.23,-14.043 2.17,-2.156 5.41,-1.558 9.72,1.809 3.84,3.828 4.8,18.469 2.89,43.918 -2.89,36.953 -7.46,56.394 -13.69,58.316"
         style="fill:#f5f6f5;fill-opacity:1;fill-rule:nonzero;stroke:none"
         id="path24" /><path
         d="m 1429.84,215.73 -23.02,2.161 -3.61,66.242 c -0.49,12.969 -1.92,39.121 -4.32,78.484 -2.41,39.348 -3.85,66.477 -4.32,81.36 -3.85,63.828 -5.29,98.875 -4.32,105.117 1.44,7.676 8.39,13.679 20.88,18.008 l 6.49,2.156 c 16.79,6.711 22.31,12.961 16.55,18.722 -3.37,2.879 -15.48,1.305 -36.36,-4.687 -20.88,-6.008 -34.2,-11.875 -39.96,-17.641 -2.88,-2.398 -4.08,-4.312 -3.59,-5.757 0.47,-1.438 3.59,-3.125 9.35,-5.04 6.72,-2.406 10.68,-8.644 11.88,-18.722 1.19,-10.078 2.04,-43.445 2.52,-100.078 v -20.157 l -23.04,-4.328 c -5.76,-0.476 -18.36,-2.879 -37.8,-7.195 -19.44,-4.316 -37.92,-7.805 -55.44,-10.437 -17.53,-2.649 -31.09,-3.723 -40.68,-3.247 l -25.91,1.45 1.43,61.199 c 1.44,42.715 3.12,70.066 5.04,82.07 l 2.88,20.164 35.28,10.078 c 23.51,6.723 35.28,12.485 35.28,17.286 0,10.546 -19.69,10.546 -59.03,0 -21.61,-6.25 -39.86,-9.364 -54.73,-9.364 -16.81,-0.476 -25.92,-2.156 -27.36,-5.039 -0.96,-1.433 -0.72,-2.883 0.72,-4.316 6.72,-6.731 18.24,-10.086 34.56,-10.086 8.64,0 14.15,-1.203 16.56,-3.598 1.92,-3.847 0.24,-30.242 -5.04,-79.195 -4.8,-51.367 -7.19,-106.809 -7.19,-166.32 0,-48.965 -1.09,-78.489 -3.25,-88.567 -2.16,-10.074 -8.53,-15.113 -19.08,-15.113 -4.32,0 -7.21,-0.617 -8.64,-1.809 -1.44,-1.203 -1.69,-3.23 -0.71,-6.113 0.46,-3.367 2.87,-5.527 7.19,-6.484 4.32,-0.965 13.2,-1.438 26.63,-1.438 31.69,0 56.41,2.16 74.16,6.477 24.01,4.797 31.45,11.992 22.33,21.601 -3.36,2.879 -7.44,4.434 -12.24,4.68 -4.8,0.242 -14.65,-1.074 -29.52,-3.957 -22.57,-4.805 -34.56,-5.293 -36,-1.445 -1.44,2.878 -1.69,29.753 -0.72,80.644 l 1.45,74.883 31.68,1.434 c 23.98,0.468 53.51,4.074 88.55,10.8 37.44,7.2 57.6,9.36 60.48,6.489 2.88,-3.372 4.79,-34.563 5.76,-93.606 0.96,-44.172 0.96,-70.203 0,-78.125 -0.97,-7.922 -4.08,-13.074 -9.36,-15.476 -6.72,-3.364 -10.08,-6.965 -10.08,-10.801 0,-3.852 1.44,-5.879 4.31,-6.114 2.9,-0.253 8.66,1.305 17.29,4.676 9.11,3.836 23.05,6.477 41.76,7.918 18.73,2.395 28.08,5.996 28.08,10.805 0,4.312 -7.93,7.43 -23.77,9.351"
         style="fill:#f5f6f5;fill-opacity:1;fill-rule:nonzero;stroke:none"
         id="path26" /><path
         d="m 1589.32,232.656 c -4.56,0.723 -12.37,1.321 -23.4,1.797 l -35.28,2.156 v 113.047 c -0.96,73.442 -2.88,118.078 -5.76,133.918 -3.84,14.406 -5.29,21.836 -4.31,22.324 0.95,0.469 11.03,-0.964 30.23,-4.328 15.84,-2.879 27.24,-3.59 34.2,-2.156 6.95,1.445 9.73,5.274 8.28,11.524 -0.97,5.273 -12.48,9.832 -34.56,13.679 -19.69,3.352 -38.15,5.278 -55.44,5.754 -17.28,0.481 -26.88,-0.715 -28.8,-3.594 -1.43,-2.414 -0.24,-5.293 3.61,-8.64 3.82,-3.364 8.86,-5.762 15.11,-7.199 8.64,-1.446 14.15,-16.922 16.57,-46.446 2.39,-29.519 2.15,-84.121 -0.73,-163.801 l -2.16,-72 -17.27,-8.632 c -10.57,-5.762 -17.41,-10.926 -20.53,-15.489 -3.12,-4.558 -2.05,-7.312 3.24,-8.269 5.28,-0.969 13.68,0 25.2,2.879 16.8,4.785 38.16,8.156 64.08,10.078 17.76,1.914 28.81,3.594 33.13,5.039 4.31,1.433 6.47,4.316 6.47,8.641 0,2.875 -0.84,5.042 -2.52,6.476 -1.69,1.445 -4.8,2.52 -9.36,3.242"
         style="fill:#f5f6f5;fill-opacity:1;fill-rule:nonzero;stroke:none"
         id="path28" /><path
         d="m 2007.99,604.531 c -5.28,3.836 -9.85,5.762 -13.67,5.762 -7.7,-0.969 -14.17,-1.926 -19.45,-2.883 -6.73,-0.965 -16.2,-3.125 -28.44,-6.472 -12.24,-3.372 -23.65,-7.09 -34.2,-11.165 -10.57,-4.082 -17.04,-7.324 -19.44,-9.714 -4.31,-4.329 -5.29,-9.129 -2.88,-14.407 1.91,-4.8 8.16,-6.472 18.72,-5.039 9.59,1.438 14.87,0.957 15.84,-1.433 0.96,-2.41 -1.69,-8.899 -7.92,-19.446 -6.73,-11.043 -13.68,-26.406 -20.89,-46.082 -4.31,-11.047 -12.59,-29.636 -24.83,-55.8 -12.24,-26.164 -20.77,-46.204 -25.56,-60.118 -3.36,-9.609 -10.45,-24.843 -21.24,-45.722 -10.8,-20.879 -21.24,-39.961 -31.32,-57.239 -10.07,-17.285 -16.09,-25.918 -18,-25.918 -2.87,0 -5.29,4.321 -7.2,12.961 -1.92,8.157 -5.04,19.446 -9.37,33.836 -6.23,21.606 -11.51,43.672 -15.84,66.243 -22.07,104.152 -36.24,164.394 -42.48,180.722 -3.36,8.153 -3.47,14.031 -0.35,17.637 3.12,3.601 12.83,9.473 29.16,17.637 1.92,0.476 3.6,1.203 5.04,2.168 16.8,9.113 23.52,16.308 20.16,21.589 -4.32,6.243 -17.28,4.563 -38.88,-5.039 -14.88,-6.726 -35.28,-11.043 -61.2,-12.957 -25.92,-1.433 -38.88,-4.316 -38.88,-8.632 0,-4.329 6,-7.207 18,-8.641 0.96,-0.488 2.64,-0.727 5.04,-0.727 17.75,-2.879 28.32,-6.726 31.68,-11.519 3.36,-4.797 6.95,-19.438 10.8,-43.918 0.47,-3.36 0.72,-6.004 0.72,-7.918 5.28,-36.484 11.27,-70.324 18,-101.527 6.71,-33.602 10.08,-53.524 10.08,-59.754 0,-11.043 10.56,-46.328 31.68,-105.84 8.15,-23.035 16.08,-35.281 23.76,-36.719 7.67,-1.445 14.16,7.922 19.44,28.074 2.39,12.485 12.96,34.797 31.68,66.965 18.72,33.113 32.87,62.871 42.48,89.277 11.04,29.278 19.91,49.676 26.64,61.204 6.71,11.519 13.92,27.109 21.59,46.793 7.21,19.203 16.45,37.804 27.73,55.8 11.28,18 20.04,27.727 26.28,29.16 29.28,4.797 46.08,9.602 50.4,14.407 2.39,3.347 3.48,5.871 3.24,7.558 -0.24,1.68 -2.28,3.953 -6.12,6.836"
         style="fill:#f5f6f5;fill-opacity:1;fill-rule:nonzero;stroke:none"
         id="path30" /><path
         d="m 2326.95,288.457 c -2.89,0 -4.8,-2.051 -5.76,-6.121 -0.98,-4.082 -1.44,-12.133 -1.44,-24.121 v -30.957 l -65.52,-5.766 c -49.93,-3.847 -82.8,-6.004 -98.64,-6.472 l -33.12,-1.446 v 126.719 l 23.76,2.883 c 17.29,1.914 31.43,4.07 42.48,6.48 l 19.43,3.598 2.9,-21.606 c 1.43,-7.195 3.1,-13.668 5.03,-19.429 5.28,-14.883 11.04,-19.446 17.28,-13.684 3.35,3.836 3.6,14.871 0.71,33.113 -3.36,20.637 -5.04,32.883 -5.04,36.731 0,10.078 -1.68,19.668 -5.04,28.801 -3.35,9.109 -6.71,13.679 -10.07,13.679 -4.81,0 -7.91,-5.527 -9.36,-16.562 -0.97,-7.688 -3.12,-12.852 -6.48,-15.481 -3.36,-2.644 -13.44,-6.609 -30.24,-11.882 -22.09,-7.2 -35.53,-10.079 -40.32,-8.641 -3.85,1.91 -6.96,20.633 -9.37,56.16 -3.84,61.926 -8.16,92.883 -12.94,92.883 -2.42,0 -3.61,-49.445 -3.61,-148.32 V 210.691 l -16.56,-9.351 c -10.56,-6.25 -16.08,-11.059 -16.55,-14.406 0,-3.36 5.99,-4.082 17.98,-2.161 23.52,4.321 87.86,9.36 192.97,15.122 37.91,1.914 58.56,4.793 61.92,8.64 3.36,4.317 2.99,18.723 -1.08,43.203 -4.08,24.473 -8.53,36.719 -13.32,36.719"
         style="fill:#f5f6f5;fill-opacity:1;fill-rule:nonzero;stroke:none"
         id="path32" /><path
         d="m 2261.07,553.777 c -51.12,-3.132 -81.71,-6.121 -91.8,-9.004 -16.81,-3.355 -42.73,-6.238 -77.77,-8.64 -27.35,-1.922 -45.35,-3.848 -53.99,-5.762 -8.64,-2.402 -11.77,-5.516 -9.37,-9.355 1.92,-3.371 18.74,-4.676 50.41,-3.965 31.68,0.722 59.76,3.242 84.24,7.566 30.71,4.785 69.85,7.434 117.37,7.922 l 72.71,0.715 2.16,-20.879 c 1.43,-14.395 4.79,-21.605 10.08,-21.605 2.39,0 4.07,2.277 5.05,6.847 0.94,4.551 1.43,13.321 1.43,26.278 v 33.117 h -13.68 c -13.44,0.957 -45.72,-0.117 -96.84,-3.235"
         style="fill:#f5f6f5;fill-opacity:1;fill-rule:nonzero;stroke:none"
         id="path34" /></g></g></svg>
