<?xml version="1.0" encoding="UTF-8" standalone="no"?>
<svg
   xmlns:dc="http://purl.org/dc/elements/1.1/"
   xmlns:cc="http://creativecommons.org/ns#"
   xmlns:rdf="http://www.w3.org/1999/02/22-rdf-syntax-ns#"
   xmlns:svg="http://www.w3.org/2000/svg"
   xmlns="http://www.w3.org/2000/svg"
   xmlns:sodipodi="http://sodipodi.sourceforge.net/DTD/sodipodi-0.dtd"
   xmlns:inkscape="http://www.inkscape.org/namespaces/inkscape"
   version="1.1"
   id="svg2"
   xml:space="preserve"
   width="340"
   height="100.66667"
   viewBox="0 0 340 100.66667"
   sodipodi:docname="contact1.eps"><metadata
     id="metadata8"><rdf:RDF><cc:Work
         rdf:about=""><dc:format>image/svg+xml</dc:format><dc:type
           rdf:resource="http://purl.org/dc/dcmitype/StillImage" /></cc:Work></rdf:RDF></metadata><defs
     id="defs6" /><sodipodi:namedview
     pagecolor="#ffffff"
     bordercolor="#666666"
     borderopacity="1"
     objecttolerance="10"
     gridtolerance="10"
     guidetolerance="10"
     inkscape:pageopacity="0"
     inkscape:pageshadow="2"
     inkscape:window-width="640"
     inkscape:window-height="480"
     id="namedview4" /><g
     id="g10"
     inkscape:groupmode="layer"
     inkscape:label="ink_ext_XXXXXX"
     transform="matrix(1.3333333,0,0,-1.3333333,0,100.66667)"><g
       id="g12"
       transform="scale(0.1)"><path
         d="m 660.898,538.293 c -19.687,9.117 -35.39,13.914 -47.148,14.402 -11.777,0.469 -24.609,-3.359 -38.523,-11.523 -9.614,-5.762 -19.563,-13.438 -29.875,-23.035 -10.332,-9.614 -19.93,-20.157 -28.809,-31.684 -8.887,-11.519 -15.957,-22.801 -21.238,-33.836 -6.242,-12.488 -12.004,-30.969 -17.278,-55.437 -5.293,-24.485 -7.922,-44.895 -7.922,-61.203 0,-11.043 3.84,-25.45 11.516,-43.204 7.676,-17.761 16.074,-31.445 25.203,-41.035 13.43,-13.933 31.203,-24.25 53.281,-30.968 22.075,-6.727 44.641,-8.629 67.676,-5.75 13.43,1.433 23.762,3.71 30.969,6.835 7.195,3.118 13.672,7.918 19.434,14.407 5.761,6.472 11.992,16.433 18.718,29.871 9.602,17.754 16.438,35.644 20.52,53.64 4.082,18 7.312,44.036 9.726,78.118 1.915,31.679 0,55.449 -5.761,71.289 -10.078,31.191 -30.235,54.226 -60.489,69.113"
         style="fill:#100f0d;fill-opacity:1;fill-rule:nonzero;stroke:none"
         id="path14" /><path
         d="m 1684.73,455.137 c -5.3,24.226 -10.8,46.914 -16.57,68.039 -6.25,21.109 -11.05,31.433 -14.39,30.957 -1.45,0 -2.66,-1.684 -3.61,-5.039 -0.48,-1.926 -6.96,-18.965 -19.44,-51.114 -8.63,-22.089 -17.4,-47.167 -26.28,-75.246 -8.88,-28.078 -13.32,-44.765 -13.32,-50.039 0,-2.882 17.51,-5.398 52.56,-7.558 35.03,-2.157 53.76,-2.051 56.16,0.359 1.45,1.438 0.6,10.676 -2.52,27.719 -3.12,17.027 -7.32,37.676 -12.59,61.922"
         style="fill:#100f0d;fill-opacity:1;fill-rule:nonzero;stroke:none"
         id="path16" /><path
         d="m 2454.75,558.098 c -3.6,-30.493 -8.04,-45.723 -13.32,-45.723 -2.88,0 -4.2,4.195 -3.96,12.598 0.24,8.394 0.36,17.039 0.36,25.925 0,8.875 -1.92,14.036 -5.76,15.481 -4.32,1.434 -23.04,-0.727 -56.15,-6.484 l -48.24,-7.922 -2.89,-47.52 c -1.92,-31.68 -6.24,-69.836 -12.95,-114.48 -15.38,-106.086 -20.88,-161.282 -16.57,-165.598 2.4,-1.926 9.83,-3.605 22.33,-5.039 8.63,-0.488 14.03,-1.445 16.19,-2.883 2.17,-1.433 3.24,-4.805 3.24,-10.074 0,-4.809 -1.2,-8.176 -3.59,-10.078 -2.41,-1.926 -6.74,-3.606 -12.97,-5.039 -12,-2.883 -30.72,-3.242 -56.15,-1.086 -25.45,2.16 -39.86,5.398 -43.21,9.719 -4.31,5.281 -3.96,9.96 1.08,14.043 5.04,4.07 12.84,6.121 23.4,6.121 6.71,0 11.52,0.593 14.4,1.796 2.88,1.192 5.76,5.403 8.64,12.598 2.88,7.195 4.92,16.074 6.12,26.641 1.19,10.554 3.24,28.086 6.12,52.558 4.79,48.477 10.09,90.235 15.85,125.286 10.55,69.585 13.91,105.593 10.08,107.996 -1.94,1.445 -25.69,2.636 -71.29,3.601 l -68.4,0.727 -3.59,-19.446 c -0.98,-6.726 -2.89,-12.492 -5.77,-17.285 -2.88,-4.804 -5.64,-8.039 -8.28,-9.718 -2.64,-1.688 -5.4,-1.329 -8.28,1.085 -1.92,2.879 -0.97,13.672 2.88,32.395 2.88,14.871 6.23,30.477 10.08,46.805 2.88,12.961 6,18.957 9.37,18 2.87,-1.45 5.03,-5.762 6.47,-12.961 l 2.16,-14.407 70.56,0.723 c 38.4,0 79.8,3.117 124.2,9.36 44.4,6.238 69.48,12.246 75.24,18.003 4.31,4.321 7.93,5.754 10.8,4.321 4.79,-2.883 5.4,-19.563 1.8,-50.039 z M 2122.48,183.34 c -4.33,-3.367 -7.56,-3.965 -9.73,-1.809 -2.15,2.16 -3.24,6.848 -3.24,14.043 0,6.235 -1.43,9.36 -4.31,9.36 -3.85,-0.481 -14.4,-3.848 -31.68,-10.079 -7.68,-2.882 -16.81,-4.445 -27.37,-4.679 -10.56,-0.242 -28.79,0.359 -54.71,1.797 -42.73,2.402 -69.37,5.996 -79.92,10.8 -11.05,4.329 -22.45,13.438 -34.21,27.364 -11.76,13.918 -22.44,30.476 -32.04,49.676 -7.67,15.839 -12.23,27.726 -13.67,35.648 -1.44,7.918 -2.17,25.555 -2.17,52.918 0,26.875 0.73,44.512 2.17,52.922 1.44,8.387 5.51,19.793 12.24,34.195 9.11,19.192 25.07,40.07 47.88,62.641 22.79,22.554 42.12,36.718 57.96,42.476 15.36,4.797 25.67,7.2 30.95,7.2 12,0.48 25.56,-1.688 40.69,-6.473 15.12,-4.809 26.28,-10.332 33.47,-16.567 8.65,-7.195 14.41,-10.562 17.28,-10.078 2.89,0.473 4.33,5.039 4.33,13.684 0,7.195 1.55,10.801 4.67,10.801 3.13,0 4.69,-10.926 4.69,-32.762 0,-21.848 -1.56,-32.766 -4.69,-32.766 -3.12,0 -4.67,3.606 -4.67,10.801 0,5.274 -4.81,12.356 -14.41,21.238 -9.61,8.879 -19.69,15.239 -30.23,19.082 -7.69,3.352 -21.6,5.04 -41.76,5.04 -9.12,0 -17.29,-0.836 -24.48,-2.516 -7.2,-1.692 -14.65,-4.57 -22.32,-8.645 -7.69,-4.082 -15.37,-9.48 -23.04,-16.203 -7.69,-6.726 -16.33,-15.359 -25.92,-25.918 -39.85,-42.246 -55.93,-94.082 -48.24,-155.515 3.36,-27.364 13.79,-53.645 31.31,-78.836 17.52,-25.207 36.12,-40.45 55.81,-45.727 12.47,-3.848 38.39,-5.762 77.76,-5.762 27.36,0 45,0.598 52.91,1.797 7.93,1.203 15.49,4.2 22.68,9.004 6.72,4.797 11.17,9.113 13.32,12.961 2.16,3.84 3.48,10.801 3.96,20.879 1.45,21.602 4.08,31.68 7.93,30.242 6.23,-1.922 10.8,-21.363 13.67,-58.316 1.92,-25.449 0.96,-40.09 -2.87,-43.918 z m -308.16,8.633 c -3.85,-3.36 -23.4,-4.563 -58.68,-3.594 -35.28,0.957 -53.64,3.113 -55.07,6.476 -0.98,3.348 5.99,6.715 20.88,10.079 12.95,2.402 19.91,5.879 20.87,10.437 0.96,4.563 -2.16,19.563 -9.35,45 -7.21,23.047 -12.25,40.559 -15.13,52.567 -3.37,13.429 -7.92,21.593 -13.68,24.472 -5.28,3.36 -25.45,6.848 -60.48,10.442 -35.05,3.601 -54.25,4.199 -57.6,1.804 -2.88,-1.441 -7.45,-8.172 -13.68,-20.164 -3.36,-6.726 -8.52,-18.722 -15.48,-35.996 -6.96,-17.285 -13.21,-33.84 -18.72,-49.68 -5.52,-15.836 -8.28,-24.968 -8.28,-27.363 0,-3.355 6.96,-6.238 20.88,-8.64 16.8,-2.403 25.2,-6.004 25.2,-10.801 0,-1.922 -1.2,-4.082 -3.6,-6.477 -3.36,-3.367 -19.92,-3.367 -49.68,0 -29.77,3.352 -47.05,7.199 -51.84,11.516 -5.28,8.164 0.96,12.715 18.73,13.679 13.43,0 22.07,2.161 25.92,6.489 2.39,2.879 8.51,16.914 18.36,42.117 9.82,25.195 20.51,54.004 32.03,86.394 11.52,32.407 20.63,59.641 27.36,81.719 7.21,23.047 17.39,51.953 30.61,86.77 13.19,34.797 21.46,54.109 24.83,57.961 3.35,3.836 6.24,5.758 8.64,5.758 2.88,0 6.6,-3.961 11.16,-11.883 4.57,-7.918 7.8,-15.723 9.72,-23.399 2.88,-12.004 6,-22.801 9.36,-32.402 3.85,-9.121 10.08,-32.649 18.73,-70.559 8.63,-39.363 19.07,-82.8 31.31,-130.32 12.24,-47.52 20.52,-76.082 24.84,-85.684 2.88,-7.675 5.65,-12.597 8.28,-14.753 2.64,-2.161 7.56,-3.247 14.77,-3.247 14.86,0 24.7,-3.589 29.51,-10.796 1.44,-2.883 1.19,-5.52 -0.72,-7.922 z m -363.95,366.125 c -3.6,-30.493 -8.05,-45.723 -13.32,-45.723 -2.89,0 -4.22,4.195 -3.96,12.598 0.23,8.394 0.36,17.039 0.36,25.925 0,8.875 -1.93,14.036 -5.76,15.481 -4.32,1.434 -23.04,-0.727 -56.17,-6.484 l -48.24,-7.922 -2.87,-47.52 c -1.93,-31.68 -6.25,-69.836 -12.97,-114.48 -15.36,-106.086 -20.88,-161.282 -16.55,-165.598 2.39,-1.926 9.83,-3.605 22.31,-5.039 8.65,-0.488 14.05,-1.445 16.2,-2.883 2.16,-1.433 3.25,-4.805 3.25,-10.074 0,-4.809 -1.2,-8.176 -3.61,-10.078 -2.4,-1.926 -6.72,-3.606 -12.95,-5.039 -12.01,-2.883 -30.73,-3.242 -56.17,-1.086 -25.45,2.16 -39.84,5.398 -43.19,9.719 -4.33,5.281 -3.96,9.96 1.08,14.043 5.04,4.07 12.83,6.121 23.4,6.121 6.72,0 11.51,0.593 14.4,1.796 2.88,1.192 5.76,5.403 8.64,12.598 2.88,7.195 4.91,16.074 6.12,26.641 1.19,10.554 3.24,28.086 6.11,52.558 4.8,48.477 10.08,90.235 15.84,125.286 10.56,69.585 13.93,105.593 10.08,107.996 -1.91,1.445 -25.68,2.636 -71.27,3.601 l -68.41,0.727 -3.6,-19.446 c -0.96,-6.726 -2.87,-12.492 -5.75,-17.285 -2.88,-4.804 -5.66,-8.039 -8.28,-9.718 -2.65,-1.688 -5.4,-1.329 -8.28,1.085 -1.93,2.879 -0.97,13.672 2.88,32.395 2.88,14.871 6.23,30.477 10.08,46.805 2.88,12.961 5.99,18.957 9.35,18 2.89,-1.45 5.04,-5.762 6.49,-12.961 l 2.16,-14.407 70.55,0.723 c 38.4,0 79.81,3.117 124.2,9.36 44.39,6.238 69.49,12.246 75.25,18.003 4.32,4.321 7.91,5.754 10.79,4.321 4.8,-2.883 5.4,-19.563 1.81,-50.039 z M 1118.1,539.375 c -2.89,-1.199 -9.14,-2.051 -18.72,-2.52 -10.57,-0.964 -17.41,-2.414 -20.53,-4.316 -3.13,-1.926 -6.37,-6.726 -9.71,-14.402 -5.29,-12.004 -10.33,-31.926 -15.13,-59.758 -2.41,-11.524 -9.48,-39.492 -21.24,-83.887 -11.76,-44.402 -18.84,-76.926 -21.24,-97.558 -2.41,-16.805 -4.21,-29.289 -5.4,-37.442 -1.2,-8.164 -2.4,-15.117 -3.59,-20.879 -1.21,-5.761 -2.41,-9.25 -3.602,-10.437 -1.204,-1.203 -2.766,-1.797 -4.68,-1.797 -2.41,0 -4.453,0.723 -6.121,2.156 -1.692,1.438 -3.957,5.508 -6.848,12.235 -2.871,6.718 -6.113,15.128 -9.719,25.207 -3.601,10.078 -8.992,25.441 -16.199,46.074 -6.238,19.199 -15.234,44.648 -26.992,76.328 -11.777,31.68 -22.813,60.586 -33.125,86.758 -10.332,26.152 -16.68,41.633 -19.082,46.433 -5.762,10.559 -10.078,7.922 -12.957,-7.918 -1.926,-9.609 -3.852,-26.164 -5.766,-49.675 -3.355,-44.641 -9.351,-92.407 -17.996,-143.286 -7.683,-51.367 -10.683,-79.324 -9.004,-83.875 1.68,-4.57 9.239,-5.886 22.688,-3.964 16.797,2.402 25.437,0.722 25.918,-5.039 0.476,-2.879 -1.692,-6.004 -6.477,-9.356 -5.293,-3.848 -19.211,-6.008 -41.758,-6.484 -22.578,-0.481 -38.418,1.191 -47.527,5.039 -9.121,3.359 -11.77,6.953 -7.922,10.801 2.883,1.914 7.922,2.878 15.117,2.878 8.653,0 14.407,2.161 17.285,6.489 3.36,5.758 9.832,42.949 19.434,111.597 9.609,68.633 14.648,113.508 15.129,134.641 v 43.191 l -15.129,1.45 c -10.559,0.957 -15.84,3.836 -15.84,8.64 0,4.785 11.758,8.391 35.293,10.789 20.156,1.914 32.988,1.555 38.516,-1.07 5.508,-2.648 10.195,-10.93 14.043,-24.848 3.34,-13.925 11.758,-35.269 25.195,-64.082 14.395,-33.113 27.832,-68.152 40.313,-105.117 12.968,-40.32 20.886,-60.476 23.769,-60.476 2.871,0 5.039,5.996 6.484,18 0.469,2.402 7.31,32.273 20.51,89.636 13.2,57.356 19.8,89.16 19.8,95.403 0,7.671 2.16,18.718 6.49,33.125 4.31,11.511 5.51,18.828 3.59,21.961 -1.92,3.117 -8.4,5.39 -19.43,6.835 -11.06,0.958 -17.05,4.075 -18.01,9.356 -0.48,1.914 -0.24,3.477 0.72,4.687 0.96,1.192 2.88,2.161 5.76,2.879 2.88,0.715 6.96,1.313 12.25,1.797 11.04,0.957 30.23,1.438 57.6,1.438 17.27,0 27.95,-0.481 32.03,-1.438 4.08,-0.965 6.12,-3.601 6.12,-7.918 0,-4.316 -1.43,-7.09 -4.31,-8.281 z M 759.551,406.531 c -2.891,-40.801 -8.047,-72.605 -15.488,-95.398 -7.442,-22.805 -19.793,-44.766 -37.071,-65.879 -10.566,-12.957 -20.293,-22.316 -29.16,-28.074 -8.894,-5.762 -20.41,-10.332 -34.57,-13.684 -14.16,-3.367 -36.36,-6.484 -66.602,-9.363 -54.238,-5.754 -95.515,21.355 -123.828,81.363 -10.566,22.07 -15.84,42.484 -15.84,61.203 0,17.278 2.383,36.36 7.188,57.239 4.804,20.875 11.281,38.992 19.441,54.351 8.156,16.801 22.324,35.156 42.484,55.09 20.165,19.914 39.356,34.668 57.606,44.277 11.035,5.274 18.828,8.75 23.398,10.442 4.551,1.675 11.512,2.988 20.879,3.953 9.356,0.957 20.75,0.957 34.2,0 32.148,-0.965 51.113,-3.125 56.875,-6.477 10.078,-5.293 20.273,-15.476 30.605,-30.601 10.312,-15.118 18.105,-30.364 23.398,-45.715 3.829,-12.488 6.114,-23.399 6.836,-32.766 0.723,-9.351 0.606,-22.676 -0.351,-39.961 z M 418.984,183.34 c -4.316,-3.367 -7.558,-3.965 -9.714,-1.809 -2.161,2.16 -3.235,6.848 -3.235,14.043 0,6.235 -1.445,9.36 -4.324,9.36 -3.852,-0.481 -14.406,-3.848 -31.684,-10.079 -7.683,-2.882 -16.804,-4.445 -27.351,-4.679 -10.567,-0.242 -28.809,0.359 -54.727,1.797 -42.722,2.402 -69.363,5.996 -79.918,10.8 -11.051,4.329 -22.445,13.438 -34.203,27.364 -11.765,13.918 -22.441,30.476 -32.035,49.676 -7.688,15.839 -12.242,27.726 -13.684,35.648 -1.437,7.918 -2.156,25.555 -2.156,52.918 0,26.875 0.719,44.512 2.156,52.922 1.442,8.387 5.512,19.793 12.243,34.195 9.113,19.192 25.074,40.07 47.878,62.641 22.79,22.554 42.122,36.718 57.961,42.476 15.352,4.797 25.664,7.2 30.957,7.2 11.993,0.48 25.567,-1.688 40.684,-6.473 15.117,-4.809 26.277,-10.332 33.477,-16.567 8.64,-7.195 14.394,-10.562 17.285,-10.078 2.871,0.473 4.316,5.039 4.316,13.684 0,7.195 1.555,10.801 4.68,10.801 3.113,0 4.676,-10.926 4.676,-32.762 0,-21.848 -1.563,-32.766 -4.676,-32.766 -3.125,0 -4.68,3.606 -4.68,10.801 0,5.274 -4.805,12.356 -14.394,21.238 -9.61,8.879 -19.688,15.239 -30.246,19.082 -7.684,3.352 -21.598,5.04 -41.766,5.04 -9.121,0 -17.274,-0.836 -24.473,-2.516 -7.207,-1.692 -14.648,-4.57 -22.324,-8.645 -7.676,-4.082 -15.367,-9.48 -23.035,-16.203 -7.688,-6.726 -16.324,-15.359 -25.918,-25.918 -39.852,-42.246 -55.93,-94.082 -48.242,-155.515 3.351,-27.364 13.793,-53.645 31.316,-78.836 17.52,-25.207 36.113,-40.45 55.801,-45.727 12.48,-3.848 38.398,-5.762 77.754,-5.762 27.363,0 45,0.598 52.93,1.797 7.917,1.203 15.48,4.2 22.675,9.004 6.719,4.797 11.16,9.113 13.321,12.961 2.168,3.84 3.476,10.801 3.964,20.879 1.438,21.602 4.063,31.68 7.911,30.242 6.242,-1.922 10.8,-21.363 13.691,-58.316 1.914,-25.449 0.957,-40.09 -2.891,-43.918 z M 0,755 V 0 H 2550 V 755 H 0"
         style="fill:#100f0d;fill-opacity:1;fill-rule:nonzero;stroke:none"
         id="path18" /><path
         d="m 408.184,285.574 c -3.848,1.438 -6.473,-8.64 -7.911,-30.242 -0.488,-10.078 -1.796,-17.039 -3.964,-20.879 -2.161,-3.848 -6.602,-8.164 -13.321,-12.961 -7.195,-4.804 -14.758,-7.801 -22.675,-9.004 -7.93,-1.199 -25.567,-1.797 -52.93,-1.797 -39.356,0 -65.274,1.914 -77.754,5.762 -19.688,5.277 -38.281,20.52 -55.801,45.727 -17.523,25.191 -27.965,51.472 -31.316,78.836 -7.688,61.433 8.39,113.269 48.242,155.515 9.594,10.559 18.23,19.192 25.918,25.918 7.668,6.723 15.359,12.121 23.035,16.203 7.676,4.075 15.117,6.953 22.324,8.645 7.199,1.68 15.352,2.516 24.473,2.516 20.168,0 34.082,-1.688 41.766,-5.04 10.558,-3.843 20.636,-10.203 30.246,-19.082 9.589,-8.882 14.394,-15.964 14.394,-21.238 0,-7.195 1.555,-10.801 4.68,-10.801 3.113,0 4.676,10.918 4.676,32.766 0,21.836 -1.563,32.762 -4.676,32.762 -3.125,0 -4.68,-3.606 -4.68,-10.801 0,-8.645 -1.445,-13.211 -4.316,-13.684 -2.891,-0.484 -8.645,2.883 -17.285,10.078 -7.2,6.235 -18.36,11.758 -33.477,16.567 -15.117,4.785 -28.691,6.953 -40.684,6.473 -5.293,0 -15.605,-2.403 -30.957,-7.2 -15.839,-5.758 -35.171,-19.922 -57.961,-42.476 -22.804,-22.571 -38.765,-43.449 -47.878,-62.641 -6.731,-14.402 -10.801,-25.808 -12.243,-34.195 -1.437,-8.41 -2.156,-26.047 -2.156,-52.922 0,-27.363 0.719,-45 2.156,-52.918 1.442,-7.922 5.996,-19.809 13.684,-35.648 9.594,-19.2 20.27,-35.758 32.035,-49.676 11.758,-13.926 23.152,-23.035 34.203,-27.364 10.555,-4.804 37.196,-8.398 79.918,-10.8 25.918,-1.438 44.16,-2.039 54.727,-1.797 10.547,0.234 19.668,1.797 27.351,4.679 17.278,6.231 27.832,9.598 31.684,10.079 2.879,0 4.324,-3.125 4.324,-9.36 0,-7.195 1.074,-11.883 3.235,-14.043 2.156,-2.156 5.398,-1.558 9.714,1.809 3.848,3.828 4.805,18.469 2.891,43.918 -2.891,36.953 -7.449,56.394 -13.691,58.316"
         style="fill:#f5f6f5;fill-opacity:1;fill-rule:nonzero;stroke:none"
         id="path20" /><path
         d="m 727.148,397.891 c -2.414,-34.082 -5.644,-60.118 -9.726,-78.118 -4.082,-17.996 -10.918,-35.886 -20.52,-53.64 -6.726,-13.438 -12.957,-23.399 -18.718,-29.871 -5.762,-6.489 -12.239,-11.289 -19.434,-14.407 -7.207,-3.125 -17.539,-5.402 -30.969,-6.835 -23.035,-2.879 -45.601,-0.977 -67.676,5.75 -22.078,6.718 -39.851,17.035 -53.281,30.968 -9.129,9.59 -17.527,23.274 -25.203,41.035 -7.676,17.754 -11.516,32.161 -11.516,43.204 0,16.308 2.629,36.718 7.922,61.203 5.274,24.468 11.036,42.949 17.278,55.437 5.281,11.035 12.351,22.317 21.238,33.836 8.879,11.527 18.477,22.07 28.809,31.684 10.312,9.597 20.261,17.273 29.875,23.035 13.914,8.164 26.746,11.992 38.523,11.523 11.758,-0.488 27.461,-5.285 47.148,-14.402 30.254,-14.887 50.411,-37.922 60.489,-69.113 5.761,-15.84 7.676,-39.61 5.761,-71.289 z m 25.918,81.367 c -5.293,15.351 -13.086,30.597 -23.398,45.715 -10.332,15.125 -20.527,25.308 -30.605,30.601 -5.762,3.352 -24.727,5.512 -56.875,6.477 -13.45,0.957 -24.844,0.957 -34.2,0 -9.367,-0.965 -16.328,-2.278 -20.879,-3.953 -4.57,-1.692 -12.363,-5.168 -23.398,-10.442 -18.25,-9.609 -37.441,-24.363 -57.606,-44.277 -20.16,-19.934 -34.328,-38.289 -42.484,-55.09 -8.16,-15.359 -14.637,-33.476 -19.441,-54.351 -4.805,-20.879 -7.188,-39.961 -7.188,-57.239 0,-18.719 5.274,-39.133 15.84,-61.203 28.313,-60.008 69.59,-87.117 123.828,-81.363 30.242,2.879 52.442,5.996 66.602,9.363 14.16,3.352 25.676,7.922 34.57,13.684 8.867,5.758 18.594,15.117 29.16,28.074 17.278,21.113 29.629,43.074 37.071,65.879 7.441,22.793 12.597,54.597 15.488,95.398 0.957,17.285 1.074,30.61 0.351,39.961 -0.722,9.367 -3.007,20.278 -6.836,32.766"
         style="fill:#f5f6f5;fill-opacity:1;fill-rule:nonzero;stroke:none"
         id="path22" /><path
         d="m 1116.29,555.574 c -4.08,0.957 -14.76,1.438 -32.03,1.438 -27.37,0 -46.56,-0.481 -57.6,-1.438 -5.29,-0.484 -9.37,-1.082 -12.25,-1.797 -2.88,-0.718 -4.8,-1.687 -5.76,-2.879 -0.96,-1.21 -1.2,-2.773 -0.72,-4.687 0.96,-5.281 6.95,-8.398 18.01,-9.356 11.03,-1.445 17.51,-3.718 19.43,-6.835 1.92,-3.133 0.72,-10.45 -3.59,-21.961 -4.33,-14.407 -6.49,-25.454 -6.49,-33.125 0,-6.243 -6.6,-38.047 -19.8,-95.403 -13.2,-57.363 -20.041,-87.234 -20.51,-89.636 -1.445,-12.004 -3.613,-18 -6.484,-18 -2.883,0 -10.801,20.156 -23.769,60.476 -12.481,36.965 -25.918,72.004 -40.313,105.117 -13.437,28.813 -21.855,50.157 -25.195,64.082 -3.848,13.918 -8.535,22.2 -14.043,24.848 -5.528,2.625 -18.36,2.984 -38.516,1.07 -23.535,-2.398 -35.293,-6.004 -35.293,-10.789 0,-4.804 5.281,-7.683 15.84,-8.64 l 15.129,-1.45 v -43.191 c -0.481,-21.133 -5.52,-66.008 -15.129,-134.641 -9.602,-68.648 -16.074,-105.839 -19.434,-111.597 -2.878,-4.328 -8.632,-6.489 -17.285,-6.489 -7.195,0 -12.234,-0.964 -15.117,-2.878 -3.848,-3.848 -1.199,-7.442 7.922,-10.801 9.109,-3.848 24.949,-5.52 47.527,-5.039 22.547,0.476 36.465,2.636 41.758,6.484 4.785,3.352 6.953,6.477 6.477,9.356 -0.481,5.761 -9.121,7.441 -25.918,5.039 -13.449,-1.922 -21.008,-0.606 -22.688,3.964 -1.679,4.551 1.321,32.508 9.004,83.875 8.645,50.879 14.641,98.645 17.996,143.286 1.914,23.511 3.84,40.066 5.766,49.675 2.879,15.84 7.195,18.477 12.957,7.918 2.402,-4.8 8.75,-20.281 19.082,-46.433 10.312,-26.172 21.348,-55.078 33.125,-86.758 11.758,-31.68 20.754,-57.129 26.992,-76.328 7.207,-20.633 12.598,-35.996 16.199,-46.074 3.606,-10.079 6.848,-18.489 9.719,-25.207 2.891,-6.727 5.156,-10.797 6.848,-12.235 1.668,-1.433 3.711,-2.156 6.121,-2.156 1.914,0 3.476,0.594 4.68,1.797 1.192,1.187 2.392,4.676 3.602,10.437 1.19,5.762 2.39,12.715 3.59,20.879 1.19,8.153 2.99,20.637 5.4,37.442 2.4,20.632 9.48,53.156 21.24,97.558 11.76,44.395 18.83,72.363 21.24,83.887 4.8,27.832 9.84,47.754 15.13,59.758 3.34,7.676 6.58,12.476 9.71,14.402 3.12,1.902 9.96,3.352 20.53,4.316 9.58,0.469 15.83,1.321 18.72,2.52 2.88,1.191 4.31,3.965 4.31,8.281 0,4.317 -2.04,6.953 -6.12,7.918"
         style="fill:#f5f6f5;fill-opacity:1;fill-rule:nonzero;stroke:none"
         id="path24" /><path
         d="m 1437.77,603.816 c -5.76,-5.757 -30.86,-11.765 -75.25,-18.003 -44.39,-6.243 -85.8,-9.36 -124.2,-9.36 l -70.55,-0.723 -2.16,14.407 c -1.45,7.199 -3.6,11.511 -6.49,12.961 -3.36,0.957 -6.47,-5.039 -9.35,-18 -3.85,-16.328 -7.2,-31.934 -10.08,-46.805 -3.85,-18.723 -4.81,-29.516 -2.88,-32.395 2.88,-2.414 5.63,-2.773 8.28,-1.085 2.62,1.679 5.4,4.914 8.28,9.718 2.88,4.793 4.79,10.559 5.75,17.285 l 3.6,19.446 68.41,-0.727 c 45.59,-0.965 69.36,-2.156 71.27,-3.601 3.85,-2.403 0.48,-38.411 -10.08,-107.996 -5.76,-35.051 -11.04,-76.809 -15.84,-125.286 -2.87,-24.472 -4.92,-42.004 -6.11,-52.558 -1.21,-10.567 -3.24,-19.446 -6.12,-26.641 -2.88,-7.195 -5.76,-11.406 -8.64,-12.598 -2.89,-1.203 -7.68,-1.796 -14.4,-1.796 -10.57,0 -18.36,-2.051 -23.4,-6.121 -5.04,-4.083 -5.41,-8.762 -1.08,-14.043 3.35,-4.321 17.74,-7.559 43.19,-9.719 25.44,-2.156 44.16,-1.797 56.17,1.086 6.23,1.433 10.55,3.113 12.95,5.039 2.41,1.902 3.61,5.269 3.61,10.078 0,5.269 -1.09,8.641 -3.25,10.074 -2.15,1.438 -7.55,2.395 -16.2,2.883 -12.48,1.434 -19.92,3.113 -22.31,5.039 -4.33,4.316 1.19,59.512 16.55,165.598 6.72,44.644 11.04,82.8 12.97,114.48 l 2.87,47.52 48.24,7.922 c 33.13,5.757 51.85,7.918 56.17,6.484 3.83,-1.445 5.76,-6.606 5.76,-15.481 0,-8.886 -0.13,-17.531 -0.36,-25.925 -0.26,-8.403 1.07,-12.598 3.96,-12.598 5.27,0 9.72,15.23 13.32,45.723 3.59,30.476 2.99,47.156 -1.81,50.039 -2.88,1.433 -6.47,0 -10.79,-4.321"
         style="fill:#f5f6f5;fill-opacity:1;fill-rule:nonzero;stroke:none"
         id="path26" /><path
         d="m 1699.84,365.496 c -2.4,-2.41 -21.13,-2.516 -56.16,-0.359 -35.05,2.16 -52.56,4.676 -52.56,7.558 0,5.274 4.44,21.961 13.32,50.039 8.88,28.079 17.65,53.157 26.28,75.246 12.48,32.149 18.96,49.188 19.44,51.114 0.95,3.355 2.16,5.039 3.61,5.039 3.34,0.476 8.14,-9.848 14.39,-30.957 5.77,-21.125 11.27,-43.813 16.57,-68.039 5.27,-24.246 9.47,-44.895 12.59,-61.922 3.12,-17.043 3.97,-26.281 2.52,-27.719 z m 85.69,-154.805 c -7.21,0 -12.13,1.086 -14.77,3.247 -2.63,2.156 -5.4,7.078 -8.28,14.753 -4.32,9.602 -12.6,38.164 -24.84,85.684 -12.24,47.52 -22.68,90.957 -31.31,130.32 -8.65,37.91 -14.88,61.438 -18.73,70.559 -3.36,9.601 -6.48,20.398 -9.36,32.402 -1.92,7.676 -5.15,15.481 -9.72,23.399 -4.56,7.922 -8.28,11.883 -11.16,11.883 -2.4,0 -5.29,-1.922 -8.64,-5.758 -3.37,-3.852 -11.64,-23.164 -24.83,-57.961 -13.22,-34.817 -23.4,-63.723 -30.61,-86.77 -6.73,-22.078 -15.84,-49.312 -27.36,-81.719 -11.52,-32.39 -22.21,-61.199 -32.03,-86.394 -9.85,-25.203 -15.97,-39.238 -18.36,-42.117 -3.85,-4.328 -12.49,-6.489 -25.92,-6.489 -17.77,-0.964 -24.01,-5.515 -18.73,-13.679 4.79,-4.317 22.07,-8.164 51.84,-11.516 29.76,-3.367 46.32,-3.367 49.68,0 2.4,2.395 3.6,4.555 3.6,6.477 0,4.797 -8.4,8.398 -25.2,10.801 -13.92,2.402 -20.88,5.285 -20.88,8.64 0,2.395 2.76,11.527 8.28,27.363 5.51,15.84 11.76,32.395 18.72,49.68 6.96,17.274 12.12,29.27 15.48,35.996 6.23,11.992 10.8,18.723 13.68,20.164 3.35,2.395 22.55,1.797 57.6,-1.804 35.03,-3.594 55.2,-7.082 60.48,-10.442 5.76,-2.879 10.31,-11.043 13.68,-24.472 2.88,-12.008 7.92,-29.52 15.13,-52.567 7.19,-25.437 10.31,-40.437 9.35,-45 -0.96,-4.558 -7.92,-8.035 -20.87,-10.437 -14.89,-3.364 -21.86,-6.731 -20.88,-10.079 1.43,-3.363 19.79,-5.519 55.07,-6.476 35.28,-0.969 54.83,0.234 58.68,3.594 1.91,2.402 2.16,5.039 0.72,7.922 -4.81,7.207 -14.65,10.796 -29.51,10.796"
         style="fill:#f5f6f5;fill-opacity:1;fill-rule:nonzero;stroke:none"
         id="path28" /><path
         d="m 2111.68,285.574 c -3.85,1.438 -6.48,-8.64 -7.93,-30.242 -0.48,-10.078 -1.8,-17.039 -3.96,-20.879 -2.15,-3.848 -6.6,-8.164 -13.32,-12.961 -7.19,-4.804 -14.75,-7.801 -22.68,-9.004 -7.91,-1.199 -25.55,-1.797 -52.91,-1.797 -39.37,0 -65.29,1.914 -77.76,5.762 -19.69,5.277 -38.29,20.52 -55.81,45.727 -17.52,25.191 -27.95,51.472 -31.31,78.836 -7.69,61.433 8.39,113.269 48.24,155.515 9.59,10.559 18.23,19.192 25.92,25.918 7.67,6.723 15.35,12.121 23.04,16.203 7.67,4.075 15.12,6.953 22.32,8.645 7.19,1.68 15.36,2.516 24.48,2.516 20.16,0 34.07,-1.688 41.76,-5.04 10.54,-3.843 20.62,-10.203 30.23,-19.082 9.6,-8.882 14.41,-15.964 14.41,-21.238 0,-7.195 1.55,-10.801 4.67,-10.801 3.13,0 4.69,10.918 4.69,32.766 0,21.836 -1.56,32.762 -4.69,32.762 -3.12,0 -4.67,-3.606 -4.67,-10.801 0,-8.645 -1.44,-13.211 -4.33,-13.684 -2.87,-0.484 -8.63,2.883 -17.28,10.078 -7.19,6.235 -18.35,11.758 -33.47,16.567 -15.13,4.785 -28.69,6.953 -40.69,6.473 -5.28,0 -15.59,-2.403 -30.95,-7.2 -15.84,-5.758 -35.17,-19.922 -57.96,-42.476 -22.81,-22.571 -38.77,-43.449 -47.88,-62.641 -6.73,-14.402 -10.8,-25.808 -12.24,-34.195 -1.44,-8.41 -2.17,-26.047 -2.17,-52.922 0,-27.363 0.73,-45 2.17,-52.918 1.44,-7.922 6,-19.809 13.67,-35.648 9.6,-19.2 20.28,-35.758 32.04,-49.676 11.76,-13.926 23.16,-23.035 34.21,-27.364 10.55,-4.804 37.19,-8.398 79.92,-10.8 25.92,-1.438 44.15,-2.039 54.71,-1.797 10.56,0.234 19.69,1.797 27.37,4.679 17.28,6.231 27.83,9.598 31.68,10.079 2.88,0 4.31,-3.125 4.31,-9.36 0,-7.195 1.09,-11.883 3.24,-14.043 2.17,-2.156 5.4,-1.558 9.73,1.809 3.83,3.828 4.79,18.469 2.87,43.918 -2.87,36.953 -7.44,56.394 -13.67,58.316"
         style="fill:#f5f6f5;fill-opacity:1;fill-rule:nonzero;stroke:none"
         id="path30" /><path
         d="m 2442.15,603.816 c -5.76,-5.757 -30.84,-11.765 -75.24,-18.003 -44.4,-6.243 -85.8,-9.36 -124.2,-9.36 l -70.56,-0.723 -2.16,14.407 c -1.44,7.199 -3.6,11.511 -6.47,12.961 -3.37,0.957 -6.49,-5.039 -9.37,-18 -3.85,-16.328 -7.2,-31.934 -10.08,-46.805 -3.85,-18.723 -4.8,-29.516 -2.88,-32.395 2.88,-2.414 5.64,-2.773 8.28,-1.085 2.64,1.679 5.4,4.914 8.28,9.718 2.88,4.793 4.79,10.559 5.77,17.285 l 3.59,19.446 68.4,-0.727 c 45.6,-0.965 69.35,-2.156 71.29,-3.601 3.83,-2.403 0.47,-38.411 -10.08,-107.996 -5.76,-35.051 -11.06,-76.809 -15.85,-125.286 -2.88,-24.472 -4.93,-42.004 -6.12,-52.558 -1.2,-10.567 -3.24,-19.446 -6.12,-26.641 -2.88,-7.195 -5.76,-11.406 -8.64,-12.598 -2.88,-1.203 -7.69,-1.796 -14.4,-1.796 -10.56,0 -18.36,-2.051 -23.4,-6.121 -5.04,-4.083 -5.39,-8.762 -1.08,-14.043 3.35,-4.321 17.76,-7.559 43.21,-9.719 25.43,-2.156 44.15,-1.797 56.15,1.086 6.23,1.433 10.56,3.113 12.97,5.039 2.39,1.902 3.59,5.269 3.59,10.078 0,5.269 -1.07,8.641 -3.24,10.074 -2.16,1.438 -7.56,2.395 -16.19,2.883 -12.5,1.434 -19.93,3.113 -22.33,5.039 -4.31,4.316 1.19,59.512 16.57,165.598 6.71,44.644 11.03,82.8 12.95,114.48 l 2.89,47.52 48.24,7.922 c 33.11,5.757 51.83,7.918 56.15,6.484 3.84,-1.445 5.76,-6.606 5.76,-15.481 0,-8.886 -0.12,-17.531 -0.36,-25.925 -0.24,-8.403 1.08,-12.598 3.96,-12.598 5.28,0 9.72,15.23 13.32,45.723 3.6,30.476 2.99,47.156 -1.8,50.039 -2.87,1.433 -6.49,0 -10.8,-4.321"
         style="fill:#f5f6f5;fill-opacity:1;fill-rule:nonzero;stroke:none"
         id="path32" /></g></g></svg>
