<?xml version="1.0" encoding="UTF-8" standalone="no"?>
<svg
   xmlns:dc="http://purl.org/dc/elements/1.1/"
   xmlns:cc="http://creativecommons.org/ns#"
   xmlns:rdf="http://www.w3.org/1999/02/22-rdf-syntax-ns#"
   xmlns:svg="http://www.w3.org/2000/svg"
   xmlns="http://www.w3.org/2000/svg"
   xmlns:sodipodi="http://sodipodi.sourceforge.net/DTD/sodipodi-0.dtd"
   xmlns:inkscape="http://www.inkscape.org/namespaces/inkscape"
   version="1.1"
   id="svg2"
   xml:space="preserve"
   width="349.33334"
   height="208.66667"
   viewBox="0 0 349.33334 208.66667"
   sodipodi:docname="currentsale1.eps"><metadata
     id="metadata8"><rdf:RDF><cc:Work
         rdf:about=""><dc:format>image/svg+xml</dc:format><dc:type
           rdf:resource="http://purl.org/dc/dcmitype/StillImage" /></cc:Work></rdf:RDF></metadata><defs
     id="defs6" /><sodipodi:namedview
     pagecolor="#ffffff"
     bordercolor="#666666"
     borderopacity="1"
     objecttolerance="10"
     gridtolerance="10"
     guidetolerance="10"
     inkscape:pageopacity="0"
     inkscape:pageshadow="2"
     inkscape:window-width="640"
     inkscape:window-height="480"
     id="namedview4" /><g
     id="g10"
     inkscape:groupmode="layer"
     inkscape:label="ink_ext_XXXXXX"
     transform="matrix(1.3333333,0,0,-1.3333333,0,208.66667)"><g
       id="g12"
       transform="scale(0.1)"><path
         d="m 1060.49,1262.62 c 2.89,4.31 4.32,12.24 4.32,23.76 0,7.66 -1.32,14.03 -3.95,19.08 -2.66,5.04 -8.77,12.11 -18.36,21.24 -16.33,15.84 -35.77,27.59 -58.32,35.27 -22.578,7.68 -46.809,8.64 -72.727,2.89 l -13.68,-2.89 -3.593,-44.63 c -2.41,-28.8 -5.762,-54.72 -10.086,-77.77 -4.321,-20.63 -4.934,-33.36 -1.797,-38.15 3.113,-4.81 13.555,-6.49 31.316,-5.04 19.68,1.91 34.793,4.31 45.364,7.19 9.597,2.4 28.191,11.53 55.803,27.37 27.58,15.84 42.84,26.38 45.71,31.68"
         style="fill:#100f0d;fill-opacity:1;fill-rule:nonzero;stroke:none"
         id="path14" /><path
         d="m 1393.13,1262.62 c 2.88,4.31 4.31,12.24 4.31,23.76 0,7.66 -1.33,14.03 -3.95,19.08 -2.65,5.04 -8.76,12.11 -18.36,21.24 -16.32,15.84 -35.77,27.59 -58.32,35.27 -22.57,7.68 -46.81,8.64 -72.73,2.89 l -13.67,-2.89 -3.6,-44.63 c -2.42,-28.8 -5.77,-54.72 -10.09,-77.77 -4.32,-20.63 -4.92,-33.36 -1.8,-38.15 3.13,-4.81 13.56,-6.49 31.33,-5.04 19.67,1.91 34.79,4.31 45.35,7.19 9.6,2.4 28.2,11.53 55.8,27.37 27.6,15.84 42.84,26.38 45.73,31.68"
         style="fill:#100f0d;fill-opacity:1;fill-rule:nonzero;stroke:none"
         id="path16" /><path
         d="m 2492.19,1368.1 c -3.6,-30.49 -8.04,-45.72 -13.32,-45.72 -2.87,0 -4.2,4.19 -3.96,12.59 0.25,8.4 0.36,17.04 0.36,25.93 0,8.87 -1.92,14.03 -5.76,15.48 -4.31,1.43 -23.04,-0.73 -56.15,-6.49 l -48.24,-7.92 -2.89,-47.52 c -1.92,-31.68 -6.23,-69.83 -12.95,-114.48 -15.37,-106.08 -20.88,-161.28 -16.57,-165.59 2.4,-1.93 9.83,-3.61 22.33,-5.04 8.63,-0.49 14.03,-1.45 16.19,-2.88 2.17,-1.44 3.24,-4.81 3.24,-10.08 0,-4.81 -1.2,-8.18 -3.59,-10.08 -2.41,-1.92 -6.74,-3.6 -12.97,-5.04 -12,-2.881 -30.72,-3.24 -56.15,-1.08 -25.45,2.16 -39.86,5.39 -43.21,9.71 -4.31,5.29 -3.96,9.97 1.08,14.05 5.04,4.07 12.84,6.12 23.4,6.12 6.72,0 11.52,0.59 14.4,1.8 2.88,1.19 5.76,5.4 8.64,12.59 2.89,7.2 4.93,16.08 6.12,26.64 1.19,10.56 3.24,28.09 6.12,52.56 4.8,48.48 10.09,90.24 15.85,125.29 10.55,69.58 13.91,105.59 10.08,107.99 -1.94,1.45 -25.69,2.64 -71.29,3.61 l -68.4,0.72 -3.59,-19.44 c -0.98,-6.73 -2.89,-12.5 -5.76,-17.29 -2.89,-4.8 -5.65,-8.04 -8.29,-9.72 -2.64,-1.68 -5.4,-1.33 -8.28,1.09 -1.92,2.88 -0.96,13.67 2.88,32.39 2.88,14.87 6.23,30.48 10.08,46.81 2.88,12.96 6,18.95 9.37,18 2.87,-1.45 5.04,-5.76 6.47,-12.96 l 2.16,-14.41 70.57,0.72 c 38.39,0 79.79,3.12 124.2,9.36 44.39,6.24 69.47,12.25 75.23,18.01 4.32,4.32 7.93,5.75 10.8,4.32 4.8,-2.89 5.4,-19.57 1.8,-50.04 z m -332.27,-18.72 c -2.89,-1.2 -9.13,-2.06 -18.73,-2.52 -10.56,-0.97 -17.4,-2.42 -20.52,-4.32 -3.12,-1.93 -6.36,-6.73 -9.71,-14.4 -5.3,-12.01 -10.33,-31.93 -15.12,-59.76 -2.41,-11.52 -9.49,-39.49 -21.25,-83.89 -11.76,-44.4 -18.84,-76.92 -21.23,-97.56 -2.41,-16.8 -4.22,-29.29 -5.41,-37.44 -1.19,-8.16 -2.4,-15.11 -3.59,-20.88 -1.22,-5.76 -2.41,-9.25 -3.6,-10.43 -1.21,-1.21 -2.77,-1.8 -4.69,-1.8 -2.4,0 -4.44,0.72 -6.11,2.16 -1.7,1.43 -3.96,5.5 -6.84,12.23 -2.89,6.72 -6.13,15.13 -9.72,25.21 -3.61,10.07 -9.01,25.44 -16.21,46.07 -6.23,19.2 -15.24,44.65 -26.99,76.33 -11.77,31.68 -22.81,60.58 -33.13,86.76 -10.32,26.15 -16.68,41.63 -19.08,46.43 -5.75,10.56 -10.08,7.92 -12.95,-7.92 -1.93,-9.61 -3.85,-26.16 -5.76,-49.67 -3.36,-44.64 -9.36,-92.41 -18.01,-143.29 -7.68,-51.37 -10.68,-79.32 -8.99,-83.87 1.67,-4.57 9.22,-5.89 22.68,-3.97 16.8,2.4 25.43,0.72 25.92,-5.04 0.47,-2.88 -1.69,-6 -6.49,-9.35 -5.29,-3.85 -19.19,-6.01 -41.75,-6.49 -22.57,-0.48 -38.41,1.19 -47.52,5.04 -9.12,3.36 -11.77,6.95 -7.93,10.8 2.89,1.92 7.93,2.88 15.12,2.88 8.65,0 14.41,2.16 17.28,6.49 3.36,5.76 9.84,42.95 19.44,111.6 9.6,68.63 14.64,113.51 15.13,134.64 v 43.19 l -15.13,1.45 c -10.55,0.96 -15.84,3.83 -15.84,8.64 0,4.78 11.76,8.39 35.29,10.79 20.15,1.91 32.98,1.55 38.51,-1.07 5.51,-2.65 10.2,-10.93 14.05,-24.85 3.34,-13.93 11.75,-35.27 25.19,-64.08 14.4,-33.11 27.83,-68.15 40.32,-105.11 12.96,-40.33 20.89,-60.49 23.76,-60.49 2.88,0 5.04,6 6.49,18 0.47,2.41 7.3,32.28 20.51,89.64 13.2,57.36 19.8,89.16 19.8,95.4 0,7.68 2.17,18.72 6.48,33.13 4.32,11.51 5.51,18.83 3.6,21.96 -1.92,3.12 -8.4,5.39 -19.44,6.84 -11.04,0.95 -17.04,4.07 -17.99,9.35 -0.48,1.92 -0.25,3.48 0.71,4.69 0.96,1.19 2.89,2.16 5.76,2.88 2.89,0.71 6.95,1.31 12.25,1.79 11.03,0.96 30.23,1.44 57.59,1.44 17.29,0 27.96,-0.48 32.05,-1.44 4.07,-0.96 6.12,-3.6 6.12,-7.91 0,-4.32 -1.45,-7.09 -4.32,-8.28 z m -357.83,-15.49 c 0,-12.95 -0.49,-21.72 -1.45,-26.27 -0.97,-4.57 -2.64,-6.85 -5.03,-6.85 -5.3,0 -8.65,7.21 -10.08,21.61 l -2.17,20.87 -72.72,-0.71 c -47.51,-0.49 -86.65,-3.14 -117.36,-7.92 -24.47,-4.33 -52.56,-6.85 -84.24,-7.57 -31.68,-0.71 -48.48,0.59 -50.4,3.97 -2.41,3.84 0.72,6.95 9.37,9.35 8.63,1.92 26.64,3.84 53.99,5.76 35.03,2.41 60.95,5.29 77.77,8.64 10.07,2.89 40.68,5.87 91.79,9.01 51.12,3.11 83.4,4.19 96.84,3.23 h 13.69 z m -30.25,-315.35 c -3.36,-3.85 -24.01,-6.73 -61.92,-8.65 -105.12,-5.76 -169.45,-10.796 -192.96,-15.117 -12,-1.921 -18,-1.199 -18,2.161 0.47,3.346 6,8.156 16.57,14.406 l 16.56,9.35 v 148.33 c 0,98.87 1.19,148.32 3.59,148.32 4.79,0 9.11,-30.96 12.96,-92.89 2.4,-35.52 5.52,-54.24 9.37,-56.16 4.78,-1.43 18.23,1.44 40.31,8.64 16.8,5.28 26.88,9.24 30.24,11.89 3.35,2.63 5.52,7.79 6.48,15.48 1.44,11.03 4.56,16.56 9.36,16.56 3.35,0 6.71,-4.57 10.08,-13.68 3.35,-9.13 5.04,-18.72 5.04,-28.8 0,-3.85 1.68,-16.09 5.04,-36.73 2.88,-18.24 2.64,-29.27 -0.71,-33.11 -6.25,-5.77 -12.01,-1.2 -17.29,13.68 -1.92,5.76 -3.59,12.23 -5.04,19.43 l -2.88,21.6 -19.44,-3.59 c -11.05,-2.41 -25.2,-4.57 -42.48,-6.48 l -23.75,-2.89 v -126.72 l 33.11,1.45 c 15.84,0.47 48.71,2.62 98.65,6.47 l 65.51,5.77 v 30.95 c 0,12 0.47,20.04 1.44,24.13 0.96,4.07 2.88,6.12 5.76,6.12 4.8,0 9.24,-12.25 13.32,-36.72 4.07,-24.48 4.44,-38.89 1.08,-43.2 z m -353.52,-20.161 c -9.12,-1.926 -21.6,-3.848 -37.44,-5.762 -36,-3.847 -56.41,-4.804 -61.19,-2.883 -4.32,1.914 -6.49,5.508 -6.49,10.806 0,5.27 2.17,9.59 6.49,12.96 2.88,2.39 4.2,6.12 3.96,11.16 -0.25,5.04 -2.52,16.43 -6.84,34.2 -6.73,28.31 -12.01,54.95 -15.84,79.92 -0.97,7.67 -1.93,14.03 -2.88,19.07 -0.97,5.04 -1.93,9.01 -2.88,11.88 -0.97,2.89 -1.93,4.8 -2.89,5.77 -0.96,0.96 -2.15,1.43 -3.59,1.43 -2.41,-0.96 -17.77,-2.4 -46.08,-4.31 -12.49,-0.97 -21.13,-1.69 -25.93,-2.16 -4.8,-0.49 -8.27,-1.44 -10.43,-2.88 -2.17,-1.45 -3.5,-3.85 -3.97,-7.21 -12,-67.67 -18.47,-107.04 -19.43,-118.07 0,-2.89 10.8,-5.29 32.4,-7.2 23.03,-1.45 34.55,-4.81 34.55,-10.08 0,-2.88 -3.36,-6.48 -10.07,-10.8 -4.81,-3.85 -10.57,-5.89 -17.29,-6.12 -6.72,-0.25 -19.92,0.83 -39.59,3.24 -22.09,2.39 -37.57,5.14 -46.44,8.28 -8.89,3.11 -12.37,7.31 -10.44,12.6 0.95,3.35 6.71,5.99 17.27,7.92 7.68,0.95 12.48,2.52 14.41,4.67 1.91,2.16 3.6,7.57 5.03,16.21 0.48,2.87 1.92,10.44 4.33,22.67 2.39,12.25 4.67,24.12 6.84,35.65 2.15,11.52 3.83,23.27 5.04,35.28 1.19,11.99 1.31,20.39 0.36,25.19 -1.44,9.12 -0.25,16.8 3.6,23.04 3.35,5.29 8.52,24.36 15.47,57.25 6.95,32.87 10.92,57.47 11.88,73.79 l 1.44,23.77 -19.43,1.43 c -21.14,1.45 -30.96,4.07 -29.53,7.92 1.44,4.8 18.73,10.33 51.85,16.56 40.78,7.68 74.88,8.75 102.24,3.25 27.35,-5.53 52.56,-18.62 75.59,-39.24 22.07,-19.69 33.13,-41.05 33.13,-64.08 0,-13.93 -4.08,-25.81 -12.25,-35.65 -8.16,-9.84 -23.75,-21.24 -46.8,-34.2 -27.84,-16.31 -43.68,-26.16 -47.52,-29.52 -2.88,-2.4 -3.12,-10.32 -0.72,-23.76 2.4,-13.44 10.08,-47.27 23.05,-101.51 4.32,-18.72 8.63,-29.65 12.96,-32.77 4.31,-3.12 16.79,-3.95 37.43,-2.52 23.52,2.4 38.63,0.96 45.37,-4.31 12.47,-9.13 6.23,-16.1 -18.73,-20.881 z m -332.63,0 c -9.12,-1.926 -21.6,-3.848 -37.44,-5.762 -35.99,-3.847 -56.402,-4.804 -61.199,-2.883 -4.317,1.914 -6.477,5.508 -6.477,10.806 0,5.27 2.16,9.59 6.477,12.96 2.89,2.39 4.199,6.12 3.965,11.16 -0.254,5.04 -2.52,16.43 -6.836,34.2 -6.739,28.31 -12.012,54.95 -15.84,79.92 -0.977,7.67 -1.934,14.03 -2.891,19.07 -0.957,5.04 -1.914,9.01 -2.871,11.88 -0.976,2.89 -1.933,4.8 -2.89,5.77 -0.958,0.96 -2.149,1.43 -3.594,1.43 -2.403,-0.96 -17.766,-2.4 -46.074,-4.31 -12.5,-0.97 -21.133,-1.69 -25.926,-2.16 -4.797,-0.49 -8.274,-1.44 -10.442,-2.88 -2.16,-1.45 -3.484,-3.85 -3.964,-7.21 -11.993,-67.67 -18.477,-107.04 -19.434,-118.07 0,-2.89 10.801,-5.29 32.402,-7.2 23.035,-1.45 34.551,-4.81 34.551,-10.08 0,-2.88 -3.359,-6.48 -10.078,-10.8 -4.805,-3.85 -10.559,-5.89 -17.274,-6.12 -6.73,-0.25 -19.921,0.83 -39.601,3.24 -22.09,2.39 -37.559,5.14 -46.445,8.28 -8.887,3.11 -12.364,7.31 -10.43,12.6 0.957,3.35 6.719,5.99 17.273,7.92 7.668,0.95 12.473,2.52 14.407,4.67 1.914,2.16 3.593,7.57 5.039,16.21 0.468,2.87 1.914,10.44 4.316,22.67 2.402,12.25 4.68,24.12 6.836,35.65 2.168,11.52 3.848,23.27 5.039,35.28 1.191,11.99 1.328,20.39 0.371,25.19 -1.445,9.12 -0.254,16.8 3.594,23.04 3.359,5.29 8.516,24.36 15.476,57.25 6.958,32.87 10.911,57.47 11.887,73.79 l 1.438,23.77 -19.446,1.43 c -21.125,1.45 -30.957,4.07 -29.511,7.92 1.433,4.8 18.711,10.33 51.836,16.56 40.793,7.68 74.882,8.75 102.246,3.25 27.35,-5.53 52.56,-18.62 75.6,-39.24 22.07,-19.69 33.11,-41.05 33.11,-64.08 0,-13.93 -4.08,-25.81 -12.24,-35.65 -8.17,-9.84 -23.76,-21.24 -46.8,-34.2 -27.83,-16.31 -43.674,-26.16 -47.522,-29.52 -2.871,-2.4 -3.125,-10.32 -0.715,-23.76 2.395,-13.44 10.078,-47.27 23.037,-101.51 4.32,-18.72 8.64,-29.65 12.97,-32.77 4.32,-3.12 16.79,-3.95 37.43,-2.52 23.52,2.4 38.64,0.96 45.36,-4.31 12.48,-9.13 6.23,-16.1 -18.72,-20.881 z M 757.383,1338.94 c -4.317,-0.97 -8.887,-1.69 -13.672,-2.16 l -24.492,-2.89 v -79.91 c -0.481,-47.05 -2.52,-81.49 -6.114,-103.33 -3.593,-21.84 -10.683,-43.8 -21.242,-65.88 -15.359,-32.16 -30.242,-52.91 -44.636,-62.28 -14.395,-9.35 -35.039,-11.64 -61.922,-6.84 -20.637,3.84 -34.328,8.16 -41.035,12.96 -8.176,4.8 -19.082,21.84 -32.766,51.12 -13.672,29.27 -21.719,52.57 -24.121,69.84 -5.281,34.56 -1.438,83.04 11.523,145.45 4.785,24.95 6.231,38.39 4.317,40.31 -2.403,2.4 -13.926,3.61 -34.551,3.61 -12.5,0 -20.891,0.36 -25.203,1.08 -4.328,0.71 -6.477,2.52 -6.477,5.39 0,4.79 18.711,9.83 56.153,15.13 35.515,4.79 58.679,7.43 69.484,7.92 10.789,0.47 18.113,-1.2 21.961,-5.04 6.719,-6.73 4.062,-11.77 -7.93,-15.13 l -19.433,-2.88 c -19.2,0 -30.723,-5.52 -34.559,-16.55 -3.852,-11.06 -7.453,-49.45 -10.805,-115.21 -1.922,-31.68 -1.328,-55.55 1.809,-71.64 3.105,-16.08 10.664,-36.36 22.676,-60.84 8.156,-15.84 16.672,-26.64 25.554,-32.39 8.879,-5.76 21.477,-8.64 37.805,-8.64 17.285,0 28.801,0.72 34.563,2.16 4.793,1.91 11.992,10.67 21.589,26.27 9.602,15.6 17.403,31.08 23.411,46.45 5.996,15.35 10.789,43.08 14.402,83.16 3.594,40.07 4.187,73.31 1.797,99.71 l -2.891,33.85 H 674.59 c -16.328,0 -24.016,3.12 -23.047,9.35 0,1.92 0.957,3.61 2.883,5.04 3.836,3.84 22.683,7.68 56.519,11.53 33.84,3.83 53.157,4.55 57.961,2.15 16.797,-9.12 12.957,-16.08 -11.523,-20.87 z M 418.984,993.34 c -4.316,-3.367 -7.558,-3.965 -9.714,-1.809 -2.161,2.16 -3.235,6.848 -3.235,14.039 0,6.24 -1.445,9.36 -4.324,9.36 -3.852,-0.48 -14.406,-3.84 -31.684,-10.07 -7.683,-2.89 -16.804,-4.45 -27.351,-4.68 -10.567,-0.246 -28.809,0.36 -54.727,1.79 -42.722,2.41 -69.363,6 -79.918,10.8 -11.051,4.33 -22.445,13.44 -34.203,27.37 -11.765,13.91 -22.441,30.47 -32.035,49.67 -7.688,15.84 -12.242,27.73 -13.684,35.65 -1.437,7.92 -2.156,25.56 -2.156,52.92 0,26.87 0.719,44.51 2.156,52.92 1.442,8.39 5.512,19.79 12.243,34.2 9.113,19.19 25.074,40.07 47.878,62.64 22.79,22.55 42.122,36.72 57.961,42.47 15.352,4.8 25.664,7.2 30.957,7.2 11.993,0.48 25.567,-1.68 40.684,-6.47 15.117,-4.81 26.277,-10.33 33.477,-16.57 8.64,-7.19 14.394,-10.56 17.285,-10.07 2.871,0.47 4.316,5.03 4.316,13.68 0,7.19 1.555,10.8 4.68,10.8 3.113,0 4.676,-10.93 4.676,-32.76 0,-21.85 -1.563,-32.77 -4.676,-32.77 -3.125,0 -4.68,3.61 -4.68,10.8 0,5.28 -4.805,12.36 -14.394,21.24 -9.61,8.88 -19.688,15.24 -30.246,19.08 -7.684,3.36 -21.598,5.04 -41.766,5.04 -9.121,0 -17.274,-0.83 -24.473,-2.51 -7.207,-1.69 -14.648,-4.57 -22.324,-8.65 -7.676,-4.08 -15.367,-9.48 -23.035,-16.2 -7.688,-6.73 -16.324,-15.36 -25.918,-25.92 -39.852,-42.24 -55.93,-94.08 -48.242,-155.51 3.351,-27.37 13.793,-53.64 31.316,-78.84 17.52,-25.21 36.113,-40.45 55.801,-45.72 12.48,-3.85 38.398,-5.77 77.754,-5.77 27.363,0 45,0.6 52.93,1.8 7.917,1.2 15.48,4.2 22.675,9 6.719,4.8 11.16,9.12 13.321,12.96 2.168,3.84 3.476,10.8 3.964,20.88 1.438,21.6 4.063,31.68 7.911,30.24 6.242,-1.92 10.8,-21.36 13.691,-58.31 1.914,-25.45 0.957,-40.092 -2.891,-43.92 z M 0,1565 V 810 h 2620 v 755 H 0"
         style="fill:#100f0d;fill-opacity:1;fill-rule:nonzero;stroke:none"
         id="path18" /><path
         d="m 702.156,234.09 c 4.074,19.91 8.032,35.398 11.875,46.449 3.84,9.59 7.68,11.512 11.528,5.762 1.433,-3.371 2.156,-8.18 2.156,-14.41 0,-8.161 2.156,-16.68 6.484,-25.551 4.317,-8.891 9.59,-16.199 15.84,-21.969 5.754,-5.281 20.625,-9.121 44.641,-11.519 20.156,-1.922 35.269,-0.973 45.359,2.878 10.078,3.84 21.836,12.961 35.274,27.372 10.554,11.988 17.031,22.668 19.445,32.039 2.39,9.347 2.879,24.589 1.433,45.718 -1.433,15.352 -3.125,25.661 -5.039,30.961 -1.922,5.27 -6.726,11.27 -14.394,17.989 -11.524,10.082 -21.848,15.121 -30.965,15.121 -12.48,0 -26.398,2.172 -41.762,6.492 -15.359,4.308 -26.16,9.109 -32.39,14.387 -5.293,4.332 -8.77,9.242 -10.45,14.769 -1.679,5.504 -3,15.942 -3.957,31.313 -0.964,24.961 0.239,42.238 3.606,51.839 3.828,12.481 13.672,25.668 29.512,39.61 15.839,13.922 33.125,23.398 51.843,28.437 18.723,5.039 35.754,0.828 51.125,-12.597 8.633,-8.641 14.395,-13.09 17.278,-13.321 2.879,-0.25 5.996,3.481 9.351,11.153 2.883,6.718 6.125,9.726 9.731,9.004 3.59,-0.723 5.398,-4.676 5.398,-11.887 0,-3.848 -2.156,-11.41 -6.484,-22.668 -4.317,-11.281 -9.61,-23.301 -15.84,-36 -6.238,-12.731 -11.77,-22.449 -16.563,-29.16 -7.675,-11.52 -14.16,-16.563 -19.433,-15.129 -1.922,0 -2.879,1.449 -2.879,4.328 0,3.352 3.836,12.961 11.519,28.801 6.711,12.961 9.954,22.668 9.719,29.16 -0.246,6.469 -4.441,14.508 -12.597,24.121 -8.641,11.508 -22.93,14.508 -42.84,8.988 -19.922,-5.519 -35.891,-16.679 -47.883,-33.468 -4.805,-7.692 -8.047,-14.653 -9.719,-20.883 -1.687,-6.25 -2.515,-16.571 -2.515,-30.957 0,-15.371 0.593,-25.211 1.792,-29.524 1.196,-4.328 4.438,-8.179 9.719,-11.527 7.196,-4.801 21.836,-8.402 43.926,-10.801 22.07,-2.398 38.879,-7.922 50.398,-16.558 8.633,-6.731 14.993,-13.321 19.075,-19.793 4.074,-6.489 7.082,-14.52 9.004,-24.118 1.914,-9.613 3.117,-23.531 3.601,-41.761 l 1.438,-46.809 -17.996,-21.59 C 890.438,225.332 878.191,213.57 863.801,203.5 c -9.133,-6.238 -16.567,-10.078 -22.324,-11.531 -5.762,-1.43 -16.321,-1.918 -31.68,-1.43 -38.41,0.473 -63.359,7.191 -74.887,20.152 -5.75,6.231 -10.074,9.239 -12.957,9.008 -2.883,-0.258 -5.515,-3.969 -7.922,-11.16 -2.398,-5.769 -5.039,-9.359 -7.918,-10.809 -2.883,-1.429 -5.515,-0.242 -7.922,3.61 -1.433,1.91 -0.117,12.832 3.965,32.75 z M 972.52,215.73 c 13.425,0 22.07,2.161 25.918,6.489 2.392,2.883 8.512,16.91 18.362,42.121 9.83,25.191 20.51,54 32.04,86.39 11.51,32.399 20.62,59.641 27.35,81.719 7.21,23.051 17.39,51.949 30.61,86.77 13.19,34.793 21.47,54.109 24.83,57.961 3.36,3.836 6.24,5.758 8.64,5.758 2.88,0 6.6,-3.961 11.17,-11.883 4.56,-7.926 7.79,-15.727 9.71,-23.395 2.88,-12.012 6,-22.808 9.37,-32.41 3.84,-9.121 10.08,-32.641 18.72,-70.551 8.63,-39.371 19.07,-82.808 31.32,-130.328 12.23,-47.512 20.51,-76.082 24.83,-85.68 2.88,-7.671 5.65,-12.601 8.28,-14.75 2.64,-2.16 7.56,-3.25 14.77,-3.25 14.87,0 24.71,-3.589 29.52,-10.8 1.43,-2.879 1.19,-5.52 -0.72,-7.922 -3.85,-3.36 -23.4,-4.559 -58.69,-3.59 -35.28,0.961 -53.64,3.109 -55.07,6.473 -0.97,3.347 5.99,6.718 20.88,10.078 12.95,2.402 19.91,5.879 20.87,10.441 0.96,4.559 -2.15,19.559 -9.35,45 -7.21,23.051 -12.25,40.559 -15.13,52.57 -3.36,13.43 -7.92,21.59 -13.68,24.469 -5.28,3.36 -25.44,6.852 -60.48,10.442 -35.04,3.609 -54.25,4.199 -57.6,1.808 -2.88,-1.449 -7.45,-8.18 -13.68,-20.172 -3.36,-6.726 -8.52,-18.718 -15.48,-35.988 -6.96,-17.289 -13.2,-33.84 -18.72,-49.68 -5.51,-15.84 -8.28,-24.968 -8.28,-27.359 0,-3.359 6.96,-6.25 20.88,-8.652 16.8,-2.399 25.21,-6 25.21,-10.797 0,-1.922 -1.21,-4.082 -3.61,-6.473 -3.36,-3.367 -19.92,-3.367 -49.68,0 -29.763,3.352 -47.044,7.191 -51.829,11.512 -5.293,8.16 0.957,12.719 18.719,13.679 z m 347.75,-7.921 c 4.32,1.453 12,3.363 23.04,5.761 l 26.64,4.321 2.88,44.648 c 1.92,28.313 4.55,52.789 7.92,73.441 2.88,16.309 5.51,56.391 7.92,120.231 l 2.88,92.168 -20.16,4.32 c -13.44,2.879 -20.16,6.59 -20.16,11.16 0,4.547 11.76,7.789 35.28,9.715 34.55,2.879 57.35,4.071 68.4,3.606 11.04,-0.492 18,-2.649 20.88,-6.489 8.16,-9.121 1.92,-15.363 -18.72,-18.722 -4.8,-0.957 -10.8,-1.688 -18,-2.16 l -30.96,-2.149 -2.89,-108.719 c -2.87,-77.293 -5.28,-129.851 -7.19,-157.679 -1.93,-33.614 -1.69,-50.891 0.72,-51.852 2.39,-1.43 27.36,-1.199 74.88,0.731 l 70.56,2.148 2.16,39.602 c 0.95,15.839 2.16,26.519 3.6,32.05 1.44,5.5 3.48,8.278 6.11,8.278 2.64,0 4.44,-3.367 5.4,-10.078 0.96,-6.731 1.45,-20.653 1.45,-41.77 v -51.832 l -74.16,-2.891 c -48.96,-2.398 -84.49,-6 -106.56,-10.796 -37.44,-8.641 -59.52,-8.883 -66.24,-0.723 -5.29,6.242 -3.85,10.801 4.32,13.68 z m 266.39,322.562 c 8.63,1.918 26.64,3.84 53.99,5.758 35.04,2.41 60.96,5.293 77.77,8.652 10.08,2.879 40.68,5.86 91.79,9 51.13,3.11 83.4,4.188 96.85,3.231 h 13.68 v -33.114 c 0,-12.957 -0.49,-21.726 -1.44,-26.277 -0.97,-4.57 -2.65,-6.851 -5.04,-6.851 -5.29,0 -8.64,7.21 -10.08,21.601 l -2.16,20.879 -72.72,-0.711 c -47.52,-0.488 -86.65,-3.141 -117.37,-7.918 -24.47,-4.332 -52.55,-6.851 -84.23,-7.57 -31.68,-0.711 -48.49,0.597 -50.41,3.969 -2.4,3.832 0.73,6.949 9.37,9.351 z M 1890.5,208.539 c -3.37,-3.848 -24.01,-6.73 -61.93,-8.648 -105.11,-5.762 -169.44,-10.801 -192.95,-15.11 -12.01,-1.929 -18,-1.211 -18,2.149 0.47,3.351 5.99,8.16 16.56,14.41 l 16.56,9.351 v 148.321 c 0,98.879 1.19,148.32 3.6,148.32 4.79,0 9.11,-30.953 12.95,-92.883 2.41,-35.519 5.52,-54.238 9.37,-56.16 4.79,-1.43 18.23,1.449 40.31,8.641 16.8,5.281 26.89,9.242 30.25,11.89 3.35,2.629 5.51,7.789 6.48,15.481 1.44,11.027 4.55,16.558 9.36,16.558 3.35,0 6.72,-4.57 10.07,-13.679 3.36,-9.129 5.04,-18.719 5.04,-28.801 0,-3.848 1.68,-16.09 5.04,-36.731 2.88,-18.238 2.64,-29.277 -0.71,-33.109 -6.25,-5.769 -12,-1.207 -17.29,13.68 -1.92,5.761 -3.59,12.23 -5.03,19.429 l -2.89,21.602 -19.43,-3.59 c -11.05,-2.41 -25.2,-4.57 -42.48,-6.488 l -23.76,-2.883 V 213.57 l 33.12,1.45 c 15.84,0.468 48.71,2.628 98.64,6.468 l 65.52,5.774 v 30.949 c 0,12 0.47,20.039 1.44,24.121 0.95,4.078 2.87,6.129 5.75,6.129 4.8,0 9.24,-12.25 13.32,-36.723 4.08,-24.476 4.44,-38.886 1.09,-43.199 z M 560,0 H 2080 V 755 H 560 V 0"
         style="fill:#100f0d;fill-opacity:1;fill-rule:nonzero;stroke:none"
         id="path20" /><path
         d="m 1126.59,365.141 c 35.04,-2.161 53.76,-2.051 56.16,0.359 1.45,1.43 0.6,10.672 -2.52,27.711 -3.12,17.027 -7.32,37.68 -12.59,61.93 -5.3,24.23 -10.8,46.91 -16.57,68.031 -6.24,21.117 -11.04,31.437 -14.39,30.957 -1.45,0 -2.65,-1.68 -3.6,-5.039 -0.49,-1.918 -6.97,-18.961 -19.45,-51.11 -8.63,-22.089 -17.4,-47.171 -26.28,-75.25 -8.88,-28.07 -13.32,-44.761 -13.32,-50.031 0,-2.89 17.52,-5.41 52.56,-7.558"
         style="fill:#100f0d;fill-opacity:1;fill-rule:nonzero;stroke:none"
         id="path22" /><path
         d="m 408.184,1095.57 c -3.848,1.44 -6.473,-8.64 -7.911,-30.24 -0.488,-10.08 -1.796,-17.04 -3.964,-20.88 -2.161,-3.84 -6.602,-8.16 -13.321,-12.96 -7.195,-4.8 -14.758,-7.8 -22.675,-9 -7.93,-1.2 -25.567,-1.8 -52.93,-1.8 -39.356,0 -65.274,1.92 -77.754,5.77 -19.688,5.27 -38.281,20.51 -55.801,45.72 -17.523,25.2 -27.965,51.47 -31.316,78.84 -7.688,61.43 8.39,113.27 48.242,155.51 9.594,10.56 18.23,19.19 25.918,25.92 7.668,6.72 15.359,12.12 23.035,16.2 7.676,4.08 15.117,6.96 22.324,8.65 7.199,1.68 15.352,2.51 24.473,2.51 20.168,0 34.082,-1.68 41.766,-5.04 10.558,-3.84 20.636,-10.2 30.246,-19.08 9.589,-8.88 14.394,-15.96 14.394,-21.24 0,-7.19 1.555,-10.8 4.68,-10.8 3.113,0 4.676,10.92 4.676,32.77 0,21.83 -1.563,32.76 -4.676,32.76 -3.125,0 -4.68,-3.61 -4.68,-10.8 0,-8.65 -1.445,-13.21 -4.316,-13.68 -2.891,-0.49 -8.645,2.88 -17.285,10.07 -7.2,6.24 -18.36,11.76 -33.477,16.57 -15.117,4.79 -28.691,6.95 -40.684,6.47 -5.293,0 -15.605,-2.4 -30.957,-7.2 -15.839,-5.75 -35.171,-19.92 -57.961,-42.47 -22.804,-22.57 -38.765,-43.45 -47.878,-62.64 -6.731,-14.41 -10.801,-25.81 -12.243,-34.2 -1.437,-8.41 -2.156,-26.05 -2.156,-52.92 0,-27.36 0.719,-45 2.156,-52.92 1.442,-7.92 5.996,-19.81 13.684,-35.65 9.594,-19.2 20.27,-35.76 32.035,-49.67 11.758,-13.93 23.152,-23.04 34.203,-27.37 10.555,-4.8 37.196,-8.39 79.918,-10.8 25.918,-1.43 44.16,-2.036 54.727,-1.79 10.547,0.23 19.668,1.79 27.351,4.68 17.278,6.23 27.832,9.59 31.684,10.07 2.879,0 4.324,-3.12 4.324,-9.36 0,-7.191 1.074,-11.879 3.235,-14.039 2.156,-2.156 5.398,-1.558 9.714,1.809 3.848,3.828 4.805,18.47 2.891,43.92 -2.891,36.95 -7.449,56.39 -13.691,58.31"
         style="fill:#f5f6f5;fill-opacity:1;fill-rule:nonzero;stroke:none"
         id="path24" /><path
         d="m 768.906,1359.81 c -4.804,2.4 -24.121,1.68 -57.961,-2.15 -33.836,-3.85 -52.683,-7.69 -56.519,-11.53 -1.926,-1.43 -2.883,-3.12 -2.883,-5.04 -0.969,-6.23 6.719,-9.35 23.047,-9.35 h 17.988 l 2.891,-33.85 c 2.39,-26.4 1.797,-59.64 -1.797,-99.71 -3.613,-40.08 -8.406,-67.81 -14.402,-83.16 -6.008,-15.37 -13.809,-30.85 -23.411,-46.45 -9.597,-15.6 -16.796,-24.36 -21.589,-26.27 -5.762,-1.44 -17.278,-2.16 -34.563,-2.16 -16.328,0 -28.926,2.88 -37.805,8.64 -8.882,5.75 -17.398,16.55 -25.554,32.39 -12.012,24.48 -19.571,44.76 -22.676,60.84 -3.137,16.09 -3.731,39.96 -1.809,71.64 3.352,65.76 6.953,104.15 10.805,115.21 3.836,11.03 15.359,16.55 34.559,16.55 l 19.433,2.88 c 11.992,3.36 14.649,8.4 7.93,15.13 -3.848,3.84 -11.172,5.51 -21.961,5.04 -10.805,-0.49 -33.969,-3.13 -69.484,-7.92 -37.442,-5.3 -56.153,-10.34 -56.153,-15.13 0,-2.87 2.149,-4.68 6.477,-5.39 4.312,-0.72 12.703,-1.08 25.203,-1.08 20.625,0 32.148,-1.21 34.551,-3.61 1.914,-1.92 0.468,-15.36 -4.317,-40.31 -12.961,-62.41 -16.804,-110.89 -11.523,-145.45 2.402,-17.27 10.449,-40.57 24.121,-69.84 13.684,-29.28 24.59,-46.32 32.766,-51.12 6.707,-4.8 20.398,-9.12 41.035,-12.96 26.883,-4.8 47.527,-2.51 61.922,6.84 14.394,9.37 29.277,30.12 44.636,62.28 10.559,22.08 17.649,44.04 21.242,65.88 3.594,21.84 5.633,56.28 6.114,103.33 v 79.91 l 24.492,2.89 c 4.785,0.47 9.355,1.19 13.672,2.16 24.48,4.79 28.32,11.75 11.523,20.87"
         style="fill:#f5f6f5;fill-opacity:1;fill-rule:nonzero;stroke:none"
         id="path26" /><path
         d="m 958.977,1203.57 c -10.571,-2.88 -25.684,-5.28 -45.364,-7.19 -17.761,-1.45 -28.203,0.23 -31.316,5.04 -3.137,4.79 -2.524,17.52 1.797,38.15 4.324,23.05 7.676,48.97 10.086,77.77 l 3.593,44.63 13.68,2.89 c 25.918,5.75 50.149,4.79 72.727,-2.89 22.55,-7.68 41.99,-19.43 58.32,-35.27 9.59,-9.13 15.7,-16.2 18.36,-21.24 2.63,-5.05 3.95,-11.42 3.95,-19.08 0,-11.52 -1.43,-19.45 -4.32,-23.76 -2.87,-5.3 -18.13,-15.84 -45.71,-31.68 -27.612,-15.84 -46.206,-24.97 -55.803,-27.37 z m 145.433,-184.31 c -6.72,5.27 -21.84,6.71 -45.36,4.31 -20.64,-1.43 -33.11,-0.6 -37.43,2.52 -4.33,3.12 -8.65,14.05 -12.97,32.77 -12.959,54.24 -20.642,88.07 -23.037,101.51 -2.41,13.44 -2.156,21.36 0.715,23.76 3.848,3.36 19.692,13.21 47.522,29.52 23.04,12.96 38.63,24.36 46.8,34.2 8.16,9.84 12.24,21.72 12.24,35.65 0,23.03 -11.04,44.39 -33.11,64.08 -23.04,20.62 -48.25,33.71 -75.6,39.24 -27.364,5.5 -61.453,4.43 -102.246,-3.25 -33.125,-6.23 -50.403,-11.76 -51.836,-16.56 -1.446,-3.85 8.386,-6.47 29.511,-7.92 l 19.446,-1.43 -1.438,-23.77 c -0.976,-16.32 -4.929,-40.92 -11.887,-73.79 -6.96,-32.89 -12.117,-51.96 -15.476,-57.25 -3.848,-6.24 -5.039,-13.92 -3.594,-23.04 0.957,-4.8 0.82,-13.2 -0.371,-25.19 -1.191,-12.01 -2.871,-23.76 -5.039,-35.28 -2.156,-11.53 -4.434,-23.4 -6.836,-35.65 -2.402,-12.23 -3.848,-19.8 -4.316,-22.67 -1.446,-8.64 -3.125,-14.05 -5.039,-16.21 -1.934,-2.15 -6.739,-3.72 -14.407,-4.67 -10.554,-1.93 -16.316,-4.57 -17.273,-7.92 -1.934,-5.29 1.543,-9.49 10.43,-12.6 8.886,-3.14 24.355,-5.89 46.445,-8.28 19.68,-2.41 32.871,-3.49 39.601,-3.24 6.715,0.23 12.469,2.27 17.274,6.12 6.719,4.32 10.078,7.92 10.078,10.8 0,5.27 -11.516,8.63 -34.551,10.08 -21.601,1.91 -32.402,4.31 -32.402,7.2 0.957,11.03 7.441,50.4 19.434,118.07 0.48,3.36 1.804,5.76 3.964,7.21 2.168,1.44 5.645,2.39 10.442,2.88 4.793,0.47 13.426,1.19 25.926,2.16 28.308,1.91 43.671,3.35 46.074,4.31 1.445,0 2.636,-0.47 3.594,-1.43 0.957,-0.97 1.914,-2.88 2.89,-5.77 0.957,-2.87 1.914,-6.84 2.871,-11.88 0.957,-5.04 1.914,-11.4 2.891,-19.07 3.828,-24.97 9.101,-51.61 15.84,-79.92 4.316,-17.77 6.582,-29.16 6.836,-34.2 0.234,-5.04 -1.075,-8.77 -3.965,-11.16 -4.317,-3.37 -6.477,-7.69 -6.477,-12.96 0,-5.298 2.16,-8.892 6.477,-10.806 4.797,-1.921 25.209,-0.964 61.199,2.883 15.84,1.914 28.32,3.836 37.44,5.762 24.95,4.781 31.2,11.751 18.72,20.881"
         style="fill:#f5f6f5;fill-opacity:1;fill-rule:nonzero;stroke:none"
         id="path28" /><path
         d="m 1291.6,1203.57 c -10.56,-2.88 -25.68,-5.28 -45.35,-7.19 -17.77,-1.45 -28.2,0.23 -31.33,5.04 -3.12,4.79 -2.52,17.52 1.8,38.15 4.32,23.05 7.67,48.97 10.09,77.77 l 3.6,44.63 13.67,2.89 c 25.92,5.75 50.16,4.79 72.73,-2.89 22.55,-7.68 42,-19.43 58.32,-35.27 9.6,-9.13 15.71,-16.2 18.36,-21.24 2.62,-5.05 3.95,-11.42 3.95,-19.08 0,-11.52 -1.43,-19.45 -4.31,-23.76 -2.89,-5.3 -18.13,-15.84 -45.73,-31.68 -27.6,-15.84 -46.2,-24.97 -55.8,-27.37 z m 145.45,-184.31 c -6.74,5.27 -21.85,6.71 -45.37,4.31 -20.64,-1.43 -33.12,-0.6 -37.43,2.52 -4.33,3.12 -8.64,14.05 -12.96,32.77 -12.97,54.24 -20.65,88.07 -23.05,101.51 -2.4,13.44 -2.16,21.36 0.72,23.76 3.84,3.36 19.68,13.21 47.52,29.52 23.05,12.96 38.64,24.36 46.8,34.2 8.17,9.84 12.25,21.72 12.25,35.65 0,23.03 -11.06,44.39 -33.13,64.08 -23.03,20.62 -48.24,33.71 -75.59,39.24 -27.36,5.5 -61.46,4.43 -102.24,-3.25 -33.12,-6.23 -50.41,-11.76 -51.85,-16.56 -1.43,-3.85 8.39,-6.47 29.53,-7.92 l 19.43,-1.43 -1.44,-23.77 c -0.96,-16.32 -4.93,-40.92 -11.88,-73.79 -6.95,-32.89 -12.12,-51.96 -15.47,-57.25 -3.85,-6.24 -5.04,-13.92 -3.6,-23.04 0.95,-4.8 0.83,-13.2 -0.36,-25.19 -1.21,-12.01 -2.89,-23.76 -5.04,-35.28 -2.17,-11.53 -4.45,-23.4 -6.84,-35.65 -2.41,-12.23 -3.85,-19.8 -4.33,-22.67 -1.43,-8.64 -3.12,-14.05 -5.03,-16.21 -1.93,-2.15 -6.73,-3.72 -14.41,-4.67 -10.56,-1.93 -16.32,-4.57 -17.27,-7.92 -1.93,-5.29 1.55,-9.49 10.44,-12.6 8.87,-3.14 24.35,-5.89 46.44,-8.28 19.67,-2.41 32.87,-3.49 39.59,-3.24 6.72,0.23 12.48,2.27 17.29,6.12 6.71,4.32 10.07,7.92 10.07,10.8 0,5.27 -11.52,8.63 -34.55,10.08 -21.6,1.91 -32.4,4.31 -32.4,7.2 0.96,11.03 7.43,50.4 19.43,118.07 0.47,3.36 1.8,5.76 3.97,7.21 2.16,1.44 5.63,2.39 10.43,2.88 4.8,0.47 13.44,1.19 25.93,2.16 28.31,1.91 43.67,3.35 46.08,4.31 1.44,0 2.63,-0.47 3.59,-1.43 0.96,-0.97 1.92,-2.88 2.89,-5.77 0.95,-2.87 1.91,-6.84 2.88,-11.88 0.95,-5.04 1.91,-11.4 2.88,-19.07 3.83,-24.97 9.11,-51.61 15.84,-79.92 4.32,-17.77 6.59,-29.16 6.84,-34.2 0.24,-5.04 -1.08,-8.77 -3.96,-11.16 -4.32,-3.37 -6.49,-7.69 -6.49,-12.96 0,-5.298 2.17,-8.892 6.49,-10.806 4.78,-1.921 25.19,-0.964 61.19,2.883 15.84,1.914 28.32,3.836 37.44,5.762 24.96,4.781 31.2,11.751 18.73,20.881"
         style="fill:#f5f6f5;fill-opacity:1;fill-rule:nonzero;stroke:none"
         id="path30" /><path
         d="m 1757.44,1098.46 c -2.88,0 -4.8,-2.05 -5.76,-6.12 -0.97,-4.09 -1.44,-12.13 -1.44,-24.13 v -30.95 l -65.51,-5.77 c -49.94,-3.85 -82.81,-6 -98.65,-6.47 l -33.11,-1.45 v 126.72 l 23.75,2.89 c 17.28,1.91 31.43,4.07 42.48,6.48 l 19.44,3.59 2.88,-21.6 c 1.45,-7.2 3.12,-13.67 5.04,-19.43 5.28,-14.88 11.04,-19.45 17.29,-13.68 3.35,3.84 3.59,14.87 0.71,33.11 -3.36,20.64 -5.04,32.88 -5.04,36.73 0,10.08 -1.69,19.67 -5.04,28.8 -3.37,9.11 -6.73,13.68 -10.08,13.68 -4.8,0 -7.92,-5.53 -9.36,-16.56 -0.96,-7.69 -3.13,-12.85 -6.48,-15.48 -3.36,-2.65 -13.44,-6.61 -30.24,-11.89 -22.08,-7.2 -35.53,-10.07 -40.31,-8.64 -3.85,1.92 -6.97,20.64 -9.37,56.16 -3.85,61.93 -8.17,92.89 -12.96,92.89 -2.4,0 -3.59,-49.45 -3.59,-148.32 v -148.33 l -16.56,-9.35 c -10.57,-6.25 -16.1,-11.06 -16.57,-14.406 0,-3.36 6,-4.082 18,-2.161 23.51,4.321 87.84,9.357 192.96,15.117 37.91,1.92 58.56,4.8 61.92,8.65 3.36,4.31 2.99,18.72 -1.08,43.2 -4.08,24.47 -8.52,36.72 -13.32,36.72"
         style="fill:#f5f6f5;fill-opacity:1;fill-rule:nonzero;stroke:none"
         id="path32" /><path
         d="m 1691.56,1363.78 c -51.11,-3.14 -81.72,-6.12 -91.79,-9.01 -16.82,-3.35 -42.74,-6.23 -77.77,-8.64 -27.35,-1.92 -45.36,-3.84 -53.99,-5.76 -8.65,-2.4 -11.78,-5.51 -9.37,-9.35 1.92,-3.38 18.72,-4.68 50.4,-3.97 31.68,0.72 59.77,3.24 84.24,7.57 30.71,4.78 69.85,7.43 117.36,7.92 l 72.72,0.71 2.17,-20.87 c 1.43,-14.4 4.78,-21.61 10.08,-21.61 2.39,0 4.06,2.28 5.03,6.85 0.96,4.55 1.45,13.32 1.45,26.27 v 33.12 h -13.69 c -13.44,0.96 -45.72,-0.12 -96.84,-3.23"
         style="fill:#f5f6f5;fill-opacity:1;fill-rule:nonzero;stroke:none"
         id="path34" /><path
         d="m 2158.12,1365.57 c -4.09,0.96 -14.76,1.44 -32.05,1.44 -27.36,0 -46.56,-0.48 -57.59,-1.44 -5.3,-0.48 -9.36,-1.08 -12.25,-1.79 -2.87,-0.72 -4.8,-1.69 -5.76,-2.88 -0.96,-1.21 -1.19,-2.77 -0.71,-4.69 0.95,-5.28 6.95,-8.4 17.99,-9.35 11.04,-1.45 17.52,-3.72 19.44,-6.84 1.91,-3.13 0.72,-10.45 -3.6,-21.96 -4.31,-14.41 -6.48,-25.45 -6.48,-33.13 0,-6.24 -6.6,-38.04 -19.8,-95.4 -13.21,-57.36 -20.04,-87.23 -20.51,-89.64 -1.45,-12 -3.61,-18 -6.49,-18 -2.87,0 -10.8,20.16 -23.76,60.49 -12.49,36.96 -25.92,72 -40.32,105.11 -13.44,28.81 -21.85,50.15 -25.19,64.08 -3.85,13.92 -8.54,22.2 -14.05,24.85 -5.53,2.62 -18.36,2.98 -38.51,1.07 -23.53,-2.4 -35.29,-6.01 -35.29,-10.79 0,-4.81 5.29,-7.68 15.84,-8.64 l 15.13,-1.45 v -43.19 c -0.49,-21.13 -5.53,-66.01 -15.13,-134.64 -9.6,-68.65 -16.08,-105.84 -19.44,-111.6 -2.87,-4.33 -8.63,-6.49 -17.28,-6.49 -7.19,0 -12.23,-0.96 -15.12,-2.88 -3.84,-3.85 -1.19,-7.44 7.93,-10.8 9.11,-3.85 24.95,-5.52 47.52,-5.04 22.56,0.48 36.46,2.64 41.75,6.49 4.8,3.35 6.96,6.47 6.49,9.35 -0.49,5.76 -9.12,7.44 -25.92,5.04 -13.46,-1.92 -21.01,-0.6 -22.68,3.97 -1.69,4.55 1.31,32.5 8.99,83.87 8.65,50.88 14.65,98.65 18.01,143.29 1.91,23.51 3.83,40.06 5.76,49.67 2.87,15.84 7.2,18.48 12.95,7.92 2.4,-4.8 8.76,-20.28 19.08,-46.43 10.32,-26.18 21.36,-55.08 33.13,-86.76 11.75,-31.68 20.76,-57.13 26.99,-76.33 7.2,-20.63 12.6,-36 16.21,-46.07 3.59,-10.08 6.83,-18.49 9.72,-25.21 2.88,-6.73 5.14,-10.8 6.84,-12.23 1.67,-1.44 3.71,-2.16 6.11,-2.16 1.92,0 3.48,0.59 4.69,1.8 1.19,1.18 2.38,4.67 3.6,10.43 1.19,5.77 2.4,12.72 3.59,20.88 1.19,8.15 3,20.64 5.41,37.44 2.39,20.64 9.47,53.16 21.23,97.56 11.76,44.4 18.84,72.37 21.25,83.89 4.79,27.83 9.82,47.75 15.12,59.76 3.35,7.67 6.59,12.47 9.71,14.4 3.12,1.9 9.96,3.35 20.52,4.32 9.6,0.46 15.84,1.32 18.73,2.52 2.87,1.19 4.32,3.96 4.32,8.28 0,4.31 -2.05,6.95 -6.12,7.91"
         style="fill:#f5f6f5;fill-opacity:1;fill-rule:nonzero;stroke:none"
         id="path36" /><path
         d="m 2479.59,1413.82 c -5.76,-5.76 -30.84,-11.77 -75.23,-18.01 -44.41,-6.24 -85.81,-9.36 -124.2,-9.36 l -70.57,-0.72 -2.16,14.41 c -1.43,7.2 -3.6,11.51 -6.47,12.96 -3.37,0.95 -6.49,-5.04 -9.37,-18 -3.85,-16.33 -7.2,-31.94 -10.08,-46.81 -3.84,-18.72 -4.8,-29.51 -2.88,-32.39 2.88,-2.42 5.64,-2.77 8.28,-1.09 2.64,1.68 5.4,4.92 8.29,9.72 2.87,4.79 4.78,10.56 5.76,17.29 l 3.59,19.44 68.4,-0.72 c 45.6,-0.97 69.35,-2.16 71.29,-3.61 3.83,-2.4 0.47,-38.41 -10.08,-107.99 -5.76,-35.05 -11.05,-76.81 -15.85,-125.29 -2.88,-24.47 -4.93,-42 -6.12,-52.56 -1.19,-10.56 -3.23,-19.44 -6.12,-26.64 -2.88,-7.19 -5.76,-11.4 -8.64,-12.59 -2.88,-1.21 -7.68,-1.8 -14.4,-1.8 -10.56,0 -18.36,-2.05 -23.4,-6.12 -5.04,-4.08 -5.39,-8.76 -1.08,-14.05 3.35,-4.32 17.76,-7.55 43.21,-9.71 25.43,-2.16 44.15,-1.801 56.15,1.08 6.23,1.44 10.56,3.12 12.97,5.04 2.39,1.9 3.59,5.27 3.59,10.08 0,5.27 -1.07,8.64 -3.24,10.08 -2.16,1.43 -7.56,2.39 -16.19,2.88 -12.5,1.43 -19.93,3.11 -22.33,5.04 -4.31,4.31 1.2,59.51 16.57,165.59 6.72,44.65 11.03,82.8 12.95,114.48 l 2.89,47.52 48.24,7.92 c 33.11,5.76 51.84,7.92 56.15,6.49 3.84,-1.45 5.76,-6.61 5.76,-15.48 0,-8.89 -0.11,-17.53 -0.36,-25.93 -0.24,-8.4 1.09,-12.59 3.96,-12.59 5.28,0 9.72,15.23 13.32,45.72 3.6,30.47 3,47.15 -1.8,50.04 -2.87,1.43 -6.48,0 -10.8,-4.32"
         style="fill:#f5f6f5;fill-opacity:1;fill-rule:nonzero;stroke:none"
         id="path38" /><path
         d="m 706.113,197.73 c 2.879,1.45 5.52,5.04 7.918,10.809 2.407,7.191 5.039,10.902 7.922,11.16 2.883,0.231 7.207,-2.777 12.957,-9.008 11.528,-12.961 36.477,-19.679 74.887,-20.152 15.359,-0.488 25.918,0 31.68,1.43 5.757,1.453 13.191,5.293 22.324,11.531 14.39,10.07 26.637,21.832 36.719,35.281 l 17.996,21.59 -1.438,46.809 c -0.484,18.23 -1.687,32.148 -3.601,41.761 -1.922,9.598 -4.93,17.629 -9.004,24.118 -4.082,6.472 -10.442,13.062 -19.075,19.793 -11.519,8.636 -28.328,14.16 -50.398,16.558 -22.09,2.399 -36.73,6 -43.926,10.801 -5.281,3.348 -8.523,7.199 -9.719,11.527 -1.199,4.313 -1.792,14.153 -1.792,29.524 0,14.386 0.828,24.707 2.515,30.957 1.672,6.23 4.914,13.191 9.719,20.883 11.992,16.789 27.961,27.949 47.883,33.468 19.91,5.52 34.199,2.52 42.84,-8.988 8.156,-9.613 12.351,-17.652 12.597,-24.121 0.235,-6.492 -3.008,-16.199 -9.719,-29.16 -7.683,-15.84 -11.519,-25.449 -11.519,-28.801 0,-2.879 0.957,-4.328 2.879,-4.328 5.273,-1.434 11.758,3.609 19.433,15.129 4.793,6.711 10.325,16.429 16.563,29.16 6.23,12.699 11.523,24.719 15.84,36 4.328,11.258 6.484,18.82 6.484,22.668 0,7.211 -1.808,11.164 -5.398,11.887 -3.606,0.722 -6.848,-2.286 -9.731,-9.004 -3.355,-7.672 -6.472,-11.403 -9.351,-11.153 -2.883,0.231 -8.645,4.68 -17.278,13.321 -15.371,13.425 -32.402,17.636 -51.125,12.597 -18.718,-5.039 -36.004,-14.515 -51.843,-28.437 -15.84,-13.942 -25.684,-27.129 -29.512,-39.61 -3.367,-9.601 -4.57,-26.878 -3.606,-51.839 0.957,-15.371 2.278,-25.809 3.957,-31.313 1.68,-5.527 5.157,-10.437 10.45,-14.769 6.23,-5.278 17.031,-10.079 32.39,-14.387 15.364,-4.32 29.282,-6.492 41.762,-6.492 9.117,0 19.441,-5.039 30.965,-15.121 7.668,-6.719 12.472,-12.719 14.394,-17.989 1.914,-5.3 3.606,-15.609 5.039,-30.961 1.446,-21.129 0.957,-36.371 -1.433,-45.718 -2.414,-9.371 -8.891,-20.051 -19.445,-32.039 -13.438,-14.411 -25.196,-23.532 -35.274,-27.372 -10.09,-3.851 -25.203,-4.8 -45.359,-2.878 -24.016,2.398 -38.887,6.238 -44.641,11.519 -6.25,5.77 -11.523,13.078 -15.84,21.969 -4.328,8.871 -6.484,17.39 -6.484,25.551 0,6.23 -0.723,11.039 -2.156,14.41 -3.848,5.75 -7.688,3.828 -11.528,-5.762 -3.843,-11.051 -7.801,-26.539 -11.875,-46.449 -4.082,-19.918 -5.398,-30.84 -3.965,-32.75 2.407,-3.852 5.039,-5.039 7.922,-3.61"
         style="fill:#f5f6f5;fill-opacity:1;fill-rule:nonzero;stroke:none"
         id="path40" /><path
         d="m 1087.35,422.73 c 8.88,28.079 17.65,53.161 26.28,75.25 12.48,32.149 18.96,49.192 19.45,51.11 0.95,3.359 2.15,5.039 3.6,5.039 3.35,0.48 8.15,-9.84 14.39,-30.957 5.77,-21.121 11.27,-43.801 16.57,-68.031 5.27,-24.25 9.47,-44.903 12.59,-61.93 3.12,-17.039 3.97,-26.281 2.52,-27.711 -2.4,-2.41 -21.12,-2.52 -56.16,-0.359 -35.04,2.148 -52.56,4.668 -52.56,7.558 0,5.27 4.44,21.961 13.32,50.031 z m -81.72,-232.191 c 29.76,-3.367 46.32,-3.367 49.68,0 2.4,2.391 3.61,4.551 3.61,6.473 0,4.797 -8.41,8.398 -25.21,10.797 -13.92,2.402 -20.88,5.293 -20.88,8.652 0,2.391 2.77,11.519 8.28,27.359 5.52,15.84 11.76,32.391 18.72,49.68 6.96,17.27 12.12,29.262 15.48,35.988 6.23,11.992 10.8,18.723 13.68,20.172 3.35,2.391 22.56,1.801 57.6,-1.808 35.04,-3.59 55.2,-7.082 60.48,-10.442 5.76,-2.879 10.32,-11.039 13.68,-24.469 2.88,-12.011 7.92,-29.519 15.13,-52.57 7.2,-25.441 10.31,-40.441 9.35,-45 -0.96,-4.562 -7.92,-8.039 -20.87,-10.441 -14.89,-3.36 -21.85,-6.731 -20.88,-10.078 1.43,-3.364 19.79,-5.512 55.07,-6.473 35.29,-0.969 54.84,0.23 58.69,3.59 1.91,2.402 2.15,5.043 0.72,7.922 -4.81,7.211 -14.65,10.8 -29.52,10.8 -7.21,0 -12.13,1.09 -14.77,3.25 -2.63,2.149 -5.4,7.079 -8.28,14.75 -4.32,9.598 -12.6,38.168 -24.83,85.68 -12.25,47.52 -22.69,90.957 -31.32,130.328 -8.64,37.91 -14.88,61.43 -18.72,70.551 -3.37,9.602 -6.49,20.398 -9.37,32.41 -1.92,7.668 -5.15,15.469 -9.71,23.395 -4.57,7.922 -8.29,11.883 -11.17,11.883 -2.4,0 -5.28,-1.922 -8.64,-5.758 -3.36,-3.852 -11.64,-23.168 -24.83,-57.961 -13.22,-34.821 -23.4,-63.719 -30.61,-86.77 -6.73,-22.078 -15.84,-49.32 -27.35,-81.719 -11.53,-32.39 -22.21,-61.199 -32.04,-86.39 -9.85,-25.211 -15.97,-39.238 -18.362,-42.121 -3.848,-4.328 -12.493,-6.489 -25.918,-6.489 -17.762,-0.96 -24.012,-5.519 -18.719,-13.679 4.785,-4.321 22.066,-8.16 51.829,-11.512"
         style="fill:#f5f6f5;fill-opacity:1;fill-rule:nonzero;stroke:none"
         id="path42" /><path
         d="m 1382.19,194.852 c 22.07,4.796 57.6,8.398 106.56,10.796 l 74.16,2.891 v 51.832 c 0,21.117 -0.49,35.039 -1.45,41.77 -0.96,6.711 -2.76,10.078 -5.4,10.078 -2.63,0 -4.67,-2.778 -6.11,-8.278 -1.44,-5.531 -2.65,-16.211 -3.6,-32.05 l -2.16,-39.602 -70.56,-2.148 c -47.52,-1.93 -72.49,-2.161 -74.88,-0.731 -2.41,0.961 -2.65,18.238 -0.72,51.852 1.91,27.828 4.32,80.386 7.19,157.679 l 2.89,108.719 30.96,2.149 c 7.2,0.472 13.2,1.203 18,2.16 20.64,3.359 26.88,9.601 18.72,18.722 -2.88,3.84 -9.84,5.997 -20.88,6.489 -11.05,0.465 -33.85,-0.727 -68.4,-3.606 -23.52,-1.926 -35.28,-5.168 -35.28,-9.715 0,-4.57 6.72,-8.281 20.16,-11.16 l 20.16,-4.32 -2.88,-92.168 c -2.41,-63.84 -5.04,-103.922 -7.92,-120.231 -3.37,-20.652 -6,-45.128 -7.92,-73.441 l -2.88,-44.648 -26.64,-4.321 c -11.04,-2.398 -18.72,-4.308 -23.04,-5.761 -8.17,-2.879 -9.61,-7.438 -4.32,-13.68 6.72,-8.16 28.8,-7.918 66.24,0.723"
         style="fill:#f5f6f5;fill-opacity:1;fill-rule:nonzero;stroke:none"
         id="path44" /><path
         d="m 1876.09,288.461 c -2.88,0 -4.8,-2.051 -5.75,-6.129 -0.97,-4.082 -1.44,-12.121 -1.44,-24.121 v -30.949 l -65.52,-5.774 c -49.93,-3.84 -82.8,-6 -98.64,-6.468 l -33.12,-1.45 v 126.719 l 23.76,2.883 c 17.28,1.918 31.43,4.078 42.48,6.488 l 19.43,3.59 2.89,-21.602 c 1.44,-7.199 3.11,-13.668 5.03,-19.429 5.29,-14.887 11.04,-19.449 17.29,-13.68 3.35,3.832 3.59,14.871 0.71,33.109 -3.36,20.641 -5.04,32.883 -5.04,36.731 0,10.082 -1.68,19.672 -5.04,28.801 -3.35,9.109 -6.72,13.679 -10.07,13.679 -4.81,0 -7.92,-5.531 -9.36,-16.558 -0.97,-7.692 -3.13,-12.852 -6.48,-15.481 -3.36,-2.648 -13.45,-6.609 -30.25,-11.89 -22.08,-7.192 -35.52,-10.071 -40.31,-8.641 -3.85,1.922 -6.96,20.641 -9.37,56.16 -3.84,61.93 -8.16,92.883 -12.95,92.883 -2.41,0 -3.6,-49.441 -3.6,-148.32 V 210.691 l -16.56,-9.351 c -10.57,-6.25 -16.09,-11.059 -16.56,-14.41 0,-3.36 5.99,-4.078 18,-2.149 23.51,4.309 87.84,9.348 192.95,15.11 37.92,1.918 58.56,4.8 61.93,8.648 3.35,4.313 2.99,18.723 -1.09,43.199 -4.08,24.473 -8.52,36.723 -13.32,36.723"
         style="fill:#f5f6f5;fill-opacity:1;fill-rule:nonzero;stroke:none"
         id="path46" /><path
         d="m 1627.7,517.051 c 31.68,0.719 59.76,3.238 84.23,7.57 30.72,4.777 69.85,7.43 117.37,7.918 l 72.72,0.711 2.16,-20.879 c 1.44,-14.391 4.79,-21.601 10.08,-21.601 2.39,0 4.07,2.281 5.04,6.851 0.95,4.551 1.44,13.32 1.44,26.277 v 33.114 h -13.68 c -13.45,0.957 -45.72,-0.121 -96.85,-3.231 -51.11,-3.14 -81.71,-6.121 -91.79,-9 -16.81,-3.359 -42.73,-6.242 -77.77,-8.652 -27.35,-1.918 -45.36,-3.84 -53.99,-5.758 -8.64,-2.402 -11.77,-5.519 -9.37,-9.351 1.92,-3.372 18.73,-4.68 50.41,-3.969"
         style="fill:#f5f6f5;fill-opacity:1;fill-rule:nonzero;stroke:none"
         id="path48" /></g></g></svg>
