<?xml version="1.0" encoding="utf-8"?>
<!-- Generator: Adobe Illustrator 21.0.0, SVG Export Plug-In . SVG Version: 6.00 Build 0)  -->
<svg version="1.1" id="Layer_1" xmlns="http://www.w3.org/2000/svg" xmlns:xlink="http://www.w3.org/1999/xlink" x="0px" y="0px"
	 viewBox="0 0 960 560" style="enable-background:new 0 0 960 560;" xml:space="preserve">
<g>
	<path d="M713.9,33c2.5,0.4,5,0.9,7.5,1.3c30.3,5,51.3,32,48.6,62.6c-2.4,27.6-24.9,51.5-52.2,55.7c-18.3,2.8-34.6-1.2-49-13
		c-0.2-0.2-0.4-0.3-0.6-0.5c-3.2-4-7.4-6-12.5-6.8c-3.1-0.5-5.8-2.3-7.9-4.7c-6.9-8.1-15.9-8.8-25.3-6.4c-6.6,1.7-10,7.1-11.7,13.4
		c-1.8,6.5-1.5,13.3-0.4,19.8c2.4,14.9,2.7,29.9,1.4,44.9s-3.2,29.9-7.2,44.4c-3.4,12-7.6,23.7-13.2,34.8
		c-3.9,7.7-8.5,15.1-12.8,22.6c-0.7,1.2-1.4,2.2-0.4,3.7c4.2,6.1,5.5,13.2,6.7,20.2c1.5,8.7,3.4,17.3,4.4,26
		c1.1,10.4,2.6,21-0.4,31.5c-1.8,6.5-4.8,12-10.5,15.9c-6.4,4.4-13.3,4.8-20.6,3.2c-1.7-0.4-3.4-0.6-5-0.9c0.4,1.8,0.7,3.6,1.2,5.4
		c3.2,10.6,6.4,21.2,9.5,31.9c0.6,2,1.6,3.7,3,5.2c2.6,2.8,5,5.7,6.3,9.4c1,2.7,1.6,5.5,1.1,8.3c-1.1,5.3-5.7,8.9-11.8,9.5
		c-5,0.5-9.3-1-13.4-3.7c-0.4-0.3-0.9-0.5-1.3-0.7c-1.1,4.5-2,8.9-3.3,13.3c-0.6,1.9-1.6,3.8-2.8,5.4c-2.9,3.9-6.4,4.1-10.1,0.9
		c-0.4-0.3-0.8-0.7-1.2-1c-0.4,2.9-0.6,5.6-1.2,8.2c-1.9,8.1-8.6,12.8-16.8,12.2c-1.1-0.1-2.2-0.2-3.2-0.4c-2.8-0.6-4.2,0.1-6,2.9
		c-3.1,4.8-8.1,7.9-13.5,9.9s-11,2.8-16.7,3.1c-6,0.3-11-1.8-14.1-7.1c-2.7-4.7-4.9-9.6-7.2-14.5c-1.3-2.8-2.3-5.7-3.8-9.4
		c-2.1,6-3.8,11.2-4.7,16.6c-0.8,4.8-1,9.7-1.6,14.5c-0.2,1.3-0.4,2.7-0.9,3.9c-1.3,2.7-3.9,3.9-6.8,2.9c-1.9-0.6-3.7-1.7-5.2-2.9
		c-7-5.6-12.2-12.6-15.8-20.9c-0.3-0.6-0.5-1.2-0.9-1.8c-0.1-0.2-0.4-0.3-0.8-0.5c-2.8,3.3-5.4,6.7-8.4,9.8c-2.4,2.5-5.1,5-8.1,6.7
		c-6.7,3.9-12.8,1.4-14.8-6.1c-1.2-4.7-2.2-9.6-2.1-14.4c0.2-8.2-1-16.2-2.1-24.2c-1-7.4-2-14.7-3-22.1c-0.4-2.8-0.4-2.9-2.9-1.9
		c-11.7,4.6-23.5,9.1-35.1,13.9c-13.6,5.7-27,11.7-41.5,15.1c-14,3.3-27,1.6-39.8-4.7c-15.2-7.5-28.8-17.2-41.6-28.2
		c-11.7-10-19-23.1-23.6-37.8c-2.6-8.4-4.2-17-5.1-25.8c-0.9-9.3-1.6-18.6-1.6-28c0-10.5,2.5-20.7,4.9-30.8
		c5.3-21.6,13.6-41.9,25-61c9.9-16.7,22.1-31.5,36.5-44.4c11.2-10.1,23.8-18.3,38-23.9c11.7-4.6,23.3-9.6,35.1-14
		c8-3,16.1-5.7,24.6-6.7c6.1-0.7,12.1-1.1,18.2-1.8c3.6-0.4,3.6-0.4,3.8-4.1c0.2-2.3,0.5-4.6,0.6-6.9c1-13,7-23.7,15.5-33.2
		c7.4-8.2,16.3-14.2,26.3-18.6c9.1-3.9,18.4-7.1,28-9.7c3.9-1.1,7.7-2.6,11.6-3.6c4.2-1.1,6.7-3.8,8.7-7.4
		c6.3-11.6,15.7-19.9,27.7-25.2c23-10.1,48.7-5.9,66.2,10.4c19.9,18.6,24.1,48.7,10,72.6C551,163.5,534.9,174,514,176.6
		c-11.8,1.4-23.3-0.3-33.8-6.1c-10.1-5.6-17.6-13.8-23.1-23.9c-0.6-1.1-1.2-2.1-1.6-3.3c-1.1-3.8-3.8-5.3-7.6-5.4
		c-9.3,0-17.5,2.8-24.5,9.1c-3.5,3.2-3.9,7.6-4.5,11.9c-0.3,2.1-0.2,4.3-0.1,6.5c0.1,2.8,0.2,2.7,3.1,3.1c8.4,1.3,16.9,2.4,25.2,3.9
		c8.9,1.6,17.7,3.6,26,7.7c8,3.9,14.9,9.3,21.4,15.3c7.6,7,14.9,14.2,21,22.5c0.9,1.3,1.7,1,2.6,0.2c3.5-2.8,7.1-5.5,10.4-8.5
		c8.7-8.1,17-16.7,24.5-26c8-9.8,12.9-20.9,14.8-33.4c1.5-9.5,2.7-19,4.1-28.5c1.1-7.5,3.6-14.4,8.3-20.4c4.2-5.3,9-10.1,14.6-14
		c6.1-4.3,12.8-6.9,20.4-7c4.5,0,8.9,0,13.4-0.1c3.4-0.1,6.8-0.7,9.7-2.5c3.9-2.4,7.6-5.1,11.6-7.4c3.9-2.2,6.3-5.5,8.7-9.2
		c10.7-15.8,25.7-24.8,44.5-27.6c2.6-0.4,5.3-0.6,8-0.9C712.3,33,713.1,33,713.9,33z M507.7,336.6c5.9,4.5,12.2,7.6,18.8,10
		c12.2,4.3,24.7,5.7,37.6,4.4c1.2-0.1,2.4,0.1,3.6,0.3c1.7,0.4,2.5,1.6,2.7,3.2c0.2,1.7-0.2,3.3-1.8,4.2c-1,0.6-2.3,1-3.4,1.1
		c-16.3,1.5-32.2-0.4-47.2-7.2c-21.2-9.5-36.2-25-43.6-47.1c-7.1-21-5-41.6,3.8-61.7c0.6-1.4,1.8-2.8,3-3.6c4.7-3,9.5-5.7,14.3-8.5
		c4-2.3,8-4.6,12-6.8c1.3-0.7,1.5-1.4,0.6-2.5c-0.5-0.6-1-1.3-1.5-1.9c-7.1-8.2-14.7-15.9-23-22.9c-7.3-6.2-15.4-11.2-24.8-13.4
		c-9.7-2.3-19.6-4.2-29.3-6.3c-1.7-0.4-3.5-0.5-5.2-0.7c-1.4-0.1-2.1,0.4-1.4,1.9c0.8,1.6,1.6,3.1,2.4,4.7c4.5,9.1,9.4,18,13.3,27.3
		c3.6,8.5,6,17.4,9,26.1c2,5.8,2.6,11.9,3.4,17.9c0.6,4.8,1.5,9.7,1.1,14.5c-0.7,9.3-1.5,18.7-3.3,27.8c-1.9,9.1-4.9,18-7.8,26.8
		c-4.2,12.6-10,24.5-14,37.2c-3.8,11.9-10.3,22.4-19.1,31.3c-4.3,4.4-8.8,8.8-13.7,12.7c-12.4,9.9-26.2,17.2-41.9,20.6
		c-1.3,0.3-2.7,0.5-4,0.4c-1.9-0.2-3.2-1.4-3.6-3.3c-0.4-1.6,0.4-3.6,2-4.5c0.9-0.5,2-0.9,3-1.1c8.1-1.5,15.6-4.6,22.7-8.5
		c15.3-8.2,28.1-19.2,37.9-33.6c1.3-1.9,2.3-4.1,3.5-6.1c-1.3,0.2-2,0.8-2.8,1.2c-4.7,2.4-9.2,5.6-14.1,7c-11,3.1-22.3,4.4-33.7,3.7
		c-5-0.3-10-0.5-15-1.3c-18.4-2.9-30.4-14.4-39.6-29.6c-1.4-2.4-2.1-5.3-2.7-8c-1.2-5.4-1.5-11-0.9-16.5
		c1.8-16.2,8.6-29.4,22.7-38.4c6.3-4,12.4-8.2,18.5-12.5c9.2-6.5,17.8-13.7,25.6-21.8c7.3-7.6,10.5-16.8,9.3-27.1
		c-0.9-7.3-3-14.6-5.1-21.7c-2.4-8-5.5-15.8-8.1-23.8c-0.5-1.5-1.2-1.4-2.3-1.3c-4.3,0.5-8.6,0.7-12.9,1.2c-7,0.8-13.9,1.9-20.6,4.5
		c-12.3,4.8-24.7,9.6-37,14.5c-5.8,2.3-11.5,4.7-17,7.7c-12.5,6.7-23.3,15.5-33.3,25.7c-19.6,20.2-33.4,43.9-43,70
		c-3.8,10.4-6.3,21.3-9,32c-2.1,8.3-3,16.8-2.5,25.4c0.4,6.5,0.9,13,1.5,19.4c1,10.7,3.1,21.1,7.1,31.1c2.5,6.2,6.4,11.3,12.2,14.6
		c9.4,5.3,19.2,9.2,30,10.6c9.1,1.2,17.8,0.5,26.2-3.3c2.7-1.2,5.4-2.5,8.1-3.7c2.3-1,4.3-0.8,5.6,0.7c1.2,1.5,1.3,3.8-0.2,5.6
		c-0.9,1.1-2.1,2.2-3.4,2.7c-5.5,2.2-11,4.8-16.7,6.1c-10.5,2.2-21,1.3-31.3-1.8c-3.7-1.1-7.3-2.5-10.9-3.8
		c13.4,11.4,27.3,22,43.6,28.8c8.9,3.7,18,4.3,27.4,2.3c10.9-2.4,21.3-6.1,31.5-10.6c16.3-7.3,32.8-14,49.7-20
		c5.2-1.8,10.6-3.2,16-4.5c6.8-1.6,13.7-1.8,20.5-0.3c5,1.1,9.4,2.9,10.4,8.7c0.3,1.6,0.6,3.2,0.8,4.8c0.7,4.4-0.3,8.3-2.9,11.9
		c-1.5,2.1-3.8,2.8-5.7,1.8c-1.8-0.9-2.3-2.5-1.7-5.2c0.2-0.7,0.4-1.3,0.5-2c0.2-2.1,0.5-4.3,0.6-6.4c0.1-2.6-1.4-4.3-3.7-4.7
		c-3.3-0.6-6.7-1.1-10-0.9c-3.9,0.3-7.7,1.3-11.6,2.1c-4,0.9-3.9,0.9-3.4,4.8c1.3,8.7,2.6,17.4,3.9,26.1c0.6,4.1,0.5,3.9,4.1,1.9
		c5.3-3.1,10.8-4.8,17.1-3.2c3.3,0.8,5.6,2.9,7.5,5.8c1.1-1.5,1.7-2.7,2.7-3.7c3-3.1,5.7-6.6,9.2-9.1c6.7-4.7,12.9-4.4,18.5,0.8
		c2,1.9,2.2,1.7,3.5-0.6c2-3.7,3.9-7.4,6.1-11c3.5-5.9,7.9-11,13.8-14.6c5.4-3.3,10.7-3.4,16,0.3c0.5,0.4,1.1,0.8,1.6,1.2
		c1.6-2.8,2.8-5.7,4.6-8.2c2.8-4,6.5-5.2,11-3.6c2.8,0.9,5.5,2.3,8.1,3.7c2.9,1.5,5.6,3.3,8.3,5.1c1.2,0.8,2,0.7,2.5-0.6
		c2.7-6.6,11.4-8.5,18.5-4.2c1.7,1,3.6,1.9,5.3,3c2.5,1.6,5,2.6,7.8,0.7c0.6-0.4,1.6-0.4,2.4-0.4c1.6,0,2.3-0.6,1.7-2.2
		c-0.3-0.9-0.6-1.8-0.9-2.7c-3.6-11.8-7.3-23.5-10.9-35.3c-0.2-0.5-0.4-1-1.1-2.3c-0.5,2.7-1,4.4-1.1,6.1c-0.3,3.4-0.5,6.7-0.7,10.1
		c-0.2,2.6-1.4,4.1-3.4,4.3c-2,0.2-3.8-1.3-4.3-3.6c-0.1-0.4-0.1-0.8-0.1-1.2c0.1-3.8,0.2-7.6,0.5-11.3c0.2-2.3,0.6-4.6,1.4-6.7
		c1.8-5.3,6.5-7.4,11.7-5.4c2.3,0.9,4.4,2.1,6.8,2.8c3.9,1.1,7.8,2.4,11.8,2.9c6.9,0.7,12.8-3.2,15.2-9.7c1.1-3,2.2-6.3,2.3-9.4
		c0.2-6.3-0.2-12.7-0.7-19c-0.4-4.5-0.7-9.1-1.2-13.6c-0.8-7-2.5-13.8-3.8-20.7c-0.7-3.9-2.3-7.4-5.4-11c-0.8,1.1-1.5,2.2-2.3,3
		c-7.2,7-14.5,13.8-22.6,19.8c-6.4,4.8-13.4,5.5-20.7,5.3C519,338.2,513.7,337.2,507.7,336.6z M409.7,354.9
		c-7.2-0.2-14.1-0.7-21-0.6c-9.8,0.1-18.6-3.3-27.2-7.3c-0.8-0.4-1.7-0.9-2.4-1.5c-1.4-1.3-1.9-3-1.2-4.8c0.7-1.7,2.2-2.5,3.9-2.3
		c1.6,0.2,3.2,0.7,4.6,1.3c5.4,2.2,10.5,5.2,16.4,5.7c8.1,0.6,16.2,1.3,24.3,1c7.5-0.2,13.8-3.4,17.1-10.8c0.5-1.2,1.4-2.3,2-3.5
		c2-3.7,3.7-7.6,5.1-12.3c-3.9,3.1-7.5,5.5-11.7,5.9c-5.4,0.5-10.8,0.6-16.2,0.7c-1.9,0-3.8-0.4-5.6-0.7c-0.9-0.2-1.9-0.5-2.7-0.9
		c-2.2-1.1-3.1-2.9-2.6-4.9c0.5-2.1,2-2.7,4.8-2.6c5.3,0.3,10.5,0.6,15.8,0.8c5,0.1,9.4-1.5,12.9-5c2.9-2.9,5.6-5.9,8.3-8.9
		c4.6-5,6.7-10.9,6.5-17.8c-2.1,1.5-3.9,3.1-6.1,4.2c-2,1-4.3,1.5-6.5,1.9c-1.6,0.2-2.8-0.9-3.2-2.5c-0.4-1.6-0.1-3,1.2-4
		c0.6-0.5,1.4-0.7,2.1-1.2c2.7-1.8,5.7-3.3,7.9-5.6c3.5-3.6,6.3-7.9,6.8-13.1c0.4-5-0.9-9.7-2-14.8c-1.9,1.5-3.4,2.8-5,4.1
		c-3.6,2.8-7.5,4.8-12,5.7c-1.7,0.3-3.5,0.2-5.2-0.2c-1.6-0.3-2.4-1.7-2.5-3.3c-0.1-1.6,0.6-2.9,2.1-3.6c0.7-0.4,1.5-0.6,2.3-0.7
		c6.1-0.6,10.5-4.2,14.5-8.3c2.6-2.7,3.5-5.9,2.1-9.7c-1.9-5.2-3.7-10.5-5.3-15.8c-2.3-7.8-6.1-15-9.9-22.2
		c-0.8-1.6-1.4-1.6-2.6-0.3c-4.4,5.4-10.1,9-16.7,11c-2.6,0.8-5.6,1-8.3,0.8c-2.6-0.2-3.9-2.3-3.6-4.5c0.2-2.2,1.5-3.1,4.3-3.3
		c8.1-0.5,14.3-4.4,19.1-10.8c1.7-2.3,2.3-4.5,0.6-7c-0.7-1-1-2.2-1.4-3.4c-0.6-1.7-1.2-3-3.4-2c-0.8,0.4-1.9,0.3-2.8,0.2
		c-2.3-0.1-3.7-1.4-4-3.3c-0.3-2,0.8-3.5,2.9-4.3c0.9-0.3,1.8-0.5,2.7-0.8c1.2-0.4,1.7-1.2,1.5-2.5c-0.9-4.5-0.1-8.9,0.8-13.3
		c0.3-1.6-0.1-2.6-1.5-3.3c-1-0.5-1.9-1-2.8-1.6c-4.4-2.8-6.9-7.2-8.9-11.8c-1-2.2-0.2-4.6,1.4-5.4c1.8-1,4.1-0.3,5.6,1.8
		c1.2,1.6,2,3.6,3.3,5.1s2.8,2.9,4.3,4.2c1.3,1.1,2.6,1,3.8-0.4c1.5-1.7,3.3-3.3,5.1-4.7c1.3-1,2.2-1.9,2.4-3.9
		c0.2-2.6,2.6-4.2,4.6-2.9c2.9,1.9,5.4,0.6,8.1-0.1c1.6-0.4,2-1.3,2-2.9c0-3.4,0.3-6.7,0.7-10.1c0.2-1.3,0.9-2.6,1.6-3.6
		c1.2-1.7,3.4-2.2,5.1-1.4c1.7,0.9,2.1,2.4,1.9,4.1c-0.1,0.8-0.5,1.6-0.5,2.4c-0.2,2.8-0.4,5.6-0.3,8.5c0,0.5,0.9,1.1,1.4,1.6
		c0.3-0.6,0.9-1.3,0.8-1.9c-0.4-7.2-0.6-14.3,0.9-21.4c0.5-2.2,0.2-2.4-1.9-1.8c-5.7,1.8-11.4,3.5-17,5.4c-5.7,1.9-6.8,1-5.7,8.3
		c0.1,0.4,0.1,0.8,0.1,1.2c-0.2,2-1.3,3.4-3.1,3.8c-1.7,0.4-3.5-0.4-4.4-2.2c-0.5-0.9-0.6-2-0.8-3.1c-0.4-2.6-0.5-2.7-2.6-1.7
		c-3.8,1.8-7.5,3.8-11.1,5.9c-1,0.6-1.8,1.9-2.4,3.1c-0.7,1.6-1.7,3.1-3.5,3c-2.6-0.1-4,1.4-5.4,3c-2.5,2.8-5,5.7-7.3,8.7
		s-2.3,3.9,0,6.8c0.9,1.2,2.4,2.3,3.8,2.8c3.4,1.4,6.9,2.5,10.3,3.6c2.5,0.9,3.4,2.2,3.1,4.5c-0.3,2-1.7,3.4-4,3.3
		c-1.9,0-3.8-0.4-5.5-1c-4.9-1.7-9.8-3.5-14-7.2c-2,5.8-1.9,11.4-2.5,16.9c-0.2,2.3,1.3,3.8,3.3,4.6c1.4,0.5,2.9,0.9,4.3,1
		c3.2,0.2,6.5,0.1,9.7,0.1c2.4,0,3.9,1,4.4,2.8c0.5,2-0.4,3.9-2.6,4.9c-0.8,0.4-1.8,0.7-2.7,0.7c-3.4,0-6.8,0-10.1-0.4
		c-5.2-0.7-5.3-0.8-3.5,3.9c4.2,10.9,8.4,21.7,10.3,33.3c0.2,1.4,1,2.4,2.5,2.8c6,1.9,11.7,1.6,17.2-1.6c1.6-1,3.1-2.2,4.7-3.2
		c1.8-1.2,3.5-2.5,5.4-3.6c2.3-1.3,4.8-0.8,5.9,0.7c1.2,1.6,1,4.2-1.1,5.8c-5,3.9-10,8-16.1,10c-4.9,1.6-9.8,1.5-14.8,0.6
		c-2.4-0.4-2.7-0.4-3,1.9c-0.8,6-2.6,11.6-5.4,16.9c-0.9,1.7-0.4,2.5,1.2,3.1c4.7,1.6,9.3,3.7,14.5,2.7c2.3-0.4,3.8,0.7,4.5,2.6
		c0.6,1.9-0.2,4.1-2.4,4.9c-2,0.7-4.2,1.1-6.3,1c-5.5-0.3-10.5-2.4-15.5-4.6c-1.6-0.7-2.7-0.8-4,0.5c-3.1,3-6.3,6-9.5,8.8
		c-1.5,1.3-1.4,2.4-0.3,3.8c3.8,4.7,8,8.8,13.8,11.1c4.4,1.7,8.8,3.6,13.4,4.8c6.2,1.6,12.4,4.3,19,1.3c1.4-0.6,3.2,0,3.9,1.4
		c0.6,1.2,0.9,3,0.4,4.2c-0.6,1.4-2,2.7-3.3,3.3c-1.8,0.8-3.9,1.1-5.9,1.1c-10.2,0-19.6-3.7-28.9-7.5c-6.1-2.5-11.4-6-15.8-11.1
		c-1.5-1.7-2.5-5.1-5-4.7c-2.3,0.4-4.2,2.8-6.3,4.3c-1.4,1.1-1.8,2.5-1.7,4.3c0.5,5.4,2.7,9.9,6.8,13.4c5.3,4.6,11,8.8,17.5,11.7
		c0.7,0.3,1.5,0.7,2.1,1.2c1.8,1.3,2.4,3.1,1.8,4.9c-0.7,1.9-2.8,3.2-4.9,2.6c-2.3-0.7-4.7-1.5-6.7-2.8c-4.4-2.8-8.8-5.8-13-9.1
		c-5.5-4.2-9.6-9.5-11.1-16.5c-0.5-2.5-1.1-2.6-3.3-1c-0.8,0.5-1.6,1.2-2,1.9c-4,7.4-4.5,20.5,1.5,26.9c1.5,1.6,2.8,3.3,4,5.1
		c1.2,1.8,1,3.9-0.4,5.2c-1.5,1.4-3.5,1.6-5.1,0c-4.7-4.7-9.4-9.5-10.4-16.5c-0.5-3.6-0.6-7.3-0.9-10.9c-0.1-0.8-0.1-1.7-0.2-2.8
		c-4.3,4.2-6.9,8.6-9.2,14.7c-1.2,3.2-1.6,6.4-0.5,9.5c1.5,4.5,3.3,8.8,5,13.2c0.4,1,1,2,1.1,3c0.4,3.3-2.4,5.4-5.4,4
		c-0.6-0.2-1-0.6-2-1.3c0.5,1.5,0.7,2.6,1.3,3.4c4.6,7.2,9.7,14.1,16.9,18.9c9.7,6.5,20.8,7.3,32.1,7.5c-11-2-20.7-7.1-30.3-12.4
		c-1.4-0.8-2.8-1.6-4-2.7c-1.4-1.4-1.5-3.3-0.5-4.8c1-1.6,2.6-1.9,4.3-1.5c0.9,0.2,1.7,0.7,2.6,1.2c3.7,1.9,7.4,4,11.2,5.7
		c14.2,6.6,29.1,9.1,44.7,6.7C399.6,363.3,405.1,360,409.7,354.9z M490,245.6c-3.1,1.4-4.8,3.9-5.8,6.7c-5.2,14-6.5,28.3-3.6,43.1
		c1,5.1,3.6,8.9,7.1,12.5c1.5,1.5,3.1,3,4.7,4.4c2.8,2.5,5.4,4,7.7,4.4c-3.4-3.5-7-7.2-10.5-11c-1-1.1-1.8-2.4-2.3-3.8
		c-0.5-1.5-0.1-3,1.3-4s3-1.3,4.5-0.2c0.9,0.6,1.5,1.5,2.3,2.3c3.1,3.1,6,6.3,9.2,9.1c8.1,7.2,17.3,12.7,28.3,14
		c3.1,0.4,6.2,0.4,9.3,0.2c1.1-0.1,2.9-1,3.2-1.9c0.6-1.7-1.3-2-2.5-2.5c-5.2-2.3-10.5-4.3-15.6-6.8c-2.5-1.2-4.8-3-6.8-5
		c-1.6-1.6-1.3-4.2,0-5.6c1.5-1.5,3.5-1.7,5.5,0c4.5,3.8,9.8,5.7,15.2,7.4c7.3,2.2,14.2,1.7,20-4c1.4-1.4,3-2.8,4.3-4.3
		c2.9-3.2,5.8-6.4,8.7-9.7c0.4-0.4,0.8-0.8,1-1.3c0.7-1.2,0.2-2.2-1.1-2.3c-0.9-0.1-1.9,0-2.8,0.1c-4.2,0.1-8.1-1-11.7-2.8
		c-2-1-2.7-3-2.1-4.8c0.7-1.9,2.2-2.8,4.5-2.5c0.9,0.1,1.8,0.4,2.7,0.7c4.1,1.4,8.1,1.5,12.3,0.4c2.3-0.6,3.9-1.6,4.9-3.7
		c2.1-4.5,4.3-9,6.4-13.6c0.8-1.8,1.6-3.6,2.4-5.4c-2.1-0.3-4.2-0.7-6.4-0.9c-5.9-0.7-11.1-3.3-16.1-6.3c-0.6-0.3-1.1-0.9-1.5-1.4
		c-1.3-1.8-1.3-4.3,0-5.6c1.2-1.3,3.2-1.4,5.2-0.2c0.4,0.2,0.6,0.5,1,0.7c5.7,3.3,11.8,5.4,18.5,5.1c2.1-0.1,3.2-0.6,3.7-2.8
		c1-4.8,2.2-9.5,3.5-14.2c0.6-2.2,0.5-3.6-1.4-5.3c-2.4-2.1-1.9-5.2,0.9-6.2c2.3-0.8,2.6-2.2,2.9-4.2c1.4-8.7,2.2-17.4,2.4-26.2
		c0.1-3,0.2-2.9-2.6-3.2c-1.2-0.1-2.4-0.5-3.4-1.1c-1.4-0.8-2-2.4-1.4-3.9c0.5-1.1,1.7-1.9,2.7-2.7c0.4-0.3,1.1-0.1,1.6-0.3
		c2.9-0.7,3.2-0.9,3-3.8c-0.4-4.8-0.8-9.7-1.5-14.5c-1-7.1-1.7-14.2-0.7-21.4c0.2-1.7,1.1-3.8,0.5-5.1s-2.9-1.6-4.4-2.5
		c-2.6-1.6-5.5-3.1-7.7-5.1c-2.4-2.2-1.6-6,1.2-6.5c1.3-0.2,2.9,0.3,4.2,0.8c2.2,1,4.2,2.5,6.4,3.6c4,1.9,4,1.8,6.7-1.5
		c0.8-0.9,1.5-2,2.3-2.8c1.1-1.1,1.1-2,0-3.1c-1.5-1.5-2.5-3.2-2.4-5.4c0.1-1.6,0.7-2.9,2.3-3.5c1.5-0.7,2.9-0.3,4.1,0.9
		c0.7,0.7,1.2,1.5,1.8,2.2c1.8,2.3,3.8,3.7,7,2.5c1.1-0.4,2.4-0.4,3.6-0.4c4,0,8,0,12.1,0c-0.9-3.4-2-6.9-2.7-10.4
		c-0.3-1.8,0-3.7,0.5-5.5c0.4-1.6,2-2.1,3.6-2c1.5,0.1,2.6,0.8,3.1,2.2c0.3,1,0.5,2.1,0.7,3.2c1.2,7.1,4,13.6,8.7,19.3
		c-4.8-11.7-4.9-23.8-3.1-36.5c-1.7,1-2.7,1.6-3.7,2.3c-5.3,3.5-11.1,5.4-17.6,5.1c-3.5-0.2-7.1-0.2-10.6,0.1
		c-3.3,0.3-6.7,0.9-10,1.7c-2.8,0.7-3.1,1.5-2.2,4.1c0.5,1.5,1.4,2.9,2.3,4.2c1,1.5,1.5,2.9,0.5,4.5c-0.9,1.5-2.6,2-4.7,1.6
		c-2-0.4-3.3-1.9-4.2-3.5c-0.8-1.4-1.4-2.9-2.1-4.3c-5.4,3-12,11.3-14.3,17.7c-3,8.1-2.6,16.8-4,25.2c-0.4,2.4,0.5,4.1,2.2,5.7
		c3.7,3.6,8.2,5.6,13.4,6.1c1.9,0.2,3.3,1.2,3.8,3.1c0.4,1.8-0.7,3.6-2.6,4.6c-1.8,0.9-3.6,0.7-5.5,0.2c-4.8-1.4-9.3-3.5-13.3-6.7
		c-1.3,4.5-2.4,8.7-3.7,12.8c-0.5,1.6,0,2.6,1,3.6c3.5,3.4,6.8,7,12.2,7.5c1,0.1,2.3,1.4,2.8,2.5c0.8,1.5-0.1,2.9-1.3,3.9
		c-2.3,2.1-5.1,2-7.6,0.8c-2.9-1.4-5.5-3.4-8.1-5.3c-1.2-0.8-2.2-1.9-3.2-2.8c-2.5,3.7-4.7,7.3-7,10.8c-1.3,2-2.1,4.2-0.5,6.4
		c4.6,6.7,9,13.6,16,18.2c2.7,1.8,5.7,3.1,8.6,4.6c1.7,0.9,2.7,2.2,2.6,4.2c-0.1,1.9-1.6,3.5-3.8,3.6c-1.7,0.1-3.5-0.3-5-1
		c-4.9-2.3-9.6-5.2-13.1-9.4c-4-4.6-7.6-9.5-11.3-14.3c-0.5-0.7-1-1.4-1.6-2.1c-3.7,3.8-7.2,7.5-10.7,11c-1.1,1.1-1.8,2.3-1.3,4
		c1.3,4.4,2.6,8.8,5.9,12.3c1,1.1,2,2.2,2.8,3.5c1.6,2.4,1.4,4.8-0.3,6.2c-1.8,1.4-4,1.1-6.1-1.1c-0.2-0.2-0.4-0.4-0.5-0.6
		c-3.3-4.1-6.8-8.1-8.3-13.4c-0.6-2.1-0.9-2.1-2.7-0.8c-4.1,3-8.2,6.2-12.4,9.1c-2.6,1.9-2.8,1.8-1.7,4.9
		c3.8,11.6,10.5,21.2,19,29.8c1,1,2.4,1.7,3.5,2.8c1.4,1.3,1.9,2.9,1,4.8s-2.5,2.5-4.3,2.2c-1-0.2-2.1-0.5-3-1.1
		c-1.4-0.9-2.6-1.9-3.8-3c-6.5-6.4-11.5-13.9-15.7-22.1c-1.7-3.4-3.1-6.9-4.4-10.4c-0.7-1.8-1.5-2-3-1.1c-1.8,1-3.6,1.9-5.3,3
		c-0.7,0.5-1.5,1.3-1.8,2.1c-2,7-4.1,14-3.5,21.5c0.6,7.3,2.2,14.2,6.8,20c0.5,0.6,1,1.3,1.4,2c1.1,2,0.9,3.9-0.5,5.2
		c-1.3,1.2-3.6,1.5-5.3,0.3c-1.2-0.8-2.3-1.9-3.1-3.1c-6.7-9.4-8.3-20.1-7.4-31.3C489.3,251.3,489.7,248.5,490,245.6z M657.2,94.6
		c0.3,17.9,7.2,30.1,19.1,39.7c10.8,8.7,23.5,11.7,37.4,10.1c27.2-3,51-28.3,47.2-59.1c-1.2-9.8-5-18.6-11.6-25.9
		c-14.2-15.6-31.9-20.1-52.1-15.1c-10.1,2.5-18.6,7.8-25.8,15.5c-1,1.1-1.5,1.8,0.4,2.6c2.5,1.1,3.7,3.4,4.7,5.9
		c2.8,7.2,2.3,14.3-0.4,21.4c-0.8,2-1.7,4-2.5,6c-0.6,1.5-0.4,2.6,1.2,3.3c0.5,0.2,1,0.5,1.5,0.7c5.8,3.1,8.4,7.8,7.8,14.3
		c-0.1,1.6-0.1,3.3-0.3,4.9c-0.2,1.9-0.1,3.1,2.4,3.8c2.7,0.7,3.3,3.7,1.7,6c-1.4,2.1-3.5,3-6,2.6c-4.2-0.6-7.1-3.8-7.2-8
		c0-3,0.4-5.9,0.7-8.9c0.4-3.3-0.7-5.8-3.9-7.2c-1-0.4-2-0.9-2.9-1.5c-3.5-2.1-4.9-4.9-4.1-8.9c0.5-2.2,1.4-4.4,2.2-6.5
		c0.9-2.7,2-5.3,2.8-8c1-3.5,0.8-7-0.5-10.4c-0.7-1.9-1.7-2.5-3.4-1.4c-1.4,0.9-2.7,2.3-3.4,3.7C658.7,80.8,657.4,88.1,657.2,94.6z
		 M458.5,117.9c0.4,4.3,0.6,8.6,1.3,12.9c1,6.2,2.5,12.3,6.7,17.2c2.7,3.2,5.6,6.3,8.8,9c10.1,8.5,22,12.1,35.1,11.4
		c13-0.7,24.5-5.6,34-14.6c13.5-12.9,19.5-28.6,16.4-47c-4.1-24.5-25-42.1-52.7-40.7c-11.7,0.6-22.1,5.1-31.2,12.4
		c-2.4,2-2.3,1.9,0,3.8c1.3,1.1,2.7,2.4,3.5,3.8c2.3,3.9,2.8,8.2,1.7,12.5c-1.3,5.3-3.3,10.3-6.5,14.8c-1,1.4-1.2,2.3,0.3,3.7
		c4.9,4.8,6.7,10.7,5.3,17.4c-0.7,3.2-0.1,5.8,2.7,7.8c1.9,1.4,2.1,3.2,1.2,5s-3.2,3.2-5.1,2.5c-1.7-0.6-3.5-1.7-4.5-3.1
		c-2.9-3.8-4.3-7.9-3.2-12.9c1.1-4.8,0.3-9.2-4.6-11.9c-2.2-1.3-3.1-3.6-2.6-6c0.4-2,1.2-4.1,2.4-5.9c2.6-3.7,4.9-7.5,5.9-11.9
		c0.5-2.2,0.6-4.6,0.2-6.8c-0.5-2.6-2.3-3.2-4.6-1.8c-2.5,1.6-4.7,3.4-6.1,6.3C459.5,102.8,458.6,110.2,458.5,117.9z M473,512.1
		c4.2-1,8.5-1.7,12.6-3c2.3-0.7,4.3-2.2,6.3-3.5c1.2-0.7,1.4-1.7,1.2-3.1c-0.9-5.5-1.4-11-2.4-16.4c-2.1-11.8-6.5-22.8-11.2-33.8
		c-0.3-0.6-0.7-1.2-1.1-1.7c-1.9-2.7-4.2-3.3-7-1.5c-2.2,1.3-4.4,2.8-6,4.8c-5.3,6.4-9.6,13.4-12.4,21.2c-0.7,2-0.8,3.9,0.1,5.9
		c2.3,5.4,4.3,10.8,6.6,16.1c1.5,3.5,3.2,6.9,4.9,10.2S468.9,512.4,473,512.1z M516.2,485.8c-0.1-1.2-0.1-1.7-0.2-2.3
		c-1.8-10.2-3.7-20.5-5.3-30.7c-0.8-5.3-3.5-8.9-8.2-11.1c-0.4-0.2-0.7-0.4-1.1-0.6c-5.3-2.8-7.1-2.2-8.7,3.6
		c-0.9,3.3-2.4,6.8-0.4,10.2c4.7,8.2,7,17.2,9.2,26.3c1,3.9,1.5,8,2.3,11.9c0.2,1.2,0.3,2.6,1.9,2.8c2.4,0.2,4.7,0.3,7.1,0.4
		c0.3,0,0.7-0.8,0.8-1.3C514.7,491.7,515.5,488.4,516.2,485.8z M417.6,492c0,0.7,0,1,0.1,1.2c2.3,8.7,6.5,16.3,13.3,22.3
		c1.1,0.9,1.5,0.5,1.7-0.8c1-6.1,2-12.2,3.3-18.3c1-4.6,2.7-9,3.9-13.6c0.9-3.2-0.8-7.1-3.6-9.1c-2.2-1.5-4.5-1.2-7.7,1.3
		c-4.4,3.5-7.6,8-10,13.1C418,489.4,417.9,490.9,417.6,492z M385.5,499.1c0.5,2.6,0.8,5.3,1.4,7.9c1,4.3,2.2,4.7,5.6,2
		c0.6-0.5,1.2-1.1,1.8-1.7c3.3-3.9,6.5-7.9,9.7-11.9c2.2-2.6,2.3-5.7,1.7-8.8c-0.7-3.6-1.9-4.3-5.6-4.3
		C391.4,482.5,385.5,492,385.5,499.1z M535.8,476.9c2.4-7.6,3.1-14.5,2.1-21.3c-0.5-3.6-2.6-7.1-4-10.6c-0.4-0.8-1-1.6-1.8-2.2
		c-2.7-2-5.6-0.9-5.8,2.4c-0.2,3.1-0.2,6.3,0.2,9.3C527.8,462.3,531.6,469.2,535.8,476.9z M558.4,461.9c3.4,0,3.8-0.4,3.3-2.9
		c-0.9-4.6-3.7-8.1-6.7-11.4c-0.5-0.6-2-1.1-2.4-0.8c-2,1.2-4.3,2.5-5.6,4.4c-1.2,1.6,0.8,3.3,2,4.4c1.8,1.8,3.7,3.5,5.8,5
		C556,461.5,557.7,461.7,558.4,461.9z"/>
	<path d="M470.6,358.4c-1.1,5.5-2,10.1-2.8,14.7c-1.2,6.6-3.2,12.9-7.3,18.3c-1.3,1.7-2.7,3.4-4.4,4.7c-4.5,3.6-9.8,2.5-12.8-2.5
		c-1.9-3.2-2.8-6.8-2.6-10.5c0.2-6.1,0.5-12.2,1.2-18.2c1.9-16.2,4-32.5,5.9-48.7c0.2-1.6,0.1-3.2,0.2-4.9c0.2-2.6,1.1-3.9,3.5-4.3
		c4-0.7,7.6-0.6,11,2.3c5.8,4.9,10.4,10.5,14.3,17c2.8,4.7,6.5,8.9,10,13.2c4.6,5.7,9,11.5,12.4,18c3.8,7.4,3.3,14.9,0.2,22.4
		c-2.4,5.9-9.6,7.7-14.4,3.4c-2.6-2.3-4.7-5.2-6.4-8.3c-2.4-4.4-4.2-9.1-6.3-13.6C472,360.7,471.5,359.9,470.6,358.4z M493.6,369.2
		c-0.9-3-1.3-6.1-2.8-8.6c-3.3-5.4-7-10.6-10.9-15.6c-4.2-5.3-8.7-10.3-11.9-16.3c-2.5-4.7-6.1-8.6-10.3-11.9
		c-1.1-0.9-1.7-0.5-1.8,0.8c-0.1,1.2-0.3,2.3,1,3.2c6.7,4.7,10.3,11.8,14.2,18.5c4.8,8.2,9.1,16.6,12.4,25.5c0.8,2,1.7,4,2.9,5.8
		c1.3,2,3,3.7,4.5,5.6C491.7,373.9,492.6,371.6,493.6,369.2z M459.5,368.9c-2.7,1.7-4.7,3-7.4,1.9c-1.6-0.6-1.9,0.4-2,1.6
		c-0.2,2.8-0.3,5.7-0.4,8.5c0,1.3-0.1,2.7,0.2,4c0.2,1.2,0.7,2.3,1.1,3.4c0.9-0.8,1.9-1.4,2.6-2.3
		C457.1,381,458.5,375.4,459.5,368.9z"/>
	<path d="M281.2,367.3c-0.1-10.6-2.2-20.8-4.1-31c-1.2-6.4-2.5-12.7-3.9-19.1c-1.6-7.3-5.2-13.6-10.5-18.9
		c-5.4-5.3-10.8-10.6-16.4-15.8c-2.5-2.3-5.3-4.2-8.1-6.1c-2.4-1.7-3.2-3.3-2.3-5.4c0.8-2,2.9-3.1,5.4-2.4c1.9,0.5,3.9,1.4,5.4,2.6
		c9.3,7.4,17.9,15.8,25.8,24.7c6.3,7.1,9.1,15.9,10.8,25.1c2,10.6,4,21.3,5.5,32c1.4,10.2,1.6,20.5-0.4,30.7
		c-2.4,12.2-11,20.2-23.1,22.5c-14.1,2.7-26.5-1.2-38.4-8.1c-0.9-0.5-1.8-1.2-2.5-2c-1.6-1.8-1.8-4-0.5-5.5c1.3-1.6,3.3-1.7,5.5-0.6
		c3.8,2,7.7,4,11.6,5.8c7.9,3.5,16,3.5,24.3,1.6c7.7-1.8,12.7-6.6,14.2-14.4C280.3,377.8,280.6,372.5,281.2,367.3z"/>
	<path d="M726.9,79.6c-0.2-1.6-0.7-3.2-0.7-4.8c0-2,0.2-4,0.7-5.9c0.4-1.5,1.8-2.3,3.6-2.1c1.7,0.2,2.8,1,3.2,2.6
		c0.3,1.3,0.5,2.6,0.7,4c0.3,2.7,0.4,5.4,0.9,8.1c0.6,3.6,2.3,6.6,5.3,8.8c2.9,2.2,5.9,2.5,9.1,0.7c0.8-0.5,1.6-1.1,2.4-1.5
		c2.1-1,4-0.7,5.1,0.8c1.2,1.6,1.2,4-0.6,5.5c-2,1.6-4.3,2.8-6.6,3.9c-1.6,0.8-3.3,1.1-5,1.8c-4.1,1.7-7.2,4.5-9.7,8.2
		c-2.6,4-4.7,8.2-6.5,12.6c-0.6,1.4-1.3,2.7-2.2,3.8c-1.3,1.5-3.2,1.7-4.8,0.8c-1.7-1-1.9-2.5-1.6-4.2c0.1-0.5,0.3-1.1,0.5-1.5
		c3.5-6.6,1-15.2-5.3-20.8c-1-0.8-2.4-1.2-3.6-1.6c-3.1-0.8-6.3-1.5-9.5-2.2c-0.9-0.2-1.9-0.4-2.7-0.8c-2.1-1-3-2.7-2.5-4.5
		c0.5-1.9,2.2-3,4.4-2.8c1.7,0.2,3.4,0.7,5.2,1.1c2.1,0.4,4.2,0.9,6.4,1.2c3.2,0.6,6.1-0.3,8.9-2C725.3,86.6,727.2,83.7,726.9,79.6z
		"/>
	<path d="M498.8,114.8c1.6,0.3,3.6,0.5,5.5,1.1c4.4,1.3,8.8,0.8,13.3,0.1c3.3-0.5,5.2-2.5,6.3-5.5c1.9-5.3,1.9-10.3-1.1-15.2
		c-0.5-0.8-0.9-1.7-1.2-2.6c-0.7-2.1,0-4,1.6-5c1.7-1,4.2-0.8,5.6,0.8c1,1.2,1.9,2.7,2.4,4.2c1.2,3.3,2.2,6.7,3.4,10
		c1,2.7,2,5.3,3.2,7.9c1.7,3.3,3.7,4.2,7.3,3.6c1.6-0.3,3.1-1,4.7-1.3c2.8-0.5,5.2,0.9,5.7,3.2c0.5,2.3-0.7,4.1-3.5,5
		c-3.4,1.2-6.9,2.1-10.3,3.5c-2.8,1.1-4.7,3.3-6.3,6c-2.7,4.5-4.6,9.2-5.7,14.2c-0.3,1.6-0.6,3.2-1.1,4.7c-0.9,2.8-3.1,4.2-5.5,3.6
		c-2.6-0.6-3.9-3-3.3-6c0.7-3.7,1.5-7.4,2-11.1c0.6-4.5-0.7-6.8-4.9-8.6c-1.7-0.7-3.6-1.2-5.4-1.6c-4.9-1.1-9.8-2.1-14.6-3.2
		c-0.8-0.2-1.5-0.5-2.2-0.9c-1.4-0.9-2-2.2-1.6-3.8c0.3-1.6,1.4-2.6,3-2.9C496.7,114.8,497.5,114.8,498.8,114.8z"/>
</g>
</svg>
