<?xml version="1.0" encoding="utf-8"?>
<!-- Generator: Adobe Illustrator 21.0.0, SVG Export Plug-In . SVG Version: 6.00 Build 0)  -->
<svg version="1.1"
	 id="svg2" sodipodi:docname="rotcapslogobw.eps" xmlns:cc="http://creativecommons.org/ns#" xmlns:dc="http://purl.org/dc/elements/1.1/" xmlns:inkscape="http://www.inkscape.org/namespaces/inkscape" xmlns:rdf="http://www.w3.org/1999/02/22-rdf-syntax-ns#" xmlns:sodipodi="http://sodipodi.sourceforge.net/DTD/sodipodi-0.dtd" xmlns:svg="http://www.w3.org/2000/svg"
	 xmlns="http://www.w3.org/2000/svg" xmlns:xlink="http://www.w3.org/1999/xlink" x="0px" y="0px" viewBox="0 0 381.8 409.3"
	 style="enable-background:new 0 0 381.8 409.3;" xml:space="preserve">
<style type="text/css">
	.st0{fill:#100F0D;}
	.st1{fill:#FFFFFF;}
	.st2{fill:#231F20;}
</style>
<sodipodi:namedview  bordercolor="#666666" borderopacity="1" gridtolerance="10" guidetolerance="10" id="namedview4" inkscape:pageopacity="0" inkscape:pageshadow="2" inkscape:window-height="480" inkscape:window-width="640" objecttolerance="10" pagecolor="#ffffff">
	</sodipodi:namedview>
<g id="g10" transform="matrix(1.3333333,0,0,-1.3333333,0,409.26667)" inkscape:groupmode="layer" inkscape:label="ink_ext_XXXXXX">
	<g id="g12" transform="scale(0.1)">
		<path id="path14" class="st0" d="M1954.2,746.3c5.2-1.5,14.8-4,24.2-7.2c36-12.2,52.1-43.3,69.4-73.3c9.2-16,22.7-25.5,40.6-16.9
			c18.9,9.2,20.3,26.6,12.6,44.5c-5,11.6-10.5,23.4-18,33.5c-49.9,67-99.8,134-151.4,199.7c-11.3,14.3-28,26.5-44.8,34
			c-38.4,17.1-62.3-2.2-57.7-44.1c4.5-41.5,12.3-82.9,13.2-124.5c1.3-67-2.8-134.2-2.3-201.3c0.1-10.4,12.2-20.7,18.8-31.1
			c9.8,7.2,21.2,13.1,29,22c4.6,5.3,4.5,15.5,5.1,23.6c2.1,29.9,3.6,59.8,5.3,89.7C1899.5,717.8,1927.3,745.6,1954.2,746.3
			L1954.2,746.3z M2192.1,842.4c8.3,3.3,13.2,5.3,18.2,7.3c49,19.9,77.7,56.1,82.9,108.7c4.9,50-9,93.9-51.2,124.8
			c-51.2,37.5-110.6,34.2-169-8.2c-52-37.7-69.1-87.9-47.8-148.6c3.2-9,17.8-18.4,27.7-19.1c6.2-0.4,17.6,14.4,19.3,23.7
			c3.2,17,0.9,34.9,0.9,52.5c22.2-39.6,38-80.8,54.3-121.7c21.8-54.8,43.6-109.7,66.3-164.1c10.8-26,29.2-35.7,45.6-24.6
			c20.5,13.8,15,30.2,5.4,49.7C2225.8,760.8,2210.2,800.6,2192.1,842.4L2192.1,842.4z M1585.9,791.3c-5.5,0-8.2-0.6-10.5,0.1
			c-63.1,20.3-97,5.1-123.5-55.7c-30.9-70.9-7-183.9,51-240.4c48.8-47.6,118.9-50.2,169.6-4.5c55,49.7,85.8,116.5,120.2,180.2
			c4.9,9-2,31.9-10.9,39c-14.1,11.3-28.6,0.7-37.4-14.6c-14.6-25.1-28.3-50.8-44.3-75c-19-28.6-37.9-57.8-60.8-83.2
			c-24.5-27.2-60.4-29.2-86.4-10.5c-50.7,36.6-75,141.1-45.6,196.2c14.4,26.9,28.2,30.3,55.1,13.9c17-10.4,33.5-21.9,51.4-30.5
			c24.8-11.9,49.4,3.4,43.3,27.7c-10.4,41.3-23.5,82-38.8,121.7c-3.3,8.5-20.9,11.4-32,16.9c-4.8-11.3-13.8-22.7-13.4-33.8
			C1573.3,823.3,1580.9,808.1,1585.9,791.3L1585.9,791.3z M2458.8,1262c-3.2-0.4-6.7-1.5-9.9-1.1c-38,4.7-77.6-44.8-86.1-76.1
			c-10.1-37,1.6-65.7,37.4-91.2c14-10,29-18.7,42.9-28.9c36.3-26.7,62.2-62.1,73.6-105c3.7-14-4.1-36.6-14.6-47.5
			c-15.1-15.5-33.9-4.9-47.6,9.3c-15.7,16.4-29.4,35.1-46.8,49.3c-8.9,7.2-25.9,11.7-35.9,8.1c-7.9-2.9-14.8-19.9-15-30.7
			c-0.6-35.2,2.6-70.4,3.6-105.6c0.5-17.5,5.7-31.4,24.9-32.8c20.1-1.4,29.2,11.4,31.5,30c1.2,10.2,2.4,20.4,3.9,33.3
			c8.6-5.3,13.1-8.3,17.8-10.9c63.4-35.3,135.2,4.3,135.8,76.7c0.2,21.9-5.3,45.2-13.9,65.4c-24.8,57.9-67.4,100.5-122.4,130.9
			c-20.5,11.3-29.8,26-15.7,48.8c15.5,25,25.3,27.4,53.5,10.9c10.1-5.9,19.9-12.8,28.7-20.5c12.3-10.7,25.1-20.7,40.9-8.8
			c16.5,12.5,11.5,28.8,3.4,44.2c-14.3,27.3-28.6,54.7-43.6,81.7c-8.5,15.2-18.5,33.2-39.6,23.4c-23-10.6-15-29.4-6.6-46.6
			C2459.7,1267.1,2458.9,1265,2458.8,1262L2458.8,1262z M428.6,852.9l-0.9-0.6c-9.1-13.4-15.6-29.9-27.6-39.8
			c-54.8-44.8-110.2-88.9-167-131.1C182.7,644,154.4,594,144,533.7c-2.6-15,0.2-33.2,6.6-47.2c32.7-71.1,84-95.2,164.6-82.6
			c66.3,10.3,117.8,46.4,163.9,91.3c34.9,34.1,67.2,70.9,101.6,107.5c28.5-41.5,69.6-52.1,116.9-45.6c43.8,6,81,26.5,114.1,54.5
			c70.3,59.4,136.2,123,187.5,200.4c10.3,15.5,22.5,29.8,34.8,45.9c47.2-50,101.1-57.4,156.2-28.1c33.7,17.9,64.8,43.7,91.2,71.5
			c32,33.7,65.4,64.9,109.6,78c54.3,16.2,110.4,26.2,167.8,39.3c15.1-46.5,46.5-66,89.2-58.4c24.9,4.4,53.4,13.7,70.7,30.6
			c24.4,23.9,42.6,55.4,58.5,86.3c11.1,21.4,20.6,33.9,47.6,34.6c39.7,1,79.7,6.6,118.8,13.8c434.1,80.2,760.9,454.9,779.5,886.3
			c11.6,270.4-77.8,503-277.3,687c-267.6,246.7-661.4,305.1-990.8,145.1C1107.4,2675,919.9,2394,895.9,2007.3
			c-4.8-76.8-41.7-123.5-108.9-154.1c-26.7-12.2-53-28.5-74.4-48.4c-22.4-20.9-34.5-49.6-20.3-81.8c13.5-30.7,38.9-41.3,70.7-40.3
			c1,0,2.1-2.2,5.6-6c-18.9-17.8-38-35.5-56.6-53.7c-30.4-29.8-63.1-57.8-90.1-90.5c-38.6-46.9-33.8-84.5,11.1-126.6
			c-61.4-69.5-126.8-134.4-200.8-191.2c-43.8-33.6-87-69.6-123.3-110.7c-28.1-31.8-51.1-71.2-65.6-111.1
			c-20.5-56.8,3.4-114.6,47.5-134.1C335.6,838.8,381.8,835.7,428.6,852.9L428.6,852.9z M0,0c0,1022.7,0,2046.2,0,3069.5
			c954.6,0,1909,0,2863.4,0c0-1022.9,0-2045.6,0-3069.5C1908.8,0,954.3,0,0,0"/>
		<path id="path16" class="st1" d="M669.2,1444.9c28.5,37.3,55.1,74,84,108.8c6.4,7.8,20.9,8.9,31.6,13c4.1-11.7,9.5-23.2,11.7-35.3
			c0.9-4.9-4.4-11.7-8.2-16.7C691,1386.4,590.1,1261.3,458.5,1165c-54.5-39.9-106.2-83.6-141.2-142.2
			c-12.5-20.9-18.8-46.8-22.4-71.2c-3.5-24,9.9-41,35.1-47.6c57.4-15.2,105.9,2.3,148,40.4c20.8,18.9,37.7,42.1,59,60.3
			c8.3,7.1,27.6,11.7,35,6.9c7.7-5,9.5-22.8,9.4-34.9c-0.1-9.2-6.6-18.6-11.2-27.5C510.8,835.3,432.9,738,322,669.3
			c-43.6-27-81.7-60.4-106-107.3c-28.5-54.9,1-105.2,62.2-104.4c40.1,0.5,79.5,8.8,109,36.1c50.5,46.6,100.6,94.4,145.4,146.3
			c46.2,53.6,85.4,113.1,128.5,169.4c54.8,71.6,117.6,133.8,203,168.7c19.6,8,42.4,19.8,54.5-6.2c12.4-26.6-11.9-36.8-31.1-44.9
			c-65.4-27.6-117.6-71.8-161.1-126.7c-32.2-40.6-63.7-81.7-93.6-123.9c-7.4-10.4-14.1-29.8-9.3-38.1c7.5-12.8,24.2-24.9,38.9-27.7
			c38.1-7.2,73.6,7.2,100.3,32.8c59.5,57.1,120.3,113.9,172.2,177.6c61.3,75.1,113.7,157.5,170.1,236.6c6.3,8.9,13.2,17.3,20.3,25.6
			c11.4,13.3,25.2,24.5,41.7,10.3c16.1-13.8,6.8-28.5-2.4-43.5c-26.1-42.3-52.4-84.6-75.8-128.4c-16.9-31.7,2.5-56.9,39.5-53
			c14.1,1.4,30,4.9,41,12.9c26.9,19.6,53.9,40.1,76.5,64.3c61.6,66.3,136.7,101.2,226,113.3c43,5.8,84.1,25.3,126.5,36.7
			c11.4,3.1,32.2,3.5,35.2-2.2c5.6-10.2,4-26.9-0.3-38.9c-3.1-8.7-15.3-14.2-23.7-21.4c6.1-26.2,24.9-23.1,43-19.4
			c39,8,73.7,53.5,73.6,96.5c-146.4,8.5-283.6,49-410.5,124.2c-12.2-9.7-22.2-19.1-33.6-26.3c-30.6-19.3-61.1-39-93.1-55.6
			c-15.6-8.1-36-8.9-43.3,13c-6.8,20.3,9.2,26.5,24.9,34.9c33.6,18,65.2,39.6,100.8,61.7c-212.4,153.9-332,355-368.2,599.2
			c-41.3-23.4-82.4-46.8-123.6-70.2c-18.4-10.5-34.7-22.6-37.3-52.1c13.4,1.9,24.9,1.5,34.6,5.4c21,8.4,40.7,20.2,61.7,28.3
			c8.1,3.2,22,4,27.1-0.7c6.4-6,9.4-19.1,8.2-28.5c-1.3-10.2-7.3-20.9-14.2-28.9c-41.3-48.1-83-95.7-125.4-142.8
			c-23-25.6-48.1-49.3-71-75C649.7,1481.6,648.9,1464.3,669.2,1444.9L669.2,1444.9z M1011.1,2281.6c21,14.1,40.7,30.6,63.2,41.7
			c43,21.3,84.9,13.1,110.3-27.6c18.5-29.7,35.3-66.3,35.7-100c0.7-48.9-13.8-98-22.4-146.9c-7-39.6-14.9-78.9-23.7-125.2
			c12.2,7.1,16.8,9.7,21.4,12.4c81.3,48.5,142.7,23.1,159.2-70.1c12.3-69.6,15.3-140.8,26.2-210.7c9.1-58.1,18.5-117.1,58.7-164.6
			c31.3-37,73.5-36.7,95.1,6.3c16.1,32.3,22.7,69.7,30.4,105.6c4.3,19.8,1.9,43.7,29.6,43.2c28.2-0.5,26.5-24.6,27-44.7
			c1.3-46.8-13.2-89.2-34.7-130.1c-42.6-81.1-150.3-80.7-193.3-12.6c-18.2,28.9-37.6,59.2-45.9,91.6
			c-15.6,60.4-24.4,122.6-34.2,184.4c-7.1,44.8-9.3,90.3-17.2,134.9c-6,33.7-26.8,43.8-55.5,26.2c-20.1-12.3-40.9-29.8-51.1-50.1
			c-15.6-30.9-23.3-66-32.3-99.8c-5.1-19.2-10.7-36.7-34.3-33.7c-22.5,2.8-24.2,21.4-23.6,39.6c0.3,8.2,0.7,16.4,1.7,24.5
			c6.2,49.5,10.8,99.3,19.3,148.3c12.7,73.2,28.4,145.9,42.6,218.8c7.7,39.5,6.3,77.8-16.2,113c-11.2,17.4-26,30.4-47.6,20.2
			c-70.2-33.1-122-86.2-136.6-162.4c-16.5-85.7-15.2-173.6-1.1-260.5c72.6-445.2,482.2-744.5,930.1-679.8
			c448.7,64.8,780,445.5,775.3,895.9c-2.6,252.6-100.9,465.1-299.2,621.6c-258.8,204.2-547.6,236.6-852.3,116.6
			c-236-92.9-399.3-262.4-498.4-494.8c-3.9-9.3-3.8-20.3-5.5-30.4l-1.5,0.7L1011.1,2281.6z M428.6,852.9
			c-46.7-17.2-92.9-14-137.7,5.8c-44.1,19.5-68,77.3-47.5,134.1c14.4,39.9,37.5,79.3,65.6,111.1c36.3,41.2,79.5,77.2,123.3,110.7
			c74,56.7,139.3,121.7,200.8,191.2c-44.9,42.1-49.7,79.7-11.1,126.6c27,32.7,59.7,60.7,90.1,90.5c18.6,18.2,37.8,35.9,56.6,53.7
			c-3.5,3.8-4.6,6-5.6,6c-31.9-1-57.2,9.6-70.7,40.3c-14.2,32.2-2.1,60.9,20.3,81.8c21.3,19.9,47.6,36.3,74.4,48.4
			c67.2,30.5,104.2,77.3,108.9,154.1c23.9,386.7,211.5,667.7,559.1,836.6c329.4,160,723.2,101.6,990.8-145.1
			c199.5-183.9,289-416.6,277.3-687c-18.6-431.4-345.3-806-779.5-886.3c-39.2-7.2-79.1-12.8-118.8-13.8
			c-26.9-0.7-36.5-13.2-47.6-34.6c-15.9-30.8-34.1-62.4-58.5-86.3c-17.3-16.9-45.8-26.1-70.7-30.6c-42.7-7.6-74.1,11.9-89.2,58.4
			c-57.3-13.1-113.5-23.1-167.8-39.3c-44.2-13.2-77.6-44.3-109.6-78c-26.4-27.8-57.5-53.6-91.2-71.5c-55.1-29.3-109-21.9-156.2,28.1
			c-12.4-16.2-24.6-30.4-34.8-45.9c-51.3-77.3-117.2-140.9-187.5-200.4c-33.1-28-70.3-48.5-114.1-54.5
			c-47.3-6.4-88.4,4.1-116.9,45.6C546.2,566.2,514,529.4,479,495.3c-46.1-44.9-97.6-81-163.9-91.3c-80.6-12.6-131.9,11.5-164.6,82.6
			c-6.4,13.9-9.2,32.1-6.6,47.2c10.5,60.3,38.7,110.2,89.1,147.7c56.8,42.2,112.3,86.3,167,131.1c12,9.8,18.5,26.3,27.6,39.7
			c0-0.1,0.9-0.6,0.9-0.6L428.6,852.9"/>
		<path id="path18" class="st1" d="M2458.8,1262c0.1,3,0.9,5.1,0.2,6.5c-8.4,17.2-16.4,35.9,6.6,46.6c21.1,9.8,31.1-8.2,39.6-23.4
			c15-27,29.2-54.4,43.6-81.7c8-15.3,13-31.7-3.4-44.2c-15.7-11.9-28.5-1.9-40.9,8.8c-8.8,7.7-18.6,14.5-28.7,20.5
			c-28.2,16.5-38,14-53.5-10.9c-14.1-22.8-4.8-37.4,15.7-48.8c55-30.4,97.6-72.9,122.4-130.9c8.6-20.2,14.1-43.6,13.9-65.4
			c-0.6-72.4-72.4-112-135.8-76.7c-4.7,2.6-9.2,5.6-17.8,10.9c-1.5-12.9-2.6-23.1-3.9-33.3c-2.3-18.6-11.3-31.5-31.5-30
			c-19.2,1.4-24.5,15.2-24.9,32.8c-0.9,35.2-4.1,70.4-3.6,105.6c0.2,10.8,7.1,27.8,15,30.7c9.9,3.6,27-0.8,35.9-8.1
			c17.4-14.2,31.1-32.9,46.8-49.3c13.6-14.2,32.4-24.8,47.6-9.3c10.6,10.8,18.3,33.5,14.6,47.5c-11.4,43-37.3,78.4-73.6,105
			c-13.9,10.2-28.9,18.9-42.9,28.9c-35.9,25.5-47.6,54.3-37.4,91.2c8.6,31.4,48.1,80.8,86.1,76.1
			C2452.1,1260.5,2455.6,1261.6,2458.8,1262"/>
		<path id="path20" class="st1" d="M1585.9,791.3c-5,16.8-12.6,32-13.1,47.4c-0.4,11.1,8.6,22.5,13.4,33.8c11-5.5,28.7-8.4,32-16.9
			c15.3-39.7,28.4-80.4,38.8-121.7c6.1-24.3-18.4-39.6-43.3-27.7c-17.9,8.6-34.4,20.1-51.4,30.5c-26.9,16.5-40.7,13.1-55.1-13.9
			c-29.4-55.1-5.1-159.6,45.6-196.2c25.9-18.7,61.9-16.7,86.4,10.5c22.9,25.4,41.8,54.6,60.8,83.2c16,24.2,29.7,49.9,44.3,75
			c8.8,15.2,23.3,25.9,37.4,14.6c8.9-7.1,15.8-30,10.9-39c-34.3-63.7-65.2-130.5-120.2-180.2c-50.7-45.8-120.8-43.1-169.6,4.5
			c-58,56.5-81.9,169.5-51,240.4c26.5,60.7,60.4,76,123.5,55.7C1577.7,790.7,1580.4,791.3,1585.9,791.3"/>
		<path id="path22" class="st1" d="M2112.4,1036.2c15.9-37.2,31.4-72.7,46.1-108.5c12.9-31.5,27.8-35.2,54.1-12
			c30.4,26.8,34.9,78.1,9.8,111.2C2196.9,1060.3,2154.9,1064.3,2112.4,1036.2L2112.4,1036.2z M2192.1,842.4
			c18.1-41.8,33.7-81.6,52.6-119.7c9.6-19.5,15.1-35.9-5.4-49.7c-16.4-11.1-34.8-1.4-45.6,24.6c-22.7,54.5-44.5,109.3-66.3,164.1
			c-16.3,40.9-32,82-54.3,121.7c0-17.6,2.3-35.5-0.9-52.5c-1.7-9.4-13.2-24.2-19.3-23.7c-9.9,0.7-24.5,10.1-27.7,19.1
			c-21.3,60.7-4.2,110.9,47.8,148.6c58.4,42.4,117.8,45.7,169,8.2c42.3-30.9,56.1-74.8,51.2-124.8c-5.1-52.6-33.9-88.8-82.9-108.7
			C2205.4,847.6,2200.4,845.7,2192.1,842.4"/>
		<path id="path24" class="st1" d="M1893.5,885.6c-2-1.2-4-2.3-6-3.5c3.5-30.1,7.1-60.2,10.6-90.6c19.5,5.4,36.3,10.1,55.8,15.5
			C1932.5,834.9,1913,860.3,1893.5,885.6z M1954.2,746.3c-27-0.7-54.8-28.5-56-51.4c-1.7-29.9-3.2-59.8-5.3-89.7
			c-0.6-8.1-0.5-18.2-5.1-23.6c-7.8-9-19.1-14.8-29-22c-6.6,10.4-18.7,20.7-18.8,31.1c-0.5,67.1,3.7,134.2,2.3,201.3
			c-0.8,41.6-8.6,83-13.2,124.5c-4.6,42,19.3,61.2,57.7,44.1c16.8-7.5,33.5-19.7,44.8-34c51.6-65.7,101.4-132.7,151.4-199.7
			c7.5-10.1,13-21.9,18-33.5c7.7-17.8,6.3-35.3-12.6-44.5c-17.9-8.7-31.4,0.9-40.6,16.9c-17.3,30-33.4,61.1-69.4,73.3
			C1969.1,742.3,1959.5,744.7,1954.2,746.3"/>
		<path id="path26" class="st0" d="M2250.2,1831.8c-1.1-0.1-2.3-0.3-3.5-0.4c0-10.9,0-21.8,0-32.7c0.1-27.8,11.1-43.1,31-42.8
			c19.5,0.2,34.2,16.8,32.8,42.3c-3.1,56.2-7.1,112.3-12.6,168.3c-9.3,94.7-17.5,188.8,3.5,283.7c12.7,57.3,48.7,84.4,100.5,97.7
			c22.8,5.8,46.2,9.5,69.5,13.5c19.7,3.4,37,9.9,33.1,34c-3.9,23.5-23,25.2-42.3,23.8c-34.4-2.6-68.7-6.8-103.2-7.8
			c-45.1-1.3-90.6-6.7-134,13.6c-85.9,40.3-166.1,89.4-241.9,146.6c-33.1,25-70.1,45.2-106.8,64.6c-16.3,8.6-36.3,11.3-55.1,13.9
			c-17,2.3-30.8-5.7-34.4-23.8c-3.6-18.2,6.3-29.2,22.8-35.2c4.3-1.5,8.8-2.4,13.2-3.5c79-18.9,127.3-70.7,152.1-145.4
			c7.8-23.4,15.1-50.4,11.1-73.7c-12.2-70.7-50.3-127.5-107.1-171.7c-22.9-17.9-46.4-35.2-68-54.6c-35.8-32.2-70.8-65.3-104.9-99.2
			c-14.3-14.2-19-32.8-1.7-48.1c15.8-14,32.1-7.3,46.2,5.7c1.3,1.2,2.5,2.7,3.9,3.8c51.8,45.5,102.6,92.4,156.3,135.6
			c14.6,11.8,37.6,16.3,57.3,18.1c53.4,4.8,97.7-19.4,141.7-47c65.5-40.9,113.7-92.8,126-171.7
			C2241,1903.7,2245.3,1867.7,2250.2,1831.8L2250.2,1831.8z M1011.8,2282.2c1.8,10.2,1.6,21.2,5.5,30.5
			c99.1,232.4,262.4,401.8,498.4,494.8c304.7,120,593.5,87.6,852.3-116.6c198.4-156.5,296.6-369.1,299.2-621.6
			c4.7-450.4-326.6-831.1-775.3-895.9c-447.9-64.7-857.5,234.6-930.1,679.8c-14.2,86.8-15.4,174.8,1.1,260.5
			c14.6,76.2,66.4,129.3,136.6,162.4c21.6,10.2,36.4-2.8,47.6-20.2c22.5-35.1,23.9-73.5,16.2-113c-14.3-72.9-29.9-145.6-42.6-218.8
			c-8.5-49.1-13.1-98.9-19.3-148.3c-1-8.1-1.4-16.3-1.7-24.5c-0.6-18.2,1.1-36.8,23.6-39.6c23.6-2.9,29.2,14.5,34.3,33.7
			c9,33.8,16.8,68.9,32.3,99.8c10.2,20.3,31.1,37.8,51.1,50.1c28.7,17.5,49.5,7.4,55.5-26.2c7.9-44.6,10.1-90.1,17.2-134.9
			c9.8-61.8,18.6-124,34.2-184.4c8.3-32.4,27.7-62.7,45.9-91.6c43-68.2,150.7-68.5,193.3,12.6c21.5,40.9,35.9,83.3,34.7,130.1
			c-0.5,20.2,1.1,44.2-27,44.7c-27.7,0.5-25.3-23.4-29.6-43.2c-7.7-35.8-14.3-73.3-30.4-105.6c-21.5-43.1-63.8-43.4-95.1-6.3
			c-40.2,47.5-49.6,106.6-58.7,164.6c-10.9,69.9-13.9,141.1-26.2,210.7c-16.5,93.3-77.9,118.6-159.2,70.1
			c-4.5-2.7-9.1-5.3-21.4-12.4c8.8,46.3,16.7,85.6,23.7,125.2c8.7,48.9,23.1,98.1,22.4,146.9c-0.4,33.7-17.2,70.3-35.7,100
			c-25.4,40.7-67.2,48.9-110.3,27.6c-22.4-11.1-42.2-27.6-63.2-41.7L1011.8,2282.2"/>
		<path id="path28" class="st0" d="M853.9,1475.3c-1.1,2.6-2.2,5.1-3.3,7.7c8,10.6,15.9,21.2,24,31.7c14.9,19.3,32,37.4,44,58.3
			c4.7,8.2,1.5,25.4-4.7,33.4c-3.8,4.9-24.9,4.5-30-1.1c-27.3-30.1-54.8-60.7-76.8-94.6c-23.9-37-1.1-80.5,42.5-88.4
			c35.9-6.6,64.1,9.1,86.6,34.3c5.6,6.3,6,24.2,1,30.8c-5.2,6.8-20.3,9.2-30.4,8.1c-8.9-1.1-16.4-11-25.5-14.7
			C872.8,1477.5,863.1,1477,853.9,1475.3z M1149.8,1293.4c-5.3,6.8-10.9,20.6-17.5,21.1c-10.3,0.8-26.5-4.4-31.2-12.4
			c-47.7-79.6-103.6-150.6-185.3-198.7c-7.6-4.4-14-25.5-10-31.4c5.8-8.5,21.3-12.3,33.3-13.9c6.6-0.9,14.6,6.2,21.5,10.4
			c78.7,48.6,132.2,120,178,198.2C1142.6,1273.5,1144.9,1281.5,1149.8,1293.4L1149.8,1293.4z M681,1040.8
			c54.9,2.4,100.9,24.6,135,66.9c41.5,51.4,75.9,108.9,131.3,148c2.8,2,6.1,5.7,6.2,8.7c0.2,10.3,2.4,22.8-2.6,30.1
			c-4,6-17.5,8.6-26.2,7.7c-8.1-0.8-16-7.6-23.3-12.8c-44.9-32.4-79.1-74.4-108.7-120.8c-24-37.4-56.3-64.7-102.1-70
			c-12.2-1.4-30.8,1.1-36.5,9c-5.7,8-2.7,26.8,3,37.5c8.8,16.5,23,30.2,35,44.9c39.6,48.4,79.8,96.5,118.6,145.5
			c10.1,12.8,13.7,29.7-2.9,40.9c-16.1,10.9-28.1,1.7-39.2-11.8c-39.2-47.6-79.7-94.1-118.9-141.7c-16.6-20.2-35.5-40.1-46.1-63.4
			C574.3,1095,611.2,1040.5,681,1040.8L681,1040.8z M669.2,1444.9c-20.3,19.4-19.5,36.6-5.7,52.1c22.9,25.7,48,49.4,71,75
			c42.3,47.1,84.1,94.8,125.4,142.8c6.9,8,13,18.8,14.2,28.9c1.2,9.3-1.9,22.5-8.2,28.5c-5,4.7-19,3.9-27.1,0.7
			c-21.1-8.2-40.7-19.9-61.7-28.3c-9.7-3.9-21.2-3.5-34.6-5.4c2.6,29.5,18.9,41.6,37.3,52.1c41.1,23.4,82.3,46.8,123.6,70.2
			c36.2-244.2,155.8-445.3,368.2-599.2c-35.6-22.1-67.3-43.7-100.8-61.7c-15.7-8.4-31.7-14.5-24.9-34.9c7.3-21.9,27.7-21.1,43.3-13
			c32.1,16.6,62.5,36.3,93.1,55.6c11.4,7.2,21.4,16.6,33.6,26.3c127-75.2,264.1-115.7,410.5-124.2c0.1-43-34.7-88.5-73.6-96.5
			c-18-3.7-36.9-6.8-43,19.4c8.4,7.2,20.6,12.7,23.7,21.4c4.3,12,5.8,28.8,0.3,38.9c-3.1,5.7-23.9,5.2-35.2,2.2
			c-42.4-11.4-83.5-30.9-126.5-36.7c-89.4-12.1-164.4-46.9-226-113.3c-22.5-24.3-49.6-44.7-76.5-64.3c-11.1-8.1-26.9-11.5-41-12.9
			c-37-3.8-56.4,21.4-39.5,53c23.4,43.8,49.7,86.1,75.8,128.4c9.3,15,18.5,29.6,2.4,43.5c-16.6,14.3-30.3,3.1-41.7-10.3
			c-7.1-8.3-14-16.8-20.3-25.6c-56.4-79.1-108.8-161.5-170.1-236.6c-51.9-63.7-112.7-120.4-172.2-177.6
			c-26.6-25.6-62.2-40-100.3-32.8c-14.6,2.8-31.4,14.9-38.9,27.7c-4.9,8.3,1.9,27.8,9.3,38.1c29.9,42.2,61.5,83.3,93.6,123.9
			c43.5,54.9,95.7,99.1,161.1,126.7c19.2,8.1,43.4,18.3,31.1,44.9c-12.1,26-34.9,14.2-54.5,6.2c-85.4-34.9-148.2-97.1-203-168.7
			c-43.1-56.3-82.3-115.8-128.5-169.4c-44.8-52-94.9-99.7-145.4-146.3c-29.6-27.3-69-35.6-109-36.1c-61.2-0.8-90.7,49.5-62.2,104.4
			c24.3,46.9,62.4,80.3,106,107.3C432.9,738,510.8,835.3,570.2,949.2c4.6,8.8,11.1,18.3,11.2,27.5c0.1,12.2-1.7,30-9.4,34.9
			c-7.5,4.8-26.7,0.2-35-6.9c-21.3-18.2-38.2-41.5-59-60.3c-42.1-38.1-90.6-55.6-148-40.4c-25.2,6.7-38.6,23.6-35.1,47.6
			c3.6,24.4,9.9,50.3,22.4,71.2c35,58.7,86.7,102.4,141.2,142.2c131.6,96.2,232.5,221.3,329.9,349.8c3.8,5,9.1,11.7,8.2,16.7
			c-2.2,12.1-7.6,23.6-11.7,35.3c-10.8-4.2-25.2-5.3-31.6-13C724.3,1518.9,697.7,1482.2,669.2,1444.9"/>
		<path id="path30" class="st2" d="M1011.1,2281.6l-0.8,1.4c0,0,1.5-0.7,1.5-0.7S1011.1,2281.6,1011.1,2281.6"/>
		<path id="path32" class="st2" d="M428.6,852.9l0-1.2c0,0-0.9,0.6-0.9,0.6C427.7,852.3,428.6,852.9,428.6,852.9"/>
		<path id="path34" class="st0" d="M2112.4,1036.2c42.4,28.1,84.5,24.2,110-9.4c25.2-33.1,20.6-84.4-9.8-111.2
			c-26.3-23.1-41.2-19.5-54.1,12C2143.8,963.5,2128.3,998.9,2112.4,1036.2"/>
		<path id="path36" class="st0" d="M1893.5,885.6c19.5-25.4,39-50.8,60.5-78.6c-19.6-5.4-36.3-10.1-55.8-15.5
			c-3.6,30.4-7.1,60.5-10.6,90.6C1889.5,883.3,1891.5,884.5,1893.5,885.6"/>
		<path id="path38" class="st1" d="M2250.2,1831.8c-4.9,35.9-9.2,72-14.7,107.8c-12.3,78.9-60.5,130.7-126,171.7
			c-44,27.5-88.3,51.7-141.7,47c-19.7-1.8-42.7-6.3-57.3-18.1c-53.7-43.3-104.4-90.1-156.3-135.6c-1.4-1.2-2.5-2.6-3.9-3.8
			c-14-13.1-30.3-19.8-46.2-5.7c-17.2,15.2-12.5,33.9,1.7,48.1c34.2,33.9,69.1,67,104.9,99.2c21.6,19.4,45.1,36.7,68,54.6
			c56.7,44.2,94.9,101,107.1,171.7c4,23.3-3.3,50.3-11.1,73.7c-24.7,74.7-73.1,126.5-152.1,145.4c-4.4,1.1-8.9,1.9-13.2,3.5
			c-16.4,6-26.4,17-22.8,35.2c3.6,18.1,17.3,26.1,34.4,23.8c18.7-2.6,38.7-5.3,55.1-13.9c36.8-19.4,73.8-39.6,106.8-64.6
			c75.8-57.2,155.9-106.4,241.9-146.6c43.4-20.4,88.9-15,134-13.6c34.4,1,68.8,5.2,103.2,7.8c19.3,1.5,38.4-0.3,42.3-23.8
			c3.9-24.1-13.4-30.6-33.1-34c-23.3-4-46.7-7.7-69.5-13.5c-51.9-13.2-87.9-40.4-100.5-97.7c-21-94.9-12.7-188.9-3.5-283.7
			c5.5-56,9.5-112.1,12.6-168.3c1.4-25.5-13.2-42-32.8-42.3c-19.8-0.2-30.9,15-31,42.8c0,10.9,0,21.8,0,32.7
			C2247.9,1831.5,2249,1831.6,2250.2,1831.8"/>
		<path id="path40" class="st1" d="M681,1040.9c-69.7-0.4-106.6,54.1-77.4,118.6c10.6,23.3,29.5,43.2,46.1,63.4
			c39.2,47.6,79.6,94.2,118.9,141.7c11.1,13.5,23.1,22.6,39.2,11.8c16.6-11.2,13-28.1,2.9-40.9c-38.9-49-79-97.1-118.6-145.5
			c-12-14.7-26.2-28.4-35-44.9c-5.7-10.6-8.7-29.4-3-37.5c5.6-7.9,24.3-10.4,36.5-9c45.7,5.3,78.1,32.6,102.1,70
			c29.7,46.3,63.9,88.3,108.7,120.8c7.2,5.2,15.1,12,23.3,12.8c8.8,0.9,22.2-1.7,26.2-7.7c5-7.3,2.8-19.9,2.6-30.1
			c-0.1-3-3.4-6.7-6.2-8.7c-55.4-39.1-89.8-96.6-131.3-148C781.9,1065.4,735.8,1043.2,681,1040.9"/>
		<path id="path42" class="st1" d="M1149.8,1293.4c-5-11.9-7.2-19.8-11.3-26.7c-45.8-78.1-99.3-149.5-178-198.2
			c-6.9-4.3-14.9-11.3-21.5-10.4c-11.9,1.7-27.4,5.4-33.3,13.9c-4,5.8,2.5,26.9,10,31.4c81.7,48.1,137.6,119.1,185.3,198.7
			c4.8,8,20.9,13.2,31.2,12.4C1138.9,1314,1144.6,1300.2,1149.8,1293.4"/>
		<path id="path44" class="st1" d="M853.9,1475.3c9.2,1.8,18.9,2.2,27.4,5.6c9.1,3.7,16.6,13.6,25.5,14.7
			c10.1,1.2,25.3-1.3,30.4-8.1c5-6.6,4.6-24.6-1-30.8c-22.5-25.3-50.7-40.9-86.6-34.3c-43.5,8-66.4,51.4-42.5,88.4
			c22,34,49.5,64.6,76.8,94.6c5.1,5.6,26.2,6,30,1.1c6.2-8,9.3-25.3,4.7-33.4c-12-21-29.1-39.1-44-58.3c-8.1-10.5-16-21.2-24-31.7
			C851.6,1480.4,852.8,1477.9,853.9,1475.3"/>
	</g>
</g>
</svg>
