<?xml version="1.0" encoding="UTF-8" standalone="no"?>
<svg
   xmlns:dc="http://purl.org/dc/elements/1.1/"
   xmlns:cc="http://creativecommons.org/ns#"
   xmlns:rdf="http://www.w3.org/1999/02/22-rdf-syntax-ns#"
   xmlns:svg="http://www.w3.org/2000/svg"
   xmlns="http://www.w3.org/2000/svg"
   xmlns:sodipodi="http://sodipodi.sourceforge.net/DTD/sodipodi-0.dtd"
   xmlns:inkscape="http://www.inkscape.org/namespaces/inkscape"
   version="1.1"
   id="svg2"
   xml:space="preserve"
   width="194.66667"
   height="100.66667"
   viewBox="0 0 194.66667 100.66667"
   sodipodi:docname="shop1.eps"><metadata
     id="metadata8"><rdf:RDF><cc:Work
         rdf:about=""><dc:format>image/svg+xml</dc:format><dc:type
           rdf:resource="http://purl.org/dc/dcmitype/StillImage" /></cc:Work></rdf:RDF></metadata><defs
     id="defs6" /><sodipodi:namedview
     pagecolor="#ffffff"
     bordercolor="#666666"
     borderopacity="1"
     objecttolerance="10"
     gridtolerance="10"
     guidetolerance="10"
     inkscape:pageopacity="0"
     inkscape:pageshadow="2"
     inkscape:window-width="640"
     inkscape:window-height="480"
     id="namedview4" /><g
     id="g10"
     inkscape:groupmode="layer"
     inkscape:label="ink_ext_XXXXXX"
     transform="matrix(1.3333333,0,0,-1.3333333,0,100.66667)"><g
       id="g12"
       transform="scale(0.1)"><path
         d="m 1303.5,412.656 c -5.04,-9.363 -16.93,-21.484 -35.65,-36.355 -15.84,-12.492 -29.4,-20.168 -40.68,-23.047 -11.28,-2.883 -38.05,-5.285 -80.28,-7.199 l -23.76,-0.723 -5.76,-47.519 c -3.37,-34.559 -5.04,-55.918 -5.04,-64.083 l -0.71,-17.277 25.92,-1.433 c 13.91,-1.446 23.5,-3.731 28.79,-6.844 5.28,-3.125 6.95,-7.563 5.05,-13.321 -1.44,-2.882 -5.53,-4.679 -12.24,-5.402 -6.74,-0.723 -21.37,-0.359 -43.93,1.082 -35.03,1.914 -55.43,4.32 -61.2,7.199 -8.16,4.317 -8.4,8.645 -0.71,12.957 4.79,3.352 11.75,5.039 20.88,5.039 h 17.28 l 2.88,36.719 c 11.03,155.996 18.47,244.809 22.32,266.406 3.34,18.723 3.83,30.122 1.44,34.204 -2.42,4.07 -10.09,5.144 -23.04,3.242 -8.64,-0.969 -14.3,-1.211 -16.93,-0.727 -2.64,0.473 -3.95,2.395 -3.95,5.766 0,7.664 11.99,14.871 36,21.598 13.43,3.351 35.03,4.191 64.8,2.523 29.75,-1.691 49.91,-4.691 60.47,-9.008 23.05,-10.074 41.41,-26.043 55.09,-47.879 13.68,-21.844 20.51,-46.203 20.51,-73.078 0,-19.207 -2.51,-33.484 -7.55,-42.84 z m -269.63,-6.125 c -2.89,-40.801 -8.05,-72.605 -15.49,-95.398 -7.44,-22.805 -19.794,-44.766 -37.071,-65.879 -10.567,-12.957 -20.293,-22.316 -29.161,-28.074 -8.894,-5.762 -20.41,-10.332 -34.57,-13.684 -14.16,-3.367 -36.355,-6.484 -66.601,-9.363 -54.239,-5.754 -95.516,21.355 -123.829,81.363 -10.566,22.07 -15.839,42.484 -15.839,61.203 0,17.278 2.382,36.36 7.187,57.239 4.805,20.875 11.277,38.992 19.442,54.351 8.156,16.801 22.328,35.156 42.484,55.09 20.164,19.914 39.351,34.668 57.605,44.277 11.036,5.274 18.828,8.75 23.399,10.442 4.551,1.675 11.512,2.988 20.879,3.953 9.355,0.957 20.754,0.957 34.199,0 32.148,-0.965 51.113,-3.125 56.875,-6.477 10.078,-5.293 20.273,-15.476 30.601,-30.601 10.32,-15.118 18.11,-30.364 23.4,-45.715 3.83,-12.488 6.12,-23.399 6.84,-32.766 0.72,-9.351 0.6,-22.676 -0.35,-39.961 z M 669.551,195.574 c -18.723,-1.441 -32.656,-4.082 -41.758,-7.918 -8.645,-3.371 -14.402,-4.929 -17.285,-4.676 -2.879,0.235 -4.317,2.262 -4.317,6.114 0,3.836 3.352,7.437 10.079,10.801 5.273,2.402 8.398,7.554 9.355,15.476 0.957,7.922 0.957,33.953 0,78.125 -0.957,59.043 -2.871,90.234 -5.762,93.606 -2.871,2.871 -23.027,0.711 -60.468,-6.489 -35.047,-6.726 -64.571,-10.332 -88.567,-10.8 l -31.68,-1.434 -1.433,-74.883 c -0.977,-50.891 -0.723,-77.766 0.715,-80.644 1.433,-3.848 13.425,-3.36 36.004,1.445 14.863,2.883 24.707,4.199 29.511,3.957 4.793,-0.246 8.887,-1.801 12.246,-4.68 9.114,-9.609 1.68,-16.804 -22.324,-21.601 -17.762,-4.317 -42.48,-6.477 -74.16,-6.477 -13.437,0 -22.324,0.473 -26.641,1.438 -4.316,0.957 -6.718,3.117 -7.199,6.484 -0.965,2.883 -0.711,4.91 0.715,6.113 1.445,1.192 4.324,1.809 8.652,1.809 10.547,0 16.914,5.039 19.082,15.113 2.149,10.078 3.235,39.602 3.235,88.567 0,59.511 2.39,114.953 7.195,166.32 5.274,48.953 6.953,75.348 5.039,79.195 -2.402,2.395 -7.91,3.598 -16.562,3.598 -16.321,0 -27.832,3.355 -34.551,10.086 -1.445,1.433 -1.692,2.883 -0.723,4.316 1.446,2.883 10.547,4.563 27.364,5.039 14.863,0 33.117,3.114 54.714,9.364 39.348,10.546 59.036,10.546 59.036,0 0,-4.801 -11.758,-10.563 -35.274,-17.286 l -35.273,-10.078 -2.891,-20.164 c -1.914,-12.004 -3.594,-39.355 -5.039,-82.07 l -1.438,-61.199 25.918,-1.45 c 9.602,-0.476 23.157,0.598 40.676,3.247 17.52,2.632 36.004,6.121 55.449,10.437 19.434,4.316 32.032,6.719 37.793,7.195 l 23.047,4.328 v 20.157 c -0.488,56.633 -1.328,90 -2.519,100.078 -1.211,10.078 -5.164,16.316 -11.883,18.722 -5.754,1.915 -8.891,3.602 -9.359,5.04 -0.489,1.445 0.714,3.359 3.605,5.757 5.754,5.766 19.07,11.633 39.961,17.641 20.879,5.992 32.988,7.566 36.348,4.687 5.761,-5.761 0.246,-12.011 -16.551,-18.722 l -6.477,-2.156 c -12.5,-4.329 -19.453,-10.332 -20.886,-18.008 -0.969,-6.242 0.476,-41.289 4.324,-105.117 0.469,-14.883 1.914,-42.012 4.316,-81.36 2.403,-39.363 3.828,-65.515 4.317,-78.484 l 3.601,-66.242 23.039,-2.161 c 15.84,-1.921 23.762,-5.039 23.762,-9.351 0,-4.809 -9.359,-8.41 -28.078,-10.805 z M 357.07,531.453 c -4.316,-11.277 -9.609,-23.289 -15.84,-35.992 -6.25,-12.727 -11.765,-22.453 -16.562,-29.16 -7.676,-11.528 -14.16,-16.567 -19.434,-15.129 -1.933,0 -2.89,1.445 -2.89,4.324 0,3.352 3.847,12.961 11.523,28.801 6.719,12.961 9.961,22.676 9.727,29.16 -0.254,6.477 -4.453,14.512 -12.598,24.121 -8.652,11.516 -22.93,14.512 -42.851,8.992 -19.922,-5.515 -35.879,-16.675 -47.875,-33.472 -4.805,-7.688 -8.043,-14.653 -9.719,-20.879 -1.688,-6.25 -2.52,-16.567 -2.52,-30.957 0,-15.371 0.598,-25.207 1.797,-29.524 1.192,-4.328 4.434,-8.175 9.723,-11.523 7.195,-4.805 21.836,-8.406 43.926,-10.801 22.07,-2.402 38.867,-7.922 50.39,-16.562 8.645,-6.731 15,-13.321 19.082,-19.793 4.071,-6.489 7.071,-14.524 9.004,-24.121 1.914,-9.614 3.113,-23.528 3.594,-41.758 l 1.445,-46.809 -18.008,-21.594 c -10.078,-13.445 -22.312,-25.203 -36.718,-35.281 -9.121,-6.238 -16.563,-10.078 -22.317,-11.523 -5.761,-1.438 -16.316,-1.922 -31.679,-1.438 -38.407,0.473 -63.36,7.199 -74.879,20.156 -5.758,6.235 -10.078,9.243 -12.961,9.004 -2.879,-0.254 -5.524,-3.965 -7.918,-11.16 -2.41,-5.762 -5.039,-9.355 -7.922,-10.801 -2.879,-1.433 -5.524,-0.246 -7.918,3.606 -1.442,1.914 -0.125,12.832 3.957,32.754 4.074,19.91 8.031,35.398 11.883,46.441 3.836,9.594 7.668,11.516 11.515,5.766 1.442,-3.371 2.164,-8.176 2.164,-14.406 0,-8.165 2.161,-16.68 6.481,-25.555 4.32,-8.891 9.594,-16.203 15.84,-21.965 5.758,-5.281 20.629,-9.121 44.636,-11.523 20.165,-1.922 35.282,-0.965 45.368,2.878 10.078,3.84 21.836,12.961 35.273,27.368 10.547,11.992 17.031,22.672 19.441,32.039 2.395,9.355 2.883,24.59 1.438,45.722 -1.438,15.352 -3.125,25.664 -5.039,30.957 -1.926,5.274 -6.731,11.27 -14.395,17.997 -11.523,10.082 -21.855,15.121 -30.964,15.121 -12.493,0 -26.399,2.168 -41.758,6.484 -15.367,4.312 -26.168,9.109 -32.399,14.395 -5.289,4.324 -8.765,9.238 -10.445,14.761 -1.684,5.512 -3.004,15.949 -3.961,31.321 -0.965,24.953 0.238,42.238 3.606,51.835 3.832,12.481 13.675,25.672 29.515,39.61 15.84,13.918 33.125,23.398 51.836,28.437 18.731,5.039 35.762,0.828 51.133,-12.597 8.633,-8.645 14.394,-13.086 17.273,-13.321 2.883,-0.254 5.996,3.477 9.36,11.153 2.879,6.718 6.121,9.726 9.715,9.004 3.601,-0.723 5.41,-4.676 5.41,-11.883 0,-3.852 -2.168,-11.406 -6.485,-22.68 z M 0,755 V 0 H 1460 V 755 H 0"
         style="fill:#100f0d;fill-opacity:1;fill-rule:nonzero;stroke:none"
         id="path14" /><path
         d="m 935.215,538.293 c -19.688,9.117 -35.391,13.914 -47.149,14.402 -11.777,0.469 -24.609,-3.359 -38.523,-11.523 -9.609,-5.762 -19.563,-13.438 -29.875,-23.035 -10.332,-9.614 -19.934,-20.157 -28.809,-31.684 -8.886,-11.519 -15.957,-22.801 -21.242,-33.836 -6.238,-12.488 -12,-30.969 -17.273,-55.437 -5.293,-24.485 -7.918,-44.895 -7.918,-61.203 0,-11.043 3.836,-25.45 11.512,-43.204 7.675,-17.761 16.074,-31.445 25.207,-41.035 13.425,-13.933 31.199,-24.25 53.281,-30.968 22.066,-6.727 44.637,-8.629 67.676,-5.75 13.425,1.433 23.757,3.71 30.964,6.835 7.2,3.118 13.672,7.918 19.434,14.407 5.762,6.472 11.992,16.433 18.723,29.871 9.597,17.754 16.433,35.644 20.515,53.64 4.082,18 7.317,44.036 9.722,78.118 1.92,31.679 0,55.449 -5.757,71.289 -10.078,31.191 -30.234,54.226 -60.488,69.113"
         style="fill:#100f0d;fill-opacity:1;fill-rule:nonzero;stroke:none"
         id="path16" /><path
         d="m 1263.9,517.773 c -11.77,17.52 -27.97,29.395 -48.61,35.645 -12,3.84 -25.68,6.477 -41.03,7.922 -10.57,1.433 -17.53,1.797 -20.88,1.07 -3.37,-0.711 -6.02,-2.996 -7.93,-6.836 -3.85,-7.195 -7.44,-24.844 -10.8,-52.918 -3.36,-28.086 -5.28,-55.566 -5.75,-82.441 l -0.73,-51.836 h 39.6 c 18.72,0.469 32.28,1.309 40.69,2.519 8.39,1.192 15.84,3.711 22.32,7.559 6.48,3.84 15.47,10.801 26.99,20.879 l 25.92,23.035 -1.43,30.246 c -0.48,25.918 -6.62,47.625 -18.36,65.156"
         style="fill:#100f0d;fill-opacity:1;fill-rule:nonzero;stroke:none"
         id="path18" /><path
         d="m 358.145,566.016 c -3.594,0.722 -6.836,-2.286 -9.715,-9.004 -3.364,-7.676 -6.477,-11.407 -9.36,-11.153 -2.879,0.235 -8.64,4.676 -17.273,13.321 -15.371,13.425 -32.402,17.636 -51.133,12.597 -18.711,-5.039 -35.996,-14.519 -51.836,-28.437 -15.84,-13.938 -25.683,-27.129 -29.515,-39.61 -3.368,-9.597 -4.571,-26.882 -3.606,-51.835 0.957,-15.372 2.277,-25.809 3.961,-31.321 1.68,-5.523 5.156,-10.437 10.445,-14.761 6.231,-5.286 17.032,-10.083 32.399,-14.395 15.359,-4.316 29.265,-6.484 41.758,-6.484 9.109,0 19.441,-5.039 30.964,-15.121 7.664,-6.727 12.469,-12.723 14.395,-17.997 1.914,-5.293 3.601,-15.605 5.039,-30.957 1.445,-21.132 0.957,-36.367 -1.438,-45.722 -2.41,-9.367 -8.894,-20.047 -19.441,-32.039 -13.437,-14.407 -25.195,-23.528 -35.273,-27.368 -10.086,-3.843 -25.203,-4.8 -45.368,-2.878 -24.007,2.402 -38.878,6.242 -44.636,11.523 -6.246,5.762 -11.52,13.074 -15.84,21.965 -4.32,8.875 -6.481,17.39 -6.481,25.555 0,6.23 -0.722,11.035 -2.164,14.406 -3.847,5.75 -7.679,3.828 -11.515,-5.766 -3.852,-11.043 -7.809,-26.531 -11.883,-46.441 -4.082,-19.922 -5.399,-30.84 -3.957,-32.754 2.394,-3.852 5.039,-5.039 7.918,-3.606 2.883,1.446 5.512,5.039 7.922,10.801 2.394,7.195 5.039,10.906 7.918,11.16 2.883,0.239 7.203,-2.769 12.961,-9.004 11.519,-12.957 36.472,-19.683 74.879,-20.156 15.363,-0.484 25.918,0 31.679,1.438 5.754,1.445 13.196,5.285 22.317,11.523 14.406,10.078 26.64,21.836 36.718,35.281 l 18.008,21.594 -1.445,46.809 c -0.481,18.23 -1.68,32.144 -3.594,41.758 -1.933,9.597 -4.933,17.632 -9.004,24.121 -4.082,6.472 -10.437,13.062 -19.082,19.793 -11.523,8.64 -28.32,14.16 -50.39,16.562 -22.09,2.395 -36.731,5.996 -43.926,10.801 -5.289,3.348 -8.531,7.195 -9.723,11.523 -1.199,4.317 -1.797,14.153 -1.797,29.524 0,14.39 0.832,24.707 2.52,30.957 1.676,6.226 4.914,13.191 9.719,20.879 11.996,16.797 27.953,27.957 47.875,33.472 19.921,5.52 34.199,2.524 42.851,-8.992 8.145,-9.609 12.344,-17.644 12.598,-24.121 0.234,-6.484 -3.008,-16.199 -9.727,-29.16 -7.676,-15.84 -11.523,-25.449 -11.523,-28.801 0,-2.879 0.957,-4.324 2.89,-4.324 5.274,-1.438 11.758,3.601 19.434,15.129 4.797,6.707 10.312,16.433 16.562,29.16 6.231,12.703 11.524,24.715 15.84,35.992 4.317,11.274 6.485,18.828 6.485,22.68 0,7.207 -1.809,11.16 -5.41,11.883"
         style="fill:#f5f6f5;fill-opacity:1;fill-rule:nonzero;stroke:none"
         id="path20" /><path
         d="m 673.867,215.73 -23.039,2.161 -3.601,66.242 c -0.489,12.969 -1.914,39.121 -4.317,78.484 -2.402,39.348 -3.847,66.477 -4.316,81.36 -3.848,63.828 -5.293,98.875 -4.324,105.117 1.433,7.676 8.386,13.679 20.886,18.008 l 6.477,2.156 c 16.797,6.711 22.312,12.961 16.551,18.722 -3.36,2.879 -15.469,1.305 -36.348,-4.687 -20.891,-6.008 -34.207,-11.875 -39.961,-17.641 -2.891,-2.398 -4.094,-4.312 -3.605,-5.757 0.468,-1.438 3.605,-3.125 9.359,-5.04 6.719,-2.406 10.672,-8.644 11.883,-18.722 1.191,-10.078 2.031,-43.445 2.519,-100.078 v -20.157 l -23.047,-4.328 c -5.761,-0.476 -18.359,-2.879 -37.793,-7.195 -19.445,-4.316 -37.929,-7.805 -55.449,-10.437 -17.519,-2.649 -31.074,-3.723 -40.676,-3.247 l -25.918,1.45 1.438,61.199 c 1.445,42.715 3.125,70.066 5.039,82.07 l 2.891,20.164 35.273,10.078 c 23.516,6.723 35.274,12.485 35.274,17.286 0,10.546 -19.688,10.546 -59.036,0 -21.597,-6.25 -39.851,-9.364 -54.714,-9.364 -16.817,-0.476 -25.918,-2.156 -27.364,-5.039 -0.969,-1.433 -0.722,-2.883 0.723,-4.316 6.719,-6.731 18.23,-10.086 34.551,-10.086 8.652,0 14.16,-1.203 16.562,-3.598 1.914,-3.847 0.235,-30.242 -5.039,-79.195 -4.805,-51.367 -7.195,-106.809 -7.195,-166.32 0,-48.965 -1.086,-78.489 -3.235,-88.567 -2.168,-10.074 -8.535,-15.113 -19.082,-15.113 -4.328,0 -7.207,-0.617 -8.652,-1.809 -1.426,-1.203 -1.68,-3.23 -0.715,-6.113 0.481,-3.367 2.883,-5.527 7.199,-6.484 4.317,-0.965 13.204,-1.438 26.641,-1.438 31.68,0 56.398,2.16 74.16,6.477 24.004,4.797 31.438,11.992 22.324,21.601 -3.359,2.879 -7.453,4.434 -12.246,4.68 -4.804,0.242 -14.648,-1.074 -29.511,-3.957 -22.579,-4.805 -34.571,-5.293 -36.004,-1.445 -1.438,2.878 -1.692,29.753 -0.715,80.644 l 1.433,74.883 31.68,1.434 c 23.996,0.468 53.52,4.074 88.567,10.8 37.441,7.2 57.597,9.36 60.468,6.489 2.891,-3.372 4.805,-34.563 5.762,-93.606 0.957,-44.172 0.957,-70.203 0,-78.125 -0.957,-7.922 -4.082,-13.074 -9.355,-15.476 -6.727,-3.364 -10.079,-6.965 -10.079,-10.801 0,-3.852 1.438,-5.879 4.317,-6.114 2.883,-0.253 8.64,1.305 17.285,4.676 9.102,3.836 23.035,6.477 41.758,7.918 18.719,2.395 28.078,5.996 28.078,10.805 0,4.312 -7.922,7.43 -23.762,9.351"
         style="fill:#f5f6f5;fill-opacity:1;fill-rule:nonzero;stroke:none"
         id="path22" /><path
         d="m 1001.46,397.891 c -2.405,-34.082 -5.64,-60.118 -9.722,-78.118 -4.082,-17.996 -10.918,-35.886 -20.515,-53.64 -6.731,-13.438 -12.961,-23.399 -18.723,-29.871 -5.762,-6.489 -12.234,-11.289 -19.434,-14.407 -7.207,-3.125 -17.539,-5.402 -30.964,-6.835 -23.039,-2.879 -45.61,-0.977 -67.676,5.75 -22.082,6.718 -39.856,17.035 -53.281,30.968 -9.133,9.59 -17.532,23.274 -25.207,41.035 -7.676,17.754 -11.512,32.161 -11.512,43.204 0,16.308 2.625,36.718 7.918,61.203 5.273,24.468 11.035,42.949 17.273,55.437 5.285,11.035 12.356,22.317 21.242,33.836 8.875,11.527 18.477,22.07 28.809,31.684 10.312,9.597 20.266,17.273 29.875,23.035 13.914,8.164 26.746,11.992 38.523,11.523 11.758,-0.488 27.461,-5.285 47.149,-14.402 30.254,-14.887 50.41,-37.922 60.488,-69.113 5.757,-15.84 7.677,-39.61 5.757,-71.289 z m 25.92,81.367 c -5.29,15.351 -13.08,30.597 -23.4,45.715 -10.328,15.125 -20.523,25.308 -30.601,30.601 -5.762,3.352 -24.727,5.512 -56.875,6.477 -13.445,0.957 -24.844,0.957 -34.199,0 -9.367,-0.965 -16.328,-2.278 -20.879,-3.953 -4.571,-1.692 -12.363,-5.168 -23.399,-10.442 -18.254,-9.609 -37.441,-24.363 -57.605,-44.277 -20.156,-19.934 -34.328,-38.289 -42.484,-55.09 -8.165,-15.359 -14.637,-33.476 -19.442,-54.351 -4.805,-20.879 -7.187,-39.961 -7.187,-57.239 0,-18.719 5.273,-39.133 15.839,-61.203 28.313,-60.008 69.59,-87.117 123.829,-81.363 30.246,2.879 52.441,5.996 66.601,9.363 14.16,3.352 25.676,7.922 34.57,13.684 8.868,5.758 18.594,15.117 29.161,28.074 17.277,21.113 29.631,43.074 37.071,65.879 7.44,22.793 12.6,54.597 15.49,95.398 0.95,17.285 1.07,30.61 0.35,39.961 -0.72,9.367 -3.01,20.278 -6.84,32.766"
         style="fill:#f5f6f5;fill-opacity:1;fill-rule:nonzero;stroke:none"
         id="path24" /><path
         d="m 1257.77,399.336 c -11.52,-10.078 -20.51,-17.039 -26.99,-20.879 -6.48,-3.848 -13.93,-6.367 -22.32,-7.559 -8.41,-1.21 -21.97,-2.05 -40.69,-2.519 h -39.6 l 0.73,51.836 c 0.47,26.875 2.39,54.355 5.75,82.441 3.36,28.074 6.95,45.723 10.8,52.918 1.91,3.84 4.56,6.125 7.93,6.836 3.35,0.727 10.31,0.363 20.88,-1.07 15.35,-1.445 29.03,-4.082 41.03,-7.922 20.64,-6.25 36.84,-18.125 48.61,-35.645 11.74,-17.531 17.88,-39.238 18.36,-65.156 l 1.43,-30.246 z m -22.32,177.117 c -10.56,4.317 -30.72,7.317 -60.47,9.008 -29.77,1.668 -51.37,0.828 -64.8,-2.523 -24.01,-6.727 -36,-13.934 -36,-21.598 0,-3.371 1.31,-5.293 3.95,-5.766 2.63,-0.484 8.29,-0.242 16.93,0.727 12.95,1.902 20.62,0.828 23.04,-3.242 2.39,-4.082 1.9,-15.481 -1.44,-34.204 -3.85,-21.597 -11.29,-110.41 -22.32,-266.406 l -2.88,-36.719 h -17.28 c -9.13,0 -16.09,-1.687 -20.88,-5.039 -7.69,-4.312 -7.45,-8.64 0.71,-12.957 5.77,-2.879 26.17,-5.285 61.2,-7.199 22.56,-1.441 37.19,-1.805 43.93,-1.082 6.71,0.723 10.8,2.52 12.24,5.402 1.9,5.758 0.23,10.196 -5.05,13.321 -5.29,3.113 -14.88,5.398 -28.79,6.844 l -25.92,1.433 0.71,17.277 c 0,8.165 1.67,29.524 5.04,64.083 l 5.76,47.519 23.76,0.723 c 42.23,1.914 69,4.316 80.28,7.199 11.28,2.879 24.84,10.555 40.68,23.047 18.72,14.871 30.61,26.992 35.65,36.355 5.04,9.356 7.55,23.633 7.55,42.84 0,26.875 -6.83,51.234 -20.51,73.078 -13.68,21.836 -32.04,37.805 -55.09,47.879"
         style="fill:#f5f6f5;fill-opacity:1;fill-rule:nonzero;stroke:none"
         id="path26" /></g></g></svg>
